<?xml version="1.0" encoding="utf-8" standalone="no"?>
<!DOCTYPE svg PUBLIC "-//W3C//DTD SVG 1.1//EN"
  "http://www.w3.org/Graphics/SVG/1.1/DTD/svg11.dtd">
<!-- Created with matplotlib (https://matplotlib.org/) -->
<svg height="288pt" version="1.1" viewBox="0 0 288 288" width="288pt" xmlns="http://www.w3.org/2000/svg" xmlns:xlink="http://www.w3.org/1999/xlink">
 <defs>
  <style type="text/css">
*{stroke-linecap:butt;stroke-linejoin:round;}
  </style>
 </defs>
 <g id="figure_1">
  <g id="patch_1">
   <path d="M 0 288 
L 288 288 
L 288 0 
L 0 0 
z
" style="fill:#ffffff;"/>
  </g>
  <g id="axes_1">
   <g id="patch_2">
    <path d="M 36 77.133913 
L 259.2 77.133913 
L 259.2 34.56 
L 36 34.56 
z
" style="fill:#ffffff;"/>
   </g>
   <g id="matplotlib.axis_1">
    <g id="xtick_1">
     <g id="line2d_1">
      <defs>
       <path d="M 0 0 
L 0 3.5 
" id="m81f2a2f2b6" style="stroke:#000000;stroke-width:0.8;"/>
      </defs>
      <g>
       <use style="stroke:#000000;stroke-width:0.8;" x="36" xlink:href="#m81f2a2f2b6" y="77.133913"/>
      </g>
     </g>
     <g id="text_1">
      <!-- 0 -->
      <defs>
       <path d="M 31.78125 66.40625 
Q 24.171875 66.40625 20.328125 58.90625 
Q 16.5 51.421875 16.5 36.375 
Q 16.5 21.390625 20.328125 13.890625 
Q 24.171875 6.390625 31.78125 6.390625 
Q 39.453125 6.390625 43.28125 13.890625 
Q 47.125 21.390625 47.125 36.375 
Q 47.125 51.421875 43.28125 58.90625 
Q 39.453125 66.40625 31.78125 66.40625 
z
M 31.78125 74.21875 
Q 44.046875 74.21875 50.515625 64.515625 
Q 56.984375 54.828125 56.984375 36.375 
Q 56.984375 17.96875 50.515625 8.265625 
Q 44.046875 -1.421875 31.78125 -1.421875 
Q 19.53125 -1.421875 13.0625 8.265625 
Q 6.59375 17.96875 6.59375 36.375 
Q 6.59375 54.828125 13.0625 64.515625 
Q 19.53125 74.21875 31.78125 74.21875 
z
" id="DejaVuSans-48"/>
      </defs>
      <g transform="translate(32.81875 91.732351)scale(0.1 -0.1)">
       <use xlink:href="#DejaVuSans-48"/>
      </g>
     </g>
    </g>
    <g id="xtick_2">
     <g id="line2d_2">
      <g>
       <use style="stroke:#000000;stroke-width:0.8;" x="80.64" xlink:href="#m81f2a2f2b6" y="77.133913"/>
      </g>
     </g>
     <g id="text_2">
      <!-- 2 -->
      <defs>
       <path d="M 19.1875 8.296875 
L 53.609375 8.296875 
L 53.609375 0 
L 7.328125 0 
L 7.328125 8.296875 
Q 12.9375 14.109375 22.625 23.890625 
Q 32.328125 33.6875 34.8125 36.53125 
Q 39.546875 41.84375 41.421875 45.53125 
Q 43.3125 49.21875 43.3125 52.78125 
Q 43.3125 58.59375 39.234375 62.25 
Q 35.15625 65.921875 28.609375 65.921875 
Q 23.96875 65.921875 18.8125 64.3125 
Q 13.671875 62.703125 7.8125 59.421875 
L 7.8125 69.390625 
Q 13.765625 71.78125 18.9375 73 
Q 24.125 74.21875 28.421875 74.21875 
Q 39.75 74.21875 46.484375 68.546875 
Q 53.21875 62.890625 53.21875 53.421875 
Q 53.21875 48.921875 51.53125 44.890625 
Q 49.859375 40.875 45.40625 35.40625 
Q 44.1875 33.984375 37.640625 27.21875 
Q 31.109375 20.453125 19.1875 8.296875 
z
" id="DejaVuSans-50"/>
      </defs>
      <g transform="translate(77.45875 91.732351)scale(0.1 -0.1)">
       <use xlink:href="#DejaVuSans-50"/>
      </g>
     </g>
    </g>
    <g id="xtick_3">
     <g id="line2d_3">
      <g>
       <use style="stroke:#000000;stroke-width:0.8;" x="125.28" xlink:href="#m81f2a2f2b6" y="77.133913"/>
      </g>
     </g>
     <g id="text_3">
      <!-- 4 -->
      <defs>
       <path d="M 37.796875 64.3125 
L 12.890625 25.390625 
L 37.796875 25.390625 
z
M 35.203125 72.90625 
L 47.609375 72.90625 
L 47.609375 25.390625 
L 58.015625 25.390625 
L 58.015625 17.1875 
L 47.609375 17.1875 
L 47.609375 0 
L 37.796875 0 
L 37.796875 17.1875 
L 4.890625 17.1875 
L 4.890625 26.703125 
z
" id="DejaVuSans-52"/>
      </defs>
      <g transform="translate(122.09875 91.732351)scale(0.1 -0.1)">
       <use xlink:href="#DejaVuSans-52"/>
      </g>
     </g>
    </g>
    <g id="xtick_4">
     <g id="line2d_4">
      <g>
       <use style="stroke:#000000;stroke-width:0.8;" x="169.92" xlink:href="#m81f2a2f2b6" y="77.133913"/>
      </g>
     </g>
     <g id="text_4">
      <!-- 6 -->
      <defs>
       <path d="M 33.015625 40.375 
Q 26.375 40.375 22.484375 35.828125 
Q 18.609375 31.296875 18.609375 23.390625 
Q 18.609375 15.53125 22.484375 10.953125 
Q 26.375 6.390625 33.015625 6.390625 
Q 39.65625 6.390625 43.53125 10.953125 
Q 47.40625 15.53125 47.40625 23.390625 
Q 47.40625 31.296875 43.53125 35.828125 
Q 39.65625 40.375 33.015625 40.375 
z
M 52.59375 71.296875 
L 52.59375 62.3125 
Q 48.875 64.0625 45.09375 64.984375 
Q 41.3125 65.921875 37.59375 65.921875 
Q 27.828125 65.921875 22.671875 59.328125 
Q 17.53125 52.734375 16.796875 39.40625 
Q 19.671875 43.65625 24.015625 45.921875 
Q 28.375 48.1875 33.59375 48.1875 
Q 44.578125 48.1875 50.953125 41.515625 
Q 57.328125 34.859375 57.328125 23.390625 
Q 57.328125 12.15625 50.6875 5.359375 
Q 44.046875 -1.421875 33.015625 -1.421875 
Q 20.359375 -1.421875 13.671875 8.265625 
Q 6.984375 17.96875 6.984375 36.375 
Q 6.984375 53.65625 15.1875 63.9375 
Q 23.390625 74.21875 37.203125 74.21875 
Q 40.921875 74.21875 44.703125 73.484375 
Q 48.484375 72.75 52.59375 71.296875 
z
" id="DejaVuSans-54"/>
      </defs>
      <g transform="translate(166.73875 91.732351)scale(0.1 -0.1)">
       <use xlink:href="#DejaVuSans-54"/>
      </g>
     </g>
    </g>
    <g id="xtick_5">
     <g id="line2d_5">
      <g>
       <use style="stroke:#000000;stroke-width:0.8;" x="214.56" xlink:href="#m81f2a2f2b6" y="77.133913"/>
      </g>
     </g>
     <g id="text_5">
      <!-- 8 -->
      <defs>
       <path d="M 31.78125 34.625 
Q 24.75 34.625 20.71875 30.859375 
Q 16.703125 27.09375 16.703125 20.515625 
Q 16.703125 13.921875 20.71875 10.15625 
Q 24.75 6.390625 31.78125 6.390625 
Q 38.8125 6.390625 42.859375 10.171875 
Q 46.921875 13.96875 46.921875 20.515625 
Q 46.921875 27.09375 42.890625 30.859375 
Q 38.875 34.625 31.78125 34.625 
z
M 21.921875 38.8125 
Q 15.578125 40.375 12.03125 44.71875 
Q 8.5 49.078125 8.5 55.328125 
Q 8.5 64.0625 14.71875 69.140625 
Q 20.953125 74.21875 31.78125 74.21875 
Q 42.671875 74.21875 48.875 69.140625 
Q 55.078125 64.0625 55.078125 55.328125 
Q 55.078125 49.078125 51.53125 44.71875 
Q 48 40.375 41.703125 38.8125 
Q 48.828125 37.15625 52.796875 32.3125 
Q 56.78125 27.484375 56.78125 20.515625 
Q 56.78125 9.90625 50.3125 4.234375 
Q 43.84375 -1.421875 31.78125 -1.421875 
Q 19.734375 -1.421875 13.25 4.234375 
Q 6.78125 9.90625 6.78125 20.515625 
Q 6.78125 27.484375 10.78125 32.3125 
Q 14.796875 37.15625 21.921875 38.8125 
z
M 18.3125 54.390625 
Q 18.3125 48.734375 21.84375 45.5625 
Q 25.390625 42.390625 31.78125 42.390625 
Q 38.140625 42.390625 41.71875 45.5625 
Q 45.3125 48.734375 45.3125 54.390625 
Q 45.3125 60.0625 41.71875 63.234375 
Q 38.140625 66.40625 31.78125 66.40625 
Q 25.390625 66.40625 21.84375 63.234375 
Q 18.3125 60.0625 18.3125 54.390625 
z
" id="DejaVuSans-56"/>
      </defs>
      <g transform="translate(211.37875 91.732351)scale(0.1 -0.1)">
       <use xlink:href="#DejaVuSans-56"/>
      </g>
     </g>
    </g>
    <g id="xtick_6">
     <g id="line2d_6">
      <g>
       <use style="stroke:#000000;stroke-width:0.8;" x="259.2" xlink:href="#m81f2a2f2b6" y="77.133913"/>
      </g>
     </g>
     <g id="text_6">
      <!-- 10 -->
      <defs>
       <path d="M 12.40625 8.296875 
L 28.515625 8.296875 
L 28.515625 63.921875 
L 10.984375 60.40625 
L 10.984375 69.390625 
L 28.421875 72.90625 
L 38.28125 72.90625 
L 38.28125 8.296875 
L 54.390625 8.296875 
L 54.390625 0 
L 12.40625 0 
z
" id="DejaVuSans-49"/>
      </defs>
      <g transform="translate(252.8375 91.732351)scale(0.1 -0.1)">
       <use xlink:href="#DejaVuSans-49"/>
       <use x="63.623047" xlink:href="#DejaVuSans-48"/>
      </g>
     </g>
    </g>
   </g>
   <g id="matplotlib.axis_2">
    <g id="ytick_1">
     <g id="line2d_7">
      <defs>
       <path d="M 0 0 
L -3.5 0 
" id="me527b84c84" style="stroke:#000000;stroke-width:0.8;"/>
      </defs>
      <g>
       <use style="stroke:#000000;stroke-width:0.8;" x="36" xlink:href="#me527b84c84" y="77.133913"/>
      </g>
     </g>
     <g id="text_7">
      <!-- 0 -->
      <g transform="translate(22.6375 80.933132)scale(0.1 -0.1)">
       <use xlink:href="#DejaVuSans-48"/>
      </g>
     </g>
    </g>
    <g id="ytick_2">
     <g id="line2d_8">
      <g>
       <use style="stroke:#000000;stroke-width:0.8;" x="36" xlink:href="#me527b84c84" y="55.846957"/>
      </g>
     </g>
     <g id="text_8">
      <!-- 40 -->
      <g transform="translate(16.275 59.646175)scale(0.1 -0.1)">
       <use xlink:href="#DejaVuSans-52"/>
       <use x="63.623047" xlink:href="#DejaVuSans-48"/>
      </g>
     </g>
    </g>
    <g id="ytick_3">
     <g id="line2d_9">
      <g>
       <use style="stroke:#000000;stroke-width:0.8;" x="36" xlink:href="#me527b84c84" y="34.56"/>
      </g>
     </g>
     <g id="text_9">
      <!-- 80 -->
      <g transform="translate(16.275 38.359219)scale(0.1 -0.1)">
       <use xlink:href="#DejaVuSans-56"/>
       <use x="63.623047" xlink:href="#DejaVuSans-48"/>
      </g>
     </g>
    </g>
   </g>
   <g id="line2d_10">
    <path clip-path="url(#pf045180b8f)" d="M 36 77.133913 
L 38.254545 76.125425 
L 40.509091 72.537214 
L 42.763636 69.458621 
L 45.018182 68.575419 
L 47.272727 66.536988 
L 49.527273 65.213781 
L 51.781818 64.525778 
L 54.036364 61.758158 
L 56.290909 60.863345 
L 58.545455 59.905348 
L 60.8 57.134419 
L 63.054545 56.429285 
L 65.309091 55.421934 
L 67.563636 54.092074 
L 69.818182 53.735335 
L 72.072727 51.684687 
L 74.327273 50.916808 
L 76.581818 50.01894 
L 78.836364 48.98503 
L 81.090909 48.416106 
L 83.345455 47.603 
L 85.6 47.415561 
L 87.854545 46.698117 
L 90.109091 46.150336 
L 92.363636 45.45154 
L 94.618182 44.974211 
L 96.872727 44.761791 
L 99.127273 44.352157 
L 101.381818 43.909372 
L 103.636364 43.435045 
L 105.890909 43.051086 
L 108.145455 42.725472 
L 110.4 42.704478 
L 112.654545 42.611458 
L 114.909091 42.611458 
L 117.163636 42.611458 
L 119.418182 42.611458 
L 121.672727 42.611458 
L 123.927273 42.611458 
L 126.181818 42.611458 
L 128.436364 42.611458 
L 130.690909 42.611458 
L 132.945455 42.611458 
L 135.2 42.611458 
L 137.454545 42.611458 
L 139.709091 42.611458 
L 141.963636 42.611458 
L 144.218182 42.611458 
L 146.472727 42.611458 
L 148.727273 42.611458 
L 150.981818 42.611458 
L 153.236364 42.611458 
L 155.490909 42.611458 
L 157.745455 42.611458 
L 160 42.611458 
L 162.254545 42.611458 
L 164.509091 42.611458 
L 166.763636 42.611458 
L 169.018182 42.611458 
L 171.272727 42.611458 
L 173.527273 42.611458 
L 175.781818 42.611458 
L 178.036364 42.611458 
L 180.290909 42.611458 
L 182.545455 42.611458 
L 184.8 42.611458 
L 187.054545 42.611458 
L 189.309091 42.611458 
L 191.563636 42.611458 
L 193.818182 42.611458 
L 196.072727 42.611458 
L 198.327273 42.611458 
L 200.581818 42.611458 
L 202.836364 42.611458 
L 205.090909 42.611458 
L 207.345455 42.611458 
L 209.6 42.611458 
L 211.854545 42.611458 
L 214.109091 42.611458 
L 216.363636 42.611458 
L 218.618182 42.611458 
L 220.872727 42.611458 
L 223.127273 42.611458 
L 225.381818 42.611458 
L 227.636364 42.611458 
L 229.890909 42.611458 
L 232.145455 42.611458 
L 234.4 42.611458 
L 236.654545 42.611458 
L 238.909091 42.611458 
L 241.163636 42.611458 
L 243.418182 42.611458 
L 245.672727 42.611458 
L 247.927273 42.611458 
L 250.181818 42.611458 
L 252.436364 42.611458 
L 254.690909 42.611458 
L 256.945455 42.611458 
L 259.2 42.611458 
" style="fill:none;stroke:#da70d6;stroke-linecap:square;stroke-width:1.5;"/>
   </g>
   <g id="line2d_11">
    <path clip-path="url(#pf045180b8f)" d="M 36 77.133913 
L 38.254545 76.45181 
L 40.509091 63.506442 
L 42.763636 51.491036 
L 45.018182 50.69535 
L 47.272727 49.936904 
L 49.527273 49.376251 
L 51.781818 49.14659 
L 54.036364 49.0697 
L 56.290909 49.021026 
L 58.545455 48.98931 
L 60.8 48.957594 
L 63.054545 48.925877 
L 65.309091 48.894161 
L 67.563636 48.862445 
L 69.818182 48.830729 
L 72.072727 48.799012 
L 74.327273 48.767296 
L 76.581818 48.735564 
L 78.836364 48.695234 
L 81.090909 48.654903 
L 83.345455 48.610561 
L 85.6 48.505016 
L 87.854545 48.399471 
L 90.109091 48.293926 
L 92.363636 48.180712 
L 94.618182 47.809288 
L 96.872727 47.601705 
L 99.127273 47.287204 
L 101.381818 47.229419 
L 103.636364 47.222802 
L 105.890909 47.216185 
L 108.145455 47.161934 
L 110.4 47.101451 
L 112.654545 47.040968 
L 114.909091 46.771848 
L 117.163636 46.522201 
L 119.418182 46.314494 
L 121.672727 46.206923 
L 123.927273 46.103542 
L 126.181818 45.929654 
L 128.436364 45.609514 
L 130.690909 45.468798 
L 132.945455 45.328864 
L 135.2 45.273453 
L 137.454545 45.212806 
L 139.709091 45.116503 
L 141.963636 45.0202 
L 144.218182 44.923898 
L 146.472727 44.824276 
L 148.727273 44.701931 
L 150.981818 44.594999 
L 153.236364 44.517423 
L 155.490909 44.29521 
L 157.745455 44.145987 
L 160 44.040248 
L 162.254545 43.994242 
L 164.509091 43.948236 
L 166.763636 43.873434 
L 169.018182 43.835031 
L 171.272727 43.804327 
L 173.527273 43.688379 
L 175.781818 43.625807 
L 178.036364 43.552163 
L 180.290909 43.54669 
L 182.545455 43.534078 
L 184.8 43.51437 
L 187.054545 43.470965 
L 189.309091 43.403241 
L 191.563636 43.210268 
L 193.818182 43.181038 
L 196.072727 43.156402 
L 198.327273 43.140074 
L 200.581818 43.123745 
L 202.836364 43.111107 
L 205.090909 43.098417 
L 207.345455 43.085728 
L 209.6 43.073039 
L 211.854545 43.060308 
L 214.109091 43.056343 
L 216.363636 43.055922 
L 218.618182 43.052607 
L 220.872727 43.047132 
L 223.127273 43.041656 
L 225.381818 43.03618 
L 227.636364 43.030704 
L 229.890909 43.025229 
L 232.145455 43.019753 
L 234.4 43.014277 
L 236.654545 43.008802 
L 238.909091 43.003522 
L 241.163636 42.998467 
L 243.418182 42.993413 
L 245.672727 42.944818 
L 247.927273 42.944818 
L 250.181818 42.944818 
L 252.436364 42.944818 
L 254.690909 42.944818 
L 256.945455 42.944818 
L 259.2 42.944818 
" style="fill:none;stroke:#daa520;stroke-linecap:square;stroke-width:1.5;"/>
   </g>
   <g id="line2d_12">
    <path clip-path="url(#pf045180b8f)" d="M 36 77.133913 
L 38.254545 74.543509 
L 40.509091 73.753526 
L 42.763636 72.682342 
L 45.018182 71.53544 
L 47.272727 70.338536 
L 49.527273 69.288109 
L 51.781818 68.111513 
L 54.036364 66.845469 
L 56.290909 65.425407 
L 58.545455 64.033942 
L 60.8 61.958435 
L 63.054545 60.263203 
L 65.309091 58.491707 
L 67.563636 56.539326 
L 69.818182 54.118903 
L 72.072727 52.192085 
L 74.327273 49.528961 
L 76.581818 47.45894 
L 78.836364 45.523595 
L 81.090909 44.611549 
L 83.345455 43.909999 
L 85.6 43.426562 
L 87.854545 42.935157 
L 90.109091 42.935157 
L 92.363636 42.935157 
L 94.618182 42.935157 
L 96.872727 42.935157 
L 99.127273 42.935157 
L 101.381818 42.935157 
L 103.636364 42.935157 
L 105.890909 42.935157 
L 108.145455 42.935157 
L 110.4 42.935157 
L 112.654545 42.935157 
L 114.909091 42.935157 
L 117.163636 42.935157 
L 119.418182 42.935157 
L 121.672727 42.935157 
L 123.927273 42.935157 
L 126.181818 42.935157 
L 128.436364 42.935157 
L 130.690909 42.935157 
L 132.945455 42.935157 
L 135.2 42.935157 
L 137.454545 42.935157 
L 139.709091 42.935157 
L 141.963636 42.935157 
L 144.218182 42.935157 
L 146.472727 42.935157 
L 148.727273 42.935157 
L 150.981818 42.935157 
L 153.236364 42.935157 
L 155.490909 42.935157 
L 157.745455 42.935157 
L 160 42.935157 
L 162.254545 42.935157 
L 164.509091 42.935157 
L 166.763636 42.935157 
L 169.018182 42.935157 
L 171.272727 42.935157 
L 173.527273 42.935157 
L 175.781818 42.935157 
L 178.036364 42.935157 
L 180.290909 42.935157 
L 182.545455 42.935157 
L 184.8 42.935157 
L 187.054545 42.935157 
L 189.309091 42.935157 
L 191.563636 42.935157 
L 193.818182 42.935157 
L 196.072727 42.935157 
L 198.327273 42.935157 
L 200.581818 42.935157 
L 202.836364 42.935157 
L 205.090909 42.935157 
L 207.345455 42.935157 
L 209.6 42.935157 
L 211.854545 42.935157 
L 214.109091 42.935157 
L 216.363636 42.935157 
L 218.618182 42.935157 
L 220.872727 42.935157 
L 223.127273 42.935157 
L 225.381818 42.935157 
L 227.636364 42.935157 
L 229.890909 42.935157 
L 232.145455 42.935157 
L 234.4 42.935157 
L 236.654545 42.935157 
L 238.909091 42.935157 
L 241.163636 42.935157 
L 243.418182 42.935157 
L 245.672727 42.935157 
L 247.927273 42.935157 
L 250.181818 42.935157 
L 252.436364 42.935157 
L 254.690909 42.935157 
L 256.945455 42.935157 
L 259.2 42.935157 
" style="fill:none;stroke:#00bfff;stroke-linecap:square;stroke-width:1.5;"/>
   </g>
   <g id="patch_3">
    <path d="M 36 77.133913 
L 36 34.56 
" style="fill:none;stroke:#000000;stroke-linecap:square;stroke-linejoin:miter;stroke-width:0.8;"/>
   </g>
   <g id="patch_4">
    <path d="M 259.2 77.133913 
L 259.2 34.56 
" style="fill:none;stroke:#000000;stroke-linecap:square;stroke-linejoin:miter;stroke-width:0.8;"/>
   </g>
   <g id="patch_5">
    <path d="M 36 77.133913 
L 259.2 77.133913 
" style="fill:none;stroke:#000000;stroke-linecap:square;stroke-linejoin:miter;stroke-width:0.8;"/>
   </g>
   <g id="patch_6">
    <path d="M 36 34.56 
L 259.2 34.56 
" style="fill:none;stroke:#000000;stroke-linecap:square;stroke-linejoin:miter;stroke-width:0.8;"/>
   </g>
   <g id="text_10">
    <!-- Census community -->
    <defs>
     <path d="M 64.40625 67.28125 
L 64.40625 56.890625 
Q 59.421875 61.53125 53.78125 63.8125 
Q 48.140625 66.109375 41.796875 66.109375 
Q 29.296875 66.109375 22.65625 58.46875 
Q 16.015625 50.828125 16.015625 36.375 
Q 16.015625 21.96875 22.65625 14.328125 
Q 29.296875 6.6875 41.796875 6.6875 
Q 48.140625 6.6875 53.78125 8.984375 
Q 59.421875 11.28125 64.40625 15.921875 
L 64.40625 5.609375 
Q 59.234375 2.09375 53.4375 0.328125 
Q 47.65625 -1.421875 41.21875 -1.421875 
Q 24.65625 -1.421875 15.125 8.703125 
Q 5.609375 18.84375 5.609375 36.375 
Q 5.609375 53.953125 15.125 64.078125 
Q 24.65625 74.21875 41.21875 74.21875 
Q 47.75 74.21875 53.53125 72.484375 
Q 59.328125 70.75 64.40625 67.28125 
z
" id="DejaVuSans-67"/>
     <path d="M 56.203125 29.59375 
L 56.203125 25.203125 
L 14.890625 25.203125 
Q 15.484375 15.921875 20.484375 11.0625 
Q 25.484375 6.203125 34.421875 6.203125 
Q 39.59375 6.203125 44.453125 7.46875 
Q 49.3125 8.734375 54.109375 11.28125 
L 54.109375 2.78125 
Q 49.265625 0.734375 44.1875 -0.34375 
Q 39.109375 -1.421875 33.890625 -1.421875 
Q 20.796875 -1.421875 13.15625 6.1875 
Q 5.515625 13.8125 5.515625 26.8125 
Q 5.515625 40.234375 12.765625 48.109375 
Q 20.015625 56 32.328125 56 
Q 43.359375 56 49.78125 48.890625 
Q 56.203125 41.796875 56.203125 29.59375 
z
M 47.21875 32.234375 
Q 47.125 39.59375 43.09375 43.984375 
Q 39.0625 48.390625 32.421875 48.390625 
Q 24.90625 48.390625 20.390625 44.140625 
Q 15.875 39.890625 15.1875 32.171875 
z
" id="DejaVuSans-101"/>
     <path d="M 54.890625 33.015625 
L 54.890625 0 
L 45.90625 0 
L 45.90625 32.71875 
Q 45.90625 40.484375 42.875 44.328125 
Q 39.84375 48.1875 33.796875 48.1875 
Q 26.515625 48.1875 22.3125 43.546875 
Q 18.109375 38.921875 18.109375 30.90625 
L 18.109375 0 
L 9.078125 0 
L 9.078125 54.6875 
L 18.109375 54.6875 
L 18.109375 46.1875 
Q 21.34375 51.125 25.703125 53.5625 
Q 30.078125 56 35.796875 56 
Q 45.21875 56 50.046875 50.171875 
Q 54.890625 44.34375 54.890625 33.015625 
z
" id="DejaVuSans-110"/>
     <path d="M 44.28125 53.078125 
L 44.28125 44.578125 
Q 40.484375 46.53125 36.375 47.5 
Q 32.28125 48.484375 27.875 48.484375 
Q 21.1875 48.484375 17.84375 46.4375 
Q 14.5 44.390625 14.5 40.28125 
Q 14.5 37.15625 16.890625 35.375 
Q 19.28125 33.59375 26.515625 31.984375 
L 29.59375 31.296875 
Q 39.15625 29.25 43.1875 25.515625 
Q 47.21875 21.78125 47.21875 15.09375 
Q 47.21875 7.46875 41.1875 3.015625 
Q 35.15625 -1.421875 24.609375 -1.421875 
Q 20.21875 -1.421875 15.453125 -0.5625 
Q 10.6875 0.296875 5.421875 2 
L 5.421875 11.28125 
Q 10.40625 8.6875 15.234375 7.390625 
Q 20.0625 6.109375 24.8125 6.109375 
Q 31.15625 6.109375 34.5625 8.28125 
Q 37.984375 10.453125 37.984375 14.40625 
Q 37.984375 18.0625 35.515625 20.015625 
Q 33.0625 21.96875 24.703125 23.78125 
L 21.578125 24.515625 
Q 13.234375 26.265625 9.515625 29.90625 
Q 5.8125 33.546875 5.8125 39.890625 
Q 5.8125 47.609375 11.28125 51.796875 
Q 16.75 56 26.8125 56 
Q 31.78125 56 36.171875 55.265625 
Q 40.578125 54.546875 44.28125 53.078125 
z
" id="DejaVuSans-115"/>
     <path d="M 8.5 21.578125 
L 8.5 54.6875 
L 17.484375 54.6875 
L 17.484375 21.921875 
Q 17.484375 14.15625 20.5 10.265625 
Q 23.53125 6.390625 29.59375 6.390625 
Q 36.859375 6.390625 41.078125 11.03125 
Q 45.3125 15.671875 45.3125 23.6875 
L 45.3125 54.6875 
L 54.296875 54.6875 
L 54.296875 0 
L 45.3125 0 
L 45.3125 8.40625 
Q 42.046875 3.421875 37.71875 1 
Q 33.40625 -1.421875 27.6875 -1.421875 
Q 18.265625 -1.421875 13.375 4.4375 
Q 8.5 10.296875 8.5 21.578125 
z
M 31.109375 56 
z
" id="DejaVuSans-117"/>
     <path id="DejaVuSans-32"/>
     <path d="M 48.78125 52.59375 
L 48.78125 44.1875 
Q 44.96875 46.296875 41.140625 47.34375 
Q 37.3125 48.390625 33.40625 48.390625 
Q 24.65625 48.390625 19.8125 42.84375 
Q 14.984375 37.3125 14.984375 27.296875 
Q 14.984375 17.28125 19.8125 11.734375 
Q 24.65625 6.203125 33.40625 6.203125 
Q 37.3125 6.203125 41.140625 7.25 
Q 44.96875 8.296875 48.78125 10.40625 
L 48.78125 2.09375 
Q 45.015625 0.34375 40.984375 -0.53125 
Q 36.96875 -1.421875 32.421875 -1.421875 
Q 20.0625 -1.421875 12.78125 6.34375 
Q 5.515625 14.109375 5.515625 27.296875 
Q 5.515625 40.671875 12.859375 48.328125 
Q 20.21875 56 33.015625 56 
Q 37.15625 56 41.109375 55.140625 
Q 45.0625 54.296875 48.78125 52.59375 
z
" id="DejaVuSans-99"/>
     <path d="M 30.609375 48.390625 
Q 23.390625 48.390625 19.1875 42.75 
Q 14.984375 37.109375 14.984375 27.296875 
Q 14.984375 17.484375 19.15625 11.84375 
Q 23.34375 6.203125 30.609375 6.203125 
Q 37.796875 6.203125 41.984375 11.859375 
Q 46.1875 17.53125 46.1875 27.296875 
Q 46.1875 37.015625 41.984375 42.703125 
Q 37.796875 48.390625 30.609375 48.390625 
z
M 30.609375 56 
Q 42.328125 56 49.015625 48.375 
Q 55.71875 40.765625 55.71875 27.296875 
Q 55.71875 13.875 49.015625 6.21875 
Q 42.328125 -1.421875 30.609375 -1.421875 
Q 18.84375 -1.421875 12.171875 6.21875 
Q 5.515625 13.875 5.515625 27.296875 
Q 5.515625 40.765625 12.171875 48.375 
Q 18.84375 56 30.609375 56 
z
" id="DejaVuSans-111"/>
     <path d="M 52 44.1875 
Q 55.375 50.25 60.0625 53.125 
Q 64.75 56 71.09375 56 
Q 79.640625 56 84.28125 50.015625 
Q 88.921875 44.046875 88.921875 33.015625 
L 88.921875 0 
L 79.890625 0 
L 79.890625 32.71875 
Q 79.890625 40.578125 77.09375 44.375 
Q 74.3125 48.1875 68.609375 48.1875 
Q 61.625 48.1875 57.5625 43.546875 
Q 53.515625 38.921875 53.515625 30.90625 
L 53.515625 0 
L 44.484375 0 
L 44.484375 32.71875 
Q 44.484375 40.625 41.703125 44.40625 
Q 38.921875 48.1875 33.109375 48.1875 
Q 26.21875 48.1875 22.15625 43.53125 
Q 18.109375 38.875 18.109375 30.90625 
L 18.109375 0 
L 9.078125 0 
L 9.078125 54.6875 
L 18.109375 54.6875 
L 18.109375 46.1875 
Q 21.1875 51.21875 25.484375 53.609375 
Q 29.78125 56 35.6875 56 
Q 41.65625 56 45.828125 52.96875 
Q 50 49.953125 52 44.1875 
z
" id="DejaVuSans-109"/>
     <path d="M 9.421875 54.6875 
L 18.40625 54.6875 
L 18.40625 0 
L 9.421875 0 
z
M 9.421875 75.984375 
L 18.40625 75.984375 
L 18.40625 64.59375 
L 9.421875 64.59375 
z
" id="DejaVuSans-105"/>
     <path d="M 18.3125 70.21875 
L 18.3125 54.6875 
L 36.8125 54.6875 
L 36.8125 47.703125 
L 18.3125 47.703125 
L 18.3125 18.015625 
Q 18.3125 11.328125 20.140625 9.421875 
Q 21.96875 7.515625 27.59375 7.515625 
L 36.8125 7.515625 
L 36.8125 0 
L 27.59375 0 
Q 17.1875 0 13.234375 3.875 
Q 9.28125 7.765625 9.28125 18.015625 
L 9.28125 47.703125 
L 2.6875 47.703125 
L 2.6875 54.6875 
L 9.28125 54.6875 
L 9.28125 70.21875 
z
" id="DejaVuSans-116"/>
     <path d="M 32.171875 -5.078125 
Q 28.375 -14.84375 24.75 -17.8125 
Q 21.140625 -20.796875 15.09375 -20.796875 
L 7.90625 -20.796875 
L 7.90625 -13.28125 
L 13.1875 -13.28125 
Q 16.890625 -13.28125 18.9375 -11.515625 
Q 21 -9.765625 23.484375 -3.21875 
L 25.09375 0.875 
L 2.984375 54.6875 
L 12.5 54.6875 
L 29.59375 11.921875 
L 46.6875 54.6875 
L 56.203125 54.6875 
z
" id="DejaVuSans-121"/>
    </defs>
    <g transform="translate(104.490703 28.56)scale(0.09 -0.09)">
     <use xlink:href="#DejaVuSans-67"/>
     <use x="69.824219" xlink:href="#DejaVuSans-101"/>
     <use x="131.347656" xlink:href="#DejaVuSans-110"/>
     <use x="194.726562" xlink:href="#DejaVuSans-115"/>
     <use x="246.826172" xlink:href="#DejaVuSans-117"/>
     <use x="310.205078" xlink:href="#DejaVuSans-115"/>
     <use x="362.304688" xlink:href="#DejaVuSans-32"/>
     <use x="394.091797" xlink:href="#DejaVuSans-99"/>
     <use x="449.072266" xlink:href="#DejaVuSans-111"/>
     <use x="510.253906" xlink:href="#DejaVuSans-109"/>
     <use x="607.666016" xlink:href="#DejaVuSans-109"/>
     <use x="705.078125" xlink:href="#DejaVuSans-117"/>
     <use x="768.457031" xlink:href="#DejaVuSans-110"/>
     <use x="831.835938" xlink:href="#DejaVuSans-105"/>
     <use x="859.619141" xlink:href="#DejaVuSans-116"/>
     <use x="898.828125" xlink:href="#DejaVuSans-121"/>
    </g>
   </g>
  </g>
  <g id="axes_2">
   <g id="patch_7">
    <path d="M 36 153.766957 
L 259.2 153.766957 
L 259.2 111.193043 
L 36 111.193043 
z
" style="fill:#ffffff;"/>
   </g>
   <g id="matplotlib.axis_3">
    <g id="xtick_7">
     <g id="line2d_13">
      <g>
       <use style="stroke:#000000;stroke-width:0.8;" x="36" xlink:href="#m81f2a2f2b6" y="153.766957"/>
      </g>
     </g>
     <g id="text_11">
      <!-- 0 -->
      <g transform="translate(32.81875 168.365394)scale(0.1 -0.1)">
       <use xlink:href="#DejaVuSans-48"/>
      </g>
     </g>
    </g>
    <g id="xtick_8">
     <g id="line2d_14">
      <g>
       <use style="stroke:#000000;stroke-width:0.8;" x="80.64" xlink:href="#m81f2a2f2b6" y="153.766957"/>
      </g>
     </g>
     <g id="text_12">
      <!-- 2 -->
      <g transform="translate(77.45875 168.365394)scale(0.1 -0.1)">
       <use xlink:href="#DejaVuSans-50"/>
      </g>
     </g>
    </g>
    <g id="xtick_9">
     <g id="line2d_15">
      <g>
       <use style="stroke:#000000;stroke-width:0.8;" x="125.28" xlink:href="#m81f2a2f2b6" y="153.766957"/>
      </g>
     </g>
     <g id="text_13">
      <!-- 4 -->
      <g transform="translate(122.09875 168.365394)scale(0.1 -0.1)">
       <use xlink:href="#DejaVuSans-52"/>
      </g>
     </g>
    </g>
    <g id="xtick_10">
     <g id="line2d_16">
      <g>
       <use style="stroke:#000000;stroke-width:0.8;" x="169.92" xlink:href="#m81f2a2f2b6" y="153.766957"/>
      </g>
     </g>
     <g id="text_14">
      <!-- 6 -->
      <g transform="translate(166.73875 168.365394)scale(0.1 -0.1)">
       <use xlink:href="#DejaVuSans-54"/>
      </g>
     </g>
    </g>
    <g id="xtick_11">
     <g id="line2d_17">
      <g>
       <use style="stroke:#000000;stroke-width:0.8;" x="214.56" xlink:href="#m81f2a2f2b6" y="153.766957"/>
      </g>
     </g>
     <g id="text_15">
      <!-- 8 -->
      <g transform="translate(211.37875 168.365394)scale(0.1 -0.1)">
       <use xlink:href="#DejaVuSans-56"/>
      </g>
     </g>
    </g>
    <g id="xtick_12">
     <g id="line2d_18">
      <g>
       <use style="stroke:#000000;stroke-width:0.8;" x="259.2" xlink:href="#m81f2a2f2b6" y="153.766957"/>
      </g>
     </g>
     <g id="text_16">
      <!-- 10 -->
      <g transform="translate(252.8375 168.365394)scale(0.1 -0.1)">
       <use xlink:href="#DejaVuSans-49"/>
       <use x="63.623047" xlink:href="#DejaVuSans-48"/>
      </g>
     </g>
    </g>
   </g>
   <g id="matplotlib.axis_4">
    <g id="ytick_4">
     <g id="line2d_19">
      <g>
       <use style="stroke:#000000;stroke-width:0.8;" x="36" xlink:href="#me527b84c84" y="153.766957"/>
      </g>
     </g>
     <g id="text_17">
      <!-- 0 -->
      <g transform="translate(22.6375 157.566175)scale(0.1 -0.1)">
       <use xlink:href="#DejaVuSans-48"/>
      </g>
     </g>
    </g>
    <g id="ytick_5">
     <g id="line2d_20">
      <g>
       <use style="stroke:#000000;stroke-width:0.8;" x="36" xlink:href="#me527b84c84" y="132.48"/>
      </g>
     </g>
     <g id="text_18">
      <!-- 20 -->
      <g transform="translate(16.275 136.279219)scale(0.1 -0.1)">
       <use xlink:href="#DejaVuSans-50"/>
       <use x="63.623047" xlink:href="#DejaVuSans-48"/>
      </g>
     </g>
    </g>
    <g id="ytick_6">
     <g id="line2d_21">
      <g>
       <use style="stroke:#000000;stroke-width:0.8;" x="36" xlink:href="#me527b84c84" y="111.193043"/>
      </g>
     </g>
     <g id="text_19">
      <!-- 40 -->
      <g transform="translate(16.275 114.992262)scale(0.1 -0.1)">
       <use xlink:href="#DejaVuSans-52"/>
       <use x="63.623047" xlink:href="#DejaVuSans-48"/>
      </g>
     </g>
    </g>
    <g id="text_20">
     <!-- Quality (%) -->
     <defs>
      <path d="M 39.40625 66.21875 
Q 28.65625 66.21875 22.328125 58.203125 
Q 16.015625 50.203125 16.015625 36.375 
Q 16.015625 22.609375 22.328125 14.59375 
Q 28.65625 6.59375 39.40625 6.59375 
Q 50.140625 6.59375 56.421875 14.59375 
Q 62.703125 22.609375 62.703125 36.375 
Q 62.703125 50.203125 56.421875 58.203125 
Q 50.140625 66.21875 39.40625 66.21875 
z
M 53.21875 1.3125 
L 66.21875 -12.890625 
L 54.296875 -12.890625 
L 43.5 -1.21875 
Q 41.890625 -1.3125 41.03125 -1.359375 
Q 40.1875 -1.421875 39.40625 -1.421875 
Q 24.03125 -1.421875 14.8125 8.859375 
Q 5.609375 19.140625 5.609375 36.375 
Q 5.609375 53.65625 14.8125 63.9375 
Q 24.03125 74.21875 39.40625 74.21875 
Q 54.734375 74.21875 63.90625 63.9375 
Q 73.09375 53.65625 73.09375 36.375 
Q 73.09375 23.6875 67.984375 14.640625 
Q 62.890625 5.609375 53.21875 1.3125 
z
" id="DejaVuSans-81"/>
      <path d="M 34.28125 27.484375 
Q 23.390625 27.484375 19.1875 25 
Q 14.984375 22.515625 14.984375 16.5 
Q 14.984375 11.71875 18.140625 8.90625 
Q 21.296875 6.109375 26.703125 6.109375 
Q 34.1875 6.109375 38.703125 11.40625 
Q 43.21875 16.703125 43.21875 25.484375 
L 43.21875 27.484375 
z
M 52.203125 31.203125 
L 52.203125 0 
L 43.21875 0 
L 43.21875 8.296875 
Q 40.140625 3.328125 35.546875 0.953125 
Q 30.953125 -1.421875 24.3125 -1.421875 
Q 15.921875 -1.421875 10.953125 3.296875 
Q 6 8.015625 6 15.921875 
Q 6 25.140625 12.171875 29.828125 
Q 18.359375 34.515625 30.609375 34.515625 
L 43.21875 34.515625 
L 43.21875 35.40625 
Q 43.21875 41.609375 39.140625 45 
Q 35.0625 48.390625 27.6875 48.390625 
Q 23 48.390625 18.546875 47.265625 
Q 14.109375 46.140625 10.015625 43.890625 
L 10.015625 52.203125 
Q 14.9375 54.109375 19.578125 55.046875 
Q 24.21875 56 28.609375 56 
Q 40.484375 56 46.34375 49.84375 
Q 52.203125 43.703125 52.203125 31.203125 
z
" id="DejaVuSans-97"/>
      <path d="M 9.421875 75.984375 
L 18.40625 75.984375 
L 18.40625 0 
L 9.421875 0 
z
" id="DejaVuSans-108"/>
      <path d="M 31 75.875 
Q 24.46875 64.65625 21.28125 53.65625 
Q 18.109375 42.671875 18.109375 31.390625 
Q 18.109375 20.125 21.3125 9.0625 
Q 24.515625 -2 31 -13.1875 
L 23.1875 -13.1875 
Q 15.875 -1.703125 12.234375 9.375 
Q 8.59375 20.453125 8.59375 31.390625 
Q 8.59375 42.28125 12.203125 53.3125 
Q 15.828125 64.359375 23.1875 75.875 
z
" id="DejaVuSans-40"/>
      <path d="M 72.703125 32.078125 
Q 68.453125 32.078125 66.03125 28.46875 
Q 63.625 24.859375 63.625 18.40625 
Q 63.625 12.0625 66.03125 8.421875 
Q 68.453125 4.78125 72.703125 4.78125 
Q 76.859375 4.78125 79.265625 8.421875 
Q 81.6875 12.0625 81.6875 18.40625 
Q 81.6875 24.8125 79.265625 28.4375 
Q 76.859375 32.078125 72.703125 32.078125 
z
M 72.703125 38.28125 
Q 80.421875 38.28125 84.953125 32.90625 
Q 89.5 27.546875 89.5 18.40625 
Q 89.5 9.28125 84.9375 3.921875 
Q 80.375 -1.421875 72.703125 -1.421875 
Q 64.890625 -1.421875 60.34375 3.921875 
Q 55.8125 9.28125 55.8125 18.40625 
Q 55.8125 27.59375 60.375 32.9375 
Q 64.9375 38.28125 72.703125 38.28125 
z
M 22.3125 68.015625 
Q 18.109375 68.015625 15.6875 64.375 
Q 13.28125 60.75 13.28125 54.390625 
Q 13.28125 47.953125 15.671875 44.328125 
Q 18.0625 40.71875 22.3125 40.71875 
Q 26.5625 40.71875 28.96875 44.328125 
Q 31.390625 47.953125 31.390625 54.390625 
Q 31.390625 60.6875 28.953125 64.34375 
Q 26.515625 68.015625 22.3125 68.015625 
z
M 66.40625 74.21875 
L 74.21875 74.21875 
L 28.609375 -1.421875 
L 20.796875 -1.421875 
z
M 22.3125 74.21875 
Q 30.03125 74.21875 34.609375 68.875 
Q 39.203125 63.53125 39.203125 54.390625 
Q 39.203125 45.171875 34.640625 39.84375 
Q 30.078125 34.515625 22.3125 34.515625 
Q 14.546875 34.515625 10.03125 39.859375 
Q 5.515625 45.21875 5.515625 54.390625 
Q 5.515625 63.484375 10.046875 68.84375 
Q 14.59375 74.21875 22.3125 74.21875 
z
" id="DejaVuSans-37"/>
      <path d="M 8.015625 75.875 
L 15.828125 75.875 
Q 23.140625 64.359375 26.78125 53.3125 
Q 30.421875 42.28125 30.421875 31.390625 
Q 30.421875 20.453125 26.78125 9.375 
Q 23.140625 -1.703125 15.828125 -13.1875 
L 8.015625 -13.1875 
Q 14.5 -2 17.703125 9.0625 
Q 20.90625 20.125 20.90625 31.390625 
Q 20.90625 42.671875 17.703125 53.65625 
Q 14.5 64.65625 8.015625 75.875 
z
" id="DejaVuSans-41"/>
     </defs>
     <g transform="translate(10.195312 160.587812)rotate(-90)scale(0.1 -0.1)">
      <use xlink:href="#DejaVuSans-81"/>
      <use x="78.710938" xlink:href="#DejaVuSans-117"/>
      <use x="142.089844" xlink:href="#DejaVuSans-97"/>
      <use x="203.369141" xlink:href="#DejaVuSans-108"/>
      <use x="231.152344" xlink:href="#DejaVuSans-105"/>
      <use x="258.935547" xlink:href="#DejaVuSans-116"/>
      <use x="298.144531" xlink:href="#DejaVuSans-121"/>
      <use x="357.324219" xlink:href="#DejaVuSans-32"/>
      <use x="389.111328" xlink:href="#DejaVuSans-40"/>
      <use x="428.125" xlink:href="#DejaVuSans-37"/>
      <use x="523.144531" xlink:href="#DejaVuSans-41"/>
     </g>
    </g>
   </g>
   <g id="line2d_22">
    <path clip-path="url(#p426a9881d3)" d="M 36 153.766957 
L 38.254545 153.766957 
L 40.509091 153.476212 
L 42.763636 152.850095 
L 45.018182 152.362027 
L 47.272727 151.979792 
L 49.527273 151.710619 
L 51.781818 151.493654 
L 54.036364 151.21251 
L 56.290909 150.891078 
L 58.545455 150.712662 
L 60.8 150.583654 
L 63.054545 150.445137 
L 65.309091 150.325421 
L 67.563636 150.237653 
L 69.818182 150.20321 
L 72.072727 149.947135 
L 74.327273 149.829781 
L 76.581818 149.703931 
L 78.836364 149.656011 
L 81.090909 149.524321 
L 83.345455 149.342837 
L 85.6 149.291918 
L 87.854545 149.081755 
L 90.109091 148.864231 
L 92.363636 148.791217 
L 94.618182 148.623141 
L 96.872727 148.579516 
L 99.127273 148.511688 
L 101.381818 148.377361 
L 103.636364 148.194113 
L 105.890909 148.100494 
L 108.145455 147.960165 
L 110.4 146.972568 
L 112.654545 145.700865 
L 114.909091 140.091507 
L 117.163636 133.849287 
L 119.418182 126.257221 
L 121.672727 125.2341 
L 123.927273 123.598574 
L 126.181818 120.173508 
L 128.436364 120.040637 
L 130.690909 119.92058 
L 132.945455 119.867152 
L 135.2 119.867152 
L 137.454545 119.867152 
L 139.709091 119.867152 
L 141.963636 119.867152 
L 144.218182 119.867152 
L 146.472727 119.867152 
L 148.727273 119.867152 
L 150.981818 119.867152 
L 153.236364 119.867152 
L 155.490909 119.867152 
L 157.745455 119.867152 
L 160 119.867152 
L 162.254545 119.867152 
L 164.509091 119.867152 
L 166.763636 119.867152 
L 169.018182 119.867152 
L 171.272727 119.867152 
L 173.527273 119.867152 
L 175.781818 119.867152 
L 178.036364 119.867152 
L 180.290909 119.867152 
L 182.545455 119.867152 
L 184.8 119.867152 
L 187.054545 119.867152 
L 189.309091 119.867152 
L 191.563636 119.867152 
L 193.818182 119.867152 
L 196.072727 119.867152 
L 198.327273 119.867152 
L 200.581818 119.867152 
L 202.836364 119.867152 
L 205.090909 119.867152 
L 207.345455 119.867152 
L 209.6 119.867152 
L 211.854545 119.867152 
L 214.109091 119.867152 
L 216.363636 119.867152 
L 218.618182 119.867152 
L 220.872727 119.867152 
L 223.127273 119.867152 
L 225.381818 119.867152 
L 227.636364 119.867152 
L 229.890909 119.867152 
L 232.145455 119.867152 
L 234.4 119.867152 
L 236.654545 119.867152 
L 238.909091 119.867152 
L 241.163636 119.867152 
L 243.418182 119.867152 
L 245.672727 119.867152 
L 247.927273 119.867152 
L 250.181818 119.867152 
L 252.436364 119.867152 
L 254.690909 119.867152 
L 256.945455 119.867152 
L 259.2 119.867152 
" style="fill:none;stroke:#da70d6;stroke-linecap:square;stroke-width:1.5;"/>
   </g>
   <g id="line2d_23">
    <path clip-path="url(#p426a9881d3)" d="M 36 153.766957 
L 38.254545 149.489103 
L 40.509091 133.878484 
L 42.763636 132.875292 
L 45.018182 132.012836 
L 47.272727 130.773799 
L 49.527273 130.101804 
L 51.781818 128.899612 
L 54.036364 128.312235 
L 56.290909 128.18091 
L 58.545455 128.049584 
L 60.8 127.934244 
L 63.054545 127.822825 
L 65.309091 127.711407 
L 67.563636 127.611971 
L 69.818182 127.560644 
L 72.072727 127.509318 
L 74.327273 127.409233 
L 76.581818 127.200521 
L 78.836364 127.020641 
L 81.090909 126.846447 
L 83.345455 126.696114 
L 85.6 126.646411 
L 87.854545 126.585607 
L 90.109091 126.522748 
L 92.363636 126.462497 
L 94.618182 126.425112 
L 96.872727 126.333967 
L 99.127273 125.998463 
L 101.381818 125.439431 
L 103.636364 125.200976 
L 105.890909 124.962522 
L 108.145455 124.894121 
L 110.4 124.620059 
L 112.654545 124.488213 
L 114.909091 124.300336 
L 117.163636 124.023874 
L 119.418182 123.859939 
L 121.672727 123.709609 
L 123.927273 123.305381 
L 126.181818 122.830038 
L 128.436364 122.725127 
L 130.690909 122.581542 
L 132.945455 122.202853 
L 135.2 121.947793 
L 137.454545 121.709631 
L 139.709091 121.464196 
L 141.963636 121.227659 
L 144.218182 120.831667 
L 146.472727 120.818232 
L 148.727273 120.652746 
L 150.981818 120.651756 
L 153.236364 120.650767 
L 155.490909 120.495363 
L 157.745455 120.141422 
L 160 119.682602 
L 162.254545 119.654854 
L 164.509091 119.630982 
L 166.763636 119.419537 
L 169.018182 119.40087 
L 171.272727 119.382203 
L 173.527273 119.3627 
L 175.781818 119.342886 
L 178.036364 119.32661 
L 180.290909 119.298564 
L 182.545455 119.265942 
L 184.8 119.213181 
L 187.054545 118.967333 
L 189.309091 118.925007 
L 191.563636 118.88908 
L 193.818182 118.85373 
L 196.072727 118.758896 
L 198.327273 118.683112 
L 200.581818 118.531629 
L 202.836364 118.4949 
L 205.090909 118.467121 
L 207.345455 118.410438 
L 209.6 118.350135 
L 211.854545 118.282701 
L 214.109091 118.198215 
L 216.363636 118.115581 
L 218.618182 118.058849 
L 220.872727 117.997012 
L 223.127273 117.956684 
L 225.381818 117.912208 
L 227.636364 117.862913 
L 229.890909 117.814355 
L 232.145455 117.786282 
L 234.4 117.764189 
L 236.654545 117.742097 
L 238.909091 117.723505 
L 241.163636 117.717451 
L 243.418182 117.717451 
L 245.672727 117.717451 
L 247.927273 117.714599 
L 250.181818 117.705854 
L 252.436364 117.697109 
L 254.690909 117.688364 
L 256.945455 117.683601 
L 259.2 117.683601 
" style="fill:none;stroke:#daa520;stroke-linecap:square;stroke-width:1.5;"/>
   </g>
   <g id="line2d_24">
    <path clip-path="url(#p426a9881d3)" d="M 36 153.766957 
L 38.254545 145.980564 
L 40.509091 136.576252 
L 42.763636 129.403905 
L 45.018182 125.866551 
L 47.272727 124.451241 
L 49.527273 123.805314 
L 51.781818 123.288095 
L 54.036364 122.874783 
L 56.290909 122.651212 
L 58.545455 122.437072 
L 60.8 122.268654 
L 63.054545 122.100235 
L 65.309091 121.931816 
L 67.563636 121.780097 
L 69.818182 121.657337 
L 72.072727 121.547931 
L 74.327273 121.443415 
L 76.581818 121.338898 
L 78.836364 121.234381 
L 81.090909 121.129571 
L 83.345455 120.997662 
L 85.6 120.832647 
L 87.854545 120.653328 
L 90.109091 120.474008 
L 92.363636 120.303418 
L 94.618182 120.224111 
L 96.872727 120.186239 
L 99.127273 120.16723 
L 101.381818 120.148221 
L 103.636364 120.129212 
L 105.890909 120.110203 
L 108.145455 120.091194 
L 110.4 120.072185 
L 112.654545 120.053176 
L 114.909091 120.034167 
L 117.163636 120.015158 
L 119.418182 119.996149 
L 121.672727 119.985941 
L 123.927273 119.982212 
L 126.181818 119.980628 
L 128.436364 119.980628 
L 130.690909 119.980628 
L 132.945455 119.980628 
L 135.2 119.980628 
L 137.454545 119.980628 
L 139.709091 119.980628 
L 141.963636 119.980628 
L 144.218182 119.980628 
L 146.472727 119.980628 
L 148.727273 119.980628 
L 150.981818 119.980628 
L 153.236364 119.980628 
L 155.490909 119.980628 
L 157.745455 119.980628 
L 160 119.980628 
L 162.254545 119.980628 
L 164.509091 119.980628 
L 166.763636 119.980628 
L 169.018182 119.980628 
L 171.272727 119.980628 
L 173.527273 119.980628 
L 175.781818 119.980628 
L 178.036364 119.980628 
L 180.290909 119.980628 
L 182.545455 119.980628 
L 184.8 119.980628 
L 187.054545 119.980628 
L 189.309091 119.980628 
L 191.563636 119.980628 
L 193.818182 119.980628 
L 196.072727 119.980628 
L 198.327273 119.980628 
L 200.581818 119.980628 
L 202.836364 119.980628 
L 205.090909 119.980628 
L 207.345455 119.980628 
L 209.6 119.980628 
L 211.854545 119.980628 
L 214.109091 119.980628 
L 216.363636 119.980628 
L 218.618182 119.980628 
L 220.872727 119.980628 
L 223.127273 119.980628 
L 225.381818 119.980628 
L 227.636364 119.980628 
L 229.890909 119.980628 
L 232.145455 119.980628 
L 234.4 119.980628 
L 236.654545 119.980628 
L 238.909091 119.980628 
L 241.163636 119.980628 
L 243.418182 119.980628 
L 245.672727 119.980628 
L 247.927273 119.980628 
L 250.181818 119.980628 
L 252.436364 119.980628 
L 254.690909 119.980628 
L 256.945455 119.980628 
L 259.2 119.980628 
" style="fill:none;stroke:#00bfff;stroke-linecap:square;stroke-width:1.5;"/>
   </g>
   <g id="patch_8">
    <path d="M 36 153.766957 
L 36 111.193043 
" style="fill:none;stroke:#000000;stroke-linecap:square;stroke-linejoin:miter;stroke-width:0.8;"/>
   </g>
   <g id="patch_9">
    <path d="M 259.2 153.766957 
L 259.2 111.193043 
" style="fill:none;stroke:#000000;stroke-linecap:square;stroke-linejoin:miter;stroke-width:0.8;"/>
   </g>
   <g id="patch_10">
    <path d="M 36 153.766957 
L 259.2 153.766957 
" style="fill:none;stroke:#000000;stroke-linecap:square;stroke-linejoin:miter;stroke-width:0.8;"/>
   </g>
   <g id="patch_11">
    <path d="M 36 111.193043 
L 259.2 111.193043 
" style="fill:none;stroke:#000000;stroke-linecap:square;stroke-linejoin:miter;stroke-width:0.8;"/>
   </g>
   <g id="text_21">
    <!-- Credit card -->
    <defs>
     <path d="M 41.109375 46.296875 
Q 39.59375 47.171875 37.8125 47.578125 
Q 36.03125 48 33.890625 48 
Q 26.265625 48 22.1875 43.046875 
Q 18.109375 38.09375 18.109375 28.8125 
L 18.109375 0 
L 9.078125 0 
L 9.078125 54.6875 
L 18.109375 54.6875 
L 18.109375 46.1875 
Q 20.953125 51.171875 25.484375 53.578125 
Q 30.03125 56 36.53125 56 
Q 37.453125 56 38.578125 55.875 
Q 39.703125 55.765625 41.0625 55.515625 
z
" id="DejaVuSans-114"/>
     <path d="M 45.40625 46.390625 
L 45.40625 75.984375 
L 54.390625 75.984375 
L 54.390625 0 
L 45.40625 0 
L 45.40625 8.203125 
Q 42.578125 3.328125 38.25 0.953125 
Q 33.9375 -1.421875 27.875 -1.421875 
Q 17.96875 -1.421875 11.734375 6.484375 
Q 5.515625 14.40625 5.515625 27.296875 
Q 5.515625 40.1875 11.734375 48.09375 
Q 17.96875 56 27.875 56 
Q 33.9375 56 38.25 53.625 
Q 42.578125 51.265625 45.40625 46.390625 
z
M 14.796875 27.296875 
Q 14.796875 17.390625 18.875 11.75 
Q 22.953125 6.109375 30.078125 6.109375 
Q 37.203125 6.109375 41.296875 11.75 
Q 45.40625 17.390625 45.40625 27.296875 
Q 45.40625 37.203125 41.296875 42.84375 
Q 37.203125 48.484375 30.078125 48.484375 
Q 22.953125 48.484375 18.875 42.84375 
Q 14.796875 37.203125 14.796875 27.296875 
z
" id="DejaVuSans-100"/>
    </defs>
    <g transform="translate(122.601094 105.193043)scale(0.09 -0.09)">
     <use xlink:href="#DejaVuSans-67"/>
     <use x="69.824219" xlink:href="#DejaVuSans-114"/>
     <use x="110.90625" xlink:href="#DejaVuSans-101"/>
     <use x="172.429688" xlink:href="#DejaVuSans-100"/>
     <use x="235.90625" xlink:href="#DejaVuSans-105"/>
     <use x="263.689453" xlink:href="#DejaVuSans-116"/>
     <use x="302.898438" xlink:href="#DejaVuSans-32"/>
     <use x="334.685547" xlink:href="#DejaVuSans-99"/>
     <use x="389.666016" xlink:href="#DejaVuSans-97"/>
     <use x="450.945312" xlink:href="#DejaVuSans-114"/>
     <use x="492.042969" xlink:href="#DejaVuSans-100"/>
    </g>
   </g>
  </g>
  <g id="axes_3">
   <g id="patch_12">
    <path d="M 36 230.4 
L 259.2 230.4 
L 259.2 187.826087 
L 36 187.826087 
z
" style="fill:#ffffff;"/>
   </g>
   <g id="matplotlib.axis_5">
    <g id="xtick_13">
     <g id="line2d_25">
      <g>
       <use style="stroke:#000000;stroke-width:0.8;" x="36" xlink:href="#m81f2a2f2b6" y="230.4"/>
      </g>
     </g>
     <g id="text_22">
      <!-- 0 -->
      <g transform="translate(32.81875 244.998438)scale(0.1 -0.1)">
       <use xlink:href="#DejaVuSans-48"/>
      </g>
     </g>
    </g>
    <g id="xtick_14">
     <g id="line2d_26">
      <g>
       <use style="stroke:#000000;stroke-width:0.8;" x="80.64" xlink:href="#m81f2a2f2b6" y="230.4"/>
      </g>
     </g>
     <g id="text_23">
      <!-- 2 -->
      <g transform="translate(77.45875 244.998438)scale(0.1 -0.1)">
       <use xlink:href="#DejaVuSans-50"/>
      </g>
     </g>
    </g>
    <g id="xtick_15">
     <g id="line2d_27">
      <g>
       <use style="stroke:#000000;stroke-width:0.8;" x="125.28" xlink:href="#m81f2a2f2b6" y="230.4"/>
      </g>
     </g>
     <g id="text_24">
      <!-- 4 -->
      <g transform="translate(122.09875 244.998438)scale(0.1 -0.1)">
       <use xlink:href="#DejaVuSans-52"/>
      </g>
     </g>
    </g>
    <g id="xtick_16">
     <g id="line2d_28">
      <g>
       <use style="stroke:#000000;stroke-width:0.8;" x="169.92" xlink:href="#m81f2a2f2b6" y="230.4"/>
      </g>
     </g>
     <g id="text_25">
      <!-- 6 -->
      <g transform="translate(166.73875 244.998438)scale(0.1 -0.1)">
       <use xlink:href="#DejaVuSans-54"/>
      </g>
     </g>
    </g>
    <g id="xtick_17">
     <g id="line2d_29">
      <g>
       <use style="stroke:#000000;stroke-width:0.8;" x="214.56" xlink:href="#m81f2a2f2b6" y="230.4"/>
      </g>
     </g>
     <g id="text_26">
      <!-- 8 -->
      <g transform="translate(211.37875 244.998438)scale(0.1 -0.1)">
       <use xlink:href="#DejaVuSans-56"/>
      </g>
     </g>
    </g>
    <g id="xtick_18">
     <g id="line2d_30">
      <g>
       <use style="stroke:#000000;stroke-width:0.8;" x="259.2" xlink:href="#m81f2a2f2b6" y="230.4"/>
      </g>
     </g>
     <g id="text_27">
      <!-- 10 -->
      <g transform="translate(252.8375 244.998438)scale(0.1 -0.1)">
       <use xlink:href="#DejaVuSans-49"/>
       <use x="63.623047" xlink:href="#DejaVuSans-48"/>
      </g>
     </g>
    </g>
    <g id="text_28">
     <!-- Time (s) -->
     <defs>
      <path d="M -0.296875 72.90625 
L 61.375 72.90625 
L 61.375 64.59375 
L 35.5 64.59375 
L 35.5 0 
L 25.59375 0 
L 25.59375 64.59375 
L -0.296875 64.59375 
z
" id="DejaVuSans-84"/>
     </defs>
     <g transform="translate(127.117188 258.676563)scale(0.1 -0.1)">
      <use xlink:href="#DejaVuSans-84"/>
      <use x="61.037109" xlink:href="#DejaVuSans-105"/>
      <use x="88.820312" xlink:href="#DejaVuSans-109"/>
      <use x="186.232422" xlink:href="#DejaVuSans-101"/>
      <use x="247.755859" xlink:href="#DejaVuSans-32"/>
      <use x="279.542969" xlink:href="#DejaVuSans-40"/>
      <use x="318.556641" xlink:href="#DejaVuSans-115"/>
      <use x="370.65625" xlink:href="#DejaVuSans-41"/>
     </g>
    </g>
   </g>
   <g id="matplotlib.axis_6">
    <g id="ytick_7">
     <g id="line2d_31">
      <g>
       <use style="stroke:#000000;stroke-width:0.8;" x="36" xlink:href="#me527b84c84" y="230.4"/>
      </g>
     </g>
     <g id="text_29">
      <!-- 0 -->
      <g transform="translate(22.6375 234.199219)scale(0.1 -0.1)">
       <use xlink:href="#DejaVuSans-48"/>
      </g>
     </g>
    </g>
    <g id="ytick_8">
     <g id="line2d_32">
      <g>
       <use style="stroke:#000000;stroke-width:0.8;" x="36" xlink:href="#me527b84c84" y="209.113043"/>
      </g>
     </g>
     <g id="text_30">
      <!-- 30 -->
      <defs>
       <path d="M 40.578125 39.3125 
Q 47.65625 37.796875 51.625 33 
Q 55.609375 28.21875 55.609375 21.1875 
Q 55.609375 10.40625 48.1875 4.484375 
Q 40.765625 -1.421875 27.09375 -1.421875 
Q 22.515625 -1.421875 17.65625 -0.515625 
Q 12.796875 0.390625 7.625 2.203125 
L 7.625 11.71875 
Q 11.71875 9.328125 16.59375 8.109375 
Q 21.484375 6.890625 26.8125 6.890625 
Q 36.078125 6.890625 40.9375 10.546875 
Q 45.796875 14.203125 45.796875 21.1875 
Q 45.796875 27.640625 41.28125 31.265625 
Q 36.765625 34.90625 28.71875 34.90625 
L 20.21875 34.90625 
L 20.21875 43.015625 
L 29.109375 43.015625 
Q 36.375 43.015625 40.234375 45.921875 
Q 44.09375 48.828125 44.09375 54.296875 
Q 44.09375 59.90625 40.109375 62.90625 
Q 36.140625 65.921875 28.71875 65.921875 
Q 24.65625 65.921875 20.015625 65.03125 
Q 15.375 64.15625 9.8125 62.3125 
L 9.8125 71.09375 
Q 15.4375 72.65625 20.34375 73.4375 
Q 25.25 74.21875 29.59375 74.21875 
Q 40.828125 74.21875 47.359375 69.109375 
Q 53.90625 64.015625 53.90625 55.328125 
Q 53.90625 49.265625 50.4375 45.09375 
Q 46.96875 40.921875 40.578125 39.3125 
z
" id="DejaVuSans-51"/>
      </defs>
      <g transform="translate(16.275 212.912262)scale(0.1 -0.1)">
       <use xlink:href="#DejaVuSans-51"/>
       <use x="63.623047" xlink:href="#DejaVuSans-48"/>
      </g>
     </g>
    </g>
    <g id="ytick_9">
     <g id="line2d_33">
      <g>
       <use style="stroke:#000000;stroke-width:0.8;" x="36" xlink:href="#me527b84c84" y="187.826087"/>
      </g>
     </g>
     <g id="text_31">
      <!-- 60 -->
      <g transform="translate(16.275 191.625306)scale(0.1 -0.1)">
       <use xlink:href="#DejaVuSans-54"/>
       <use x="63.623047" xlink:href="#DejaVuSans-48"/>
      </g>
     </g>
    </g>
   </g>
   <g id="line2d_34">
    <path clip-path="url(#p0f8fc7871c)" d="M 36 230.4 
L 38.254545 229.900199 
L 40.509091 229.801709 
L 42.763636 229.648998 
L 45.018182 229.588925 
L 47.272727 229.426719 
L 49.527273 229.319687 
L 51.781818 229.211505 
L 54.036364 229.045688 
L 56.290909 228.809015 
L 58.545455 228.660108 
L 60.8 228.468297 
L 63.054545 228.24902 
L 65.309091 227.797799 
L 67.563636 227.326296 
L 69.818182 226.841917 
L 72.072727 226.035178 
L 74.327273 225.13415 
L 76.581818 224.075149 
L 78.836364 222.735566 
L 81.090909 220.730018 
L 83.345455 218.332857 
L 85.6 214.719745 
L 87.854545 209.840845 
L 90.109091 205.060058 
L 92.363636 201.710455 
L 94.618182 199.459693 
L 96.872727 199.208737 
L 99.127273 199.195279 
L 101.381818 199.181821 
L 103.636364 199.168363 
L 105.890909 199.154905 
L 108.145455 199.141448 
L 110.4 199.12799 
L 112.654545 199.114532 
L 114.909091 199.101074 
L 117.163636 199.087616 
L 119.418182 199.074158 
L 121.672727 199.0607 
L 123.927273 199.047242 
L 126.181818 199.033784 
L 128.436364 199.020326 
L 130.690909 199.006868 
L 132.945455 198.99341 
L 135.2 198.979952 
L 137.454545 198.966494 
L 139.709091 198.953036 
L 141.963636 198.939579 
L 144.218182 198.926121 
L 146.472727 198.912663 
L 148.727273 198.899205 
L 150.981818 198.885747 
L 153.236364 198.872289 
L 155.490909 198.858831 
L 157.745455 198.845373 
L 160 198.831915 
L 162.254545 198.818457 
L 164.509091 198.804999 
L 166.763636 198.791541 
L 169.018182 198.778083 
L 171.272727 198.764625 
L 173.527273 198.751167 
L 175.781818 198.73771 
L 178.036364 198.725961 
L 180.290909 198.715306 
L 182.545455 198.705833 
L 184.8 198.697913 
L 187.054545 198.690918 
L 189.309091 198.690097 
L 191.563636 198.690097 
L 193.818182 198.690097 
L 196.072727 198.690097 
L 198.327273 198.690097 
L 200.581818 198.690097 
L 202.836364 198.690097 
L 205.090909 198.690097 
L 207.345455 198.690097 
L 209.6 198.690097 
L 211.854545 198.690097 
L 214.109091 198.690097 
L 216.363636 198.690097 
L 218.618182 198.690097 
L 220.872727 198.690097 
L 223.127273 198.690097 
L 225.381818 198.690097 
L 227.636364 198.690097 
L 229.890909 198.690097 
L 232.145455 198.690097 
L 234.4 198.690097 
L 236.654545 198.690097 
L 238.909091 198.690097 
L 241.163636 198.690097 
L 243.418182 198.690097 
L 245.672727 198.690097 
L 247.927273 198.690097 
L 250.181818 198.690097 
L 252.436364 198.690097 
L 254.690909 198.690097 
L 256.945455 198.690097 
L 259.2 198.690097 
" style="fill:none;stroke:#da70d6;stroke-linecap:square;stroke-width:1.5;"/>
   </g>
   <g id="line2d_35">
    <path clip-path="url(#p0f8fc7871c)" d="M 36 230.4 
L 38.254545 207.000103 
L 40.509091 205.52441 
L 42.763636 204.551883 
L 45.018182 203.479278 
L 47.272727 202.427124 
L 49.527273 202.097216 
L 51.781818 201.941705 
L 54.036364 201.861918 
L 56.290909 201.801709 
L 58.545455 201.7415 
L 60.8 201.681291 
L 63.054545 201.621082 
L 65.309091 201.560873 
L 67.563636 201.500664 
L 69.818182 201.440455 
L 72.072727 201.380246 
L 74.327273 201.320037 
L 76.581818 201.259828 
L 78.836364 201.199618 
L 81.090909 201.028628 
L 83.345455 200.563492 
L 85.6 200.292678 
L 87.854545 200.097257 
L 90.109091 200.030523 
L 92.363636 199.963989 
L 94.618182 199.903475 
L 96.872727 199.85709 
L 99.127273 199.82225 
L 101.381818 199.649986 
L 103.636364 199.578611 
L 105.890909 199.507235 
L 108.145455 199.43586 
L 110.4 199.364485 
L 112.654545 199.299498 
L 114.909091 199.229344 
L 117.163636 198.900538 
L 119.418182 198.874794 
L 121.672727 198.849051 
L 123.927273 198.701821 
L 126.181818 198.515651 
L 128.436364 198.354601 
L 130.690909 198.332587 
L 132.945455 198.316049 
L 135.2 198.306161 
L 137.454545 198.296273 
L 139.709091 198.286292 
L 141.963636 198.186727 
L 144.218182 198.044225 
L 146.472727 198.035612 
L 148.727273 198.027 
L 150.981818 198.018388 
L 153.236364 198.009776 
L 155.490909 198.001163 
L 157.745455 197.992551 
L 160 197.983806 
L 162.254545 197.972245 
L 164.509091 197.963832 
L 166.763636 197.958819 
L 169.018182 197.922904 
L 171.272727 197.876879 
L 173.527273 197.823734 
L 175.781818 197.783353 
L 178.036364 197.766146 
L 180.290909 197.762468 
L 182.545455 197.758789 
L 184.8 197.75511 
L 187.054545 197.751431 
L 189.309091 197.747752 
L 191.563636 197.744457 
L 193.818182 197.741607 
L 196.072727 197.738758 
L 198.327273 197.735909 
L 200.581818 197.73306 
L 202.836364 197.730211 
L 205.090909 197.727362 
L 207.345455 197.724513 
L 209.6 197.719837 
L 211.854545 197.713198 
L 214.109091 197.70656 
L 216.363636 197.704124 
L 218.618182 197.702942 
L 220.872727 197.70176 
L 223.127273 197.700577 
L 225.381818 197.699395 
L 227.636364 197.698213 
L 229.890909 197.69703 
L 232.145455 197.695848 
L 234.4 197.694666 
L 236.654545 197.694161 
L 238.909091 197.694161 
L 241.163636 197.694161 
L 243.418182 197.694161 
L 245.672727 197.694161 
L 247.927273 197.694161 
L 250.181818 197.694161 
L 252.436364 197.694161 
L 254.690909 197.694161 
L 256.945455 197.694161 
L 259.2 197.694161 
" style="fill:none;stroke:#daa520;stroke-linecap:square;stroke-width:1.5;"/>
   </g>
   <g id="line2d_36">
    <path clip-path="url(#p0f8fc7871c)" d="M 36 230.4 
L 38.254545 222.254905 
L 40.509091 212.494957 
L 42.763636 205.883879 
L 45.018182 201.065325 
L 47.272727 199.291315 
L 49.527273 198.386257 
L 51.781818 198.370869 
L 54.036364 198.370869 
L 56.290909 198.370869 
L 58.545455 198.370869 
L 60.8 198.370869 
L 63.054545 198.370869 
L 65.309091 198.370869 
L 67.563636 198.370869 
L 69.818182 198.370869 
L 72.072727 198.370869 
L 74.327273 198.370869 
L 76.581818 198.370869 
L 78.836364 198.370869 
L 81.090909 198.370869 
L 83.345455 198.370869 
L 85.6 198.370869 
L 87.854545 198.370869 
L 90.109091 198.370869 
L 92.363636 198.370869 
L 94.618182 198.370869 
L 96.872727 198.370869 
L 99.127273 198.370869 
L 101.381818 198.370869 
L 103.636364 198.370869 
L 105.890909 198.370869 
L 108.145455 198.370869 
L 110.4 198.370869 
L 112.654545 198.370869 
L 114.909091 198.370869 
L 117.163636 198.370869 
L 119.418182 198.370869 
L 121.672727 198.370869 
L 123.927273 198.370869 
L 126.181818 198.370869 
L 128.436364 198.370869 
L 130.690909 198.370869 
L 132.945455 198.370869 
L 135.2 198.370869 
L 137.454545 198.370869 
L 139.709091 198.370869 
L 141.963636 198.370869 
L 144.218182 198.370869 
L 146.472727 198.370869 
L 148.727273 198.370869 
L 150.981818 198.370869 
L 153.236364 198.370869 
L 155.490909 198.370869 
L 157.745455 198.370869 
L 160 198.370869 
L 162.254545 198.370869 
L 164.509091 198.370869 
L 166.763636 198.370869 
L 169.018182 198.370869 
L 171.272727 198.370869 
L 173.527273 198.370869 
L 175.781818 198.370869 
L 178.036364 198.370869 
L 180.290909 198.370869 
L 182.545455 198.370869 
L 184.8 198.370869 
L 187.054545 198.370869 
L 189.309091 198.370869 
L 191.563636 198.370869 
L 193.818182 198.370869 
L 196.072727 198.370869 
L 198.327273 198.370869 
L 200.581818 198.370869 
L 202.836364 198.370869 
L 205.090909 198.370869 
L 207.345455 198.370869 
L 209.6 198.370869 
L 211.854545 198.370869 
L 214.109091 198.370869 
L 216.363636 198.370869 
L 218.618182 198.370869 
L 220.872727 198.370869 
L 223.127273 198.370869 
L 225.381818 198.370869 
L 227.636364 198.370869 
L 229.890909 198.370869 
L 232.145455 198.370869 
L 234.4 198.370869 
L 236.654545 198.370869 
L 238.909091 198.370869 
L 241.163636 198.370869 
L 243.418182 198.370869 
L 245.672727 198.370869 
L 247.927273 198.370869 
L 250.181818 198.370869 
L 252.436364 198.370869 
L 254.690909 198.370869 
L 256.945455 198.370869 
L 259.2 198.370869 
" style="fill:none;stroke:#00bfff;stroke-linecap:square;stroke-width:1.5;"/>
   </g>
   <g id="patch_13">
    <path d="M 36 230.4 
L 36 187.826087 
" style="fill:none;stroke:#000000;stroke-linecap:square;stroke-linejoin:miter;stroke-width:0.8;"/>
   </g>
   <g id="patch_14">
    <path d="M 259.2 230.4 
L 259.2 187.826087 
" style="fill:none;stroke:#000000;stroke-linecap:square;stroke-linejoin:miter;stroke-width:0.8;"/>
   </g>
   <g id="patch_15">
    <path d="M 36 230.4 
L 259.2 230.4 
" style="fill:none;stroke:#000000;stroke-linecap:square;stroke-linejoin:miter;stroke-width:0.8;"/>
   </g>
   <g id="patch_16">
    <path d="M 36 187.826087 
L 259.2 187.826087 
" style="fill:none;stroke:#000000;stroke-linecap:square;stroke-linejoin:miter;stroke-width:0.8;"/>
   </g>
   <g id="text_32">
    <!-- Psychology test -->
    <defs>
     <path d="M 19.671875 64.796875 
L 19.671875 37.40625 
L 32.078125 37.40625 
Q 38.96875 37.40625 42.71875 40.96875 
Q 46.484375 44.53125 46.484375 51.125 
Q 46.484375 57.671875 42.71875 61.234375 
Q 38.96875 64.796875 32.078125 64.796875 
z
M 9.8125 72.90625 
L 32.078125 72.90625 
Q 44.34375 72.90625 50.609375 67.359375 
Q 56.890625 61.8125 56.890625 51.125 
Q 56.890625 40.328125 50.609375 34.8125 
Q 44.34375 29.296875 32.078125 29.296875 
L 19.671875 29.296875 
L 19.671875 0 
L 9.8125 0 
z
" id="DejaVuSans-80"/>
     <path d="M 54.890625 33.015625 
L 54.890625 0 
L 45.90625 0 
L 45.90625 32.71875 
Q 45.90625 40.484375 42.875 44.328125 
Q 39.84375 48.1875 33.796875 48.1875 
Q 26.515625 48.1875 22.3125 43.546875 
Q 18.109375 38.921875 18.109375 30.90625 
L 18.109375 0 
L 9.078125 0 
L 9.078125 75.984375 
L 18.109375 75.984375 
L 18.109375 46.1875 
Q 21.34375 51.125 25.703125 53.5625 
Q 30.078125 56 35.796875 56 
Q 45.21875 56 50.046875 50.171875 
Q 54.890625 44.34375 54.890625 33.015625 
z
" id="DejaVuSans-104"/>
     <path d="M 45.40625 27.984375 
Q 45.40625 37.75 41.375 43.109375 
Q 37.359375 48.484375 30.078125 48.484375 
Q 22.859375 48.484375 18.828125 43.109375 
Q 14.796875 37.75 14.796875 27.984375 
Q 14.796875 18.265625 18.828125 12.890625 
Q 22.859375 7.515625 30.078125 7.515625 
Q 37.359375 7.515625 41.375 12.890625 
Q 45.40625 18.265625 45.40625 27.984375 
z
M 54.390625 6.78125 
Q 54.390625 -7.171875 48.1875 -13.984375 
Q 42 -20.796875 29.203125 -20.796875 
Q 24.46875 -20.796875 20.265625 -20.09375 
Q 16.0625 -19.390625 12.109375 -17.921875 
L 12.109375 -9.1875 
Q 16.0625 -11.328125 19.921875 -12.34375 
Q 23.78125 -13.375 27.78125 -13.375 
Q 36.625 -13.375 41.015625 -8.765625 
Q 45.40625 -4.15625 45.40625 5.171875 
L 45.40625 9.625 
Q 42.625 4.78125 38.28125 2.390625 
Q 33.9375 0 27.875 0 
Q 17.828125 0 11.671875 7.65625 
Q 5.515625 15.328125 5.515625 27.984375 
Q 5.515625 40.671875 11.671875 48.328125 
Q 17.828125 56 27.875 56 
Q 33.9375 56 38.28125 53.609375 
Q 42.625 51.21875 45.40625 46.390625 
L 45.40625 54.6875 
L 54.390625 54.6875 
z
" id="DejaVuSans-103"/>
    </defs>
    <g transform="translate(112.204688 181.826087)scale(0.09 -0.09)">
     <use xlink:href="#DejaVuSans-80"/>
     <use x="60.287109" xlink:href="#DejaVuSans-115"/>
     <use x="112.386719" xlink:href="#DejaVuSans-121"/>
     <use x="171.566406" xlink:href="#DejaVuSans-99"/>
     <use x="226.546875" xlink:href="#DejaVuSans-104"/>
     <use x="289.925781" xlink:href="#DejaVuSans-111"/>
     <use x="351.107422" xlink:href="#DejaVuSans-108"/>
     <use x="378.890625" xlink:href="#DejaVuSans-111"/>
     <use x="440.072266" xlink:href="#DejaVuSans-103"/>
     <use x="503.548828" xlink:href="#DejaVuSans-121"/>
     <use x="562.728516" xlink:href="#DejaVuSans-32"/>
     <use x="594.515625" xlink:href="#DejaVuSans-116"/>
     <use x="633.724609" xlink:href="#DejaVuSans-101"/>
     <use x="695.248047" xlink:href="#DejaVuSans-115"/>
     <use x="747.347656" xlink:href="#DejaVuSans-116"/>
    </g>
   </g>
  </g>
  <g id="text_33">
   <!-- Distinguishability -->
   <defs>
    <path d="M 19.671875 64.796875 
L 19.671875 8.109375 
L 31.59375 8.109375 
Q 46.6875 8.109375 53.6875 14.9375 
Q 60.6875 21.78125 60.6875 36.53125 
Q 60.6875 51.171875 53.6875 57.984375 
Q 46.6875 64.796875 31.59375 64.796875 
z
M 9.8125 72.90625 
L 30.078125 72.90625 
Q 51.265625 72.90625 61.171875 64.09375 
Q 71.09375 55.28125 71.09375 36.53125 
Q 71.09375 17.671875 61.125 8.828125 
Q 51.171875 0 30.078125 0 
L 9.8125 0 
z
" id="DejaVuSans-68"/>
    <path d="M 48.6875 27.296875 
Q 48.6875 37.203125 44.609375 42.84375 
Q 40.53125 48.484375 33.40625 48.484375 
Q 26.265625 48.484375 22.1875 42.84375 
Q 18.109375 37.203125 18.109375 27.296875 
Q 18.109375 17.390625 22.1875 11.75 
Q 26.265625 6.109375 33.40625 6.109375 
Q 40.53125 6.109375 44.609375 11.75 
Q 48.6875 17.390625 48.6875 27.296875 
z
M 18.109375 46.390625 
Q 20.953125 51.265625 25.265625 53.625 
Q 29.59375 56 35.59375 56 
Q 45.5625 56 51.78125 48.09375 
Q 58.015625 40.1875 58.015625 27.296875 
Q 58.015625 14.40625 51.78125 6.484375 
Q 45.5625 -1.421875 35.59375 -1.421875 
Q 29.59375 -1.421875 25.265625 0.953125 
Q 20.953125 3.328125 18.109375 8.203125 
L 18.109375 0 
L 9.078125 0 
L 9.078125 75.984375 
L 18.109375 75.984375 
z
" id="DejaVuSans-98"/>
   </defs>
   <g transform="translate(92.169375 14.878125)scale(0.12 -0.12)">
    <use xlink:href="#DejaVuSans-68"/>
    <use x="77.001953" xlink:href="#DejaVuSans-105"/>
    <use x="104.785156" xlink:href="#DejaVuSans-115"/>
    <use x="156.884766" xlink:href="#DejaVuSans-116"/>
    <use x="196.09375" xlink:href="#DejaVuSans-105"/>
    <use x="223.876953" xlink:href="#DejaVuSans-110"/>
    <use x="287.255859" xlink:href="#DejaVuSans-103"/>
    <use x="350.732422" xlink:href="#DejaVuSans-117"/>
    <use x="414.111328" xlink:href="#DejaVuSans-105"/>
    <use x="441.894531" xlink:href="#DejaVuSans-115"/>
    <use x="493.994141" xlink:href="#DejaVuSans-104"/>
    <use x="557.373047" xlink:href="#DejaVuSans-97"/>
    <use x="618.652344" xlink:href="#DejaVuSans-98"/>
    <use x="682.128906" xlink:href="#DejaVuSans-105"/>
    <use x="709.912109" xlink:href="#DejaVuSans-108"/>
    <use x="737.695312" xlink:href="#DejaVuSans-105"/>
    <use x="765.478516" xlink:href="#DejaVuSans-116"/>
    <use x="804.6875" xlink:href="#DejaVuSans-121"/>
   </g>
  </g>
  <g id="legend_1">
   <g id="patch_17">
    <path d="M 8.482812 283 
L 279.517187 283 
Q 281.517187 283 281.517187 281 
L 281.517187 267.321875 
Q 281.517187 265.321875 279.517187 265.321875 
L 8.482812 265.321875 
Q 6.482812 265.321875 6.482812 267.321875 
L 6.482812 281 
Q 6.482812 283 8.482812 283 
z
" style="fill:#ffffff;opacity:0.8;stroke:#cccccc;stroke-linejoin:miter;"/>
   </g>
   <g id="line2d_37">
    <path d="M 10.482812 273.420313 
L 30.482812 273.420313 
" style="fill:none;stroke:#da70d6;stroke-linecap:square;stroke-width:1.5;"/>
   </g>
   <g id="line2d_38"/>
   <g id="text_34">
    <!-- Bottom-Up -->
    <defs>
     <path d="M 19.671875 34.8125 
L 19.671875 8.109375 
L 35.5 8.109375 
Q 43.453125 8.109375 47.28125 11.40625 
Q 51.125 14.703125 51.125 21.484375 
Q 51.125 28.328125 47.28125 31.5625 
Q 43.453125 34.8125 35.5 34.8125 
z
M 19.671875 64.796875 
L 19.671875 42.828125 
L 34.28125 42.828125 
Q 41.5 42.828125 45.03125 45.53125 
Q 48.578125 48.25 48.578125 53.8125 
Q 48.578125 59.328125 45.03125 62.0625 
Q 41.5 64.796875 34.28125 64.796875 
z
M 9.8125 72.90625 
L 35.015625 72.90625 
Q 46.296875 72.90625 52.390625 68.21875 
Q 58.5 63.53125 58.5 54.890625 
Q 58.5 48.1875 55.375 44.234375 
Q 52.25 40.28125 46.1875 39.3125 
Q 53.46875 37.75 57.5 32.78125 
Q 61.53125 27.828125 61.53125 20.40625 
Q 61.53125 10.640625 54.890625 5.3125 
Q 48.25 0 35.984375 0 
L 9.8125 0 
z
" id="DejaVuSans-66"/>
     <path d="M 4.890625 31.390625 
L 31.203125 31.390625 
L 31.203125 23.390625 
L 4.890625 23.390625 
z
" id="DejaVuSans-45"/>
     <path d="M 8.6875 72.90625 
L 18.609375 72.90625 
L 18.609375 28.609375 
Q 18.609375 16.890625 22.84375 11.734375 
Q 27.09375 6.59375 36.625 6.59375 
Q 46.09375 6.59375 50.34375 11.734375 
Q 54.59375 16.890625 54.59375 28.609375 
L 54.59375 72.90625 
L 64.5 72.90625 
L 64.5 27.390625 
Q 64.5 13.140625 57.4375 5.859375 
Q 50.390625 -1.421875 36.625 -1.421875 
Q 22.796875 -1.421875 15.734375 5.859375 
Q 8.6875 13.140625 8.6875 27.390625 
z
" id="DejaVuSans-85"/>
     <path d="M 18.109375 8.203125 
L 18.109375 -20.796875 
L 9.078125 -20.796875 
L 9.078125 54.6875 
L 18.109375 54.6875 
L 18.109375 46.390625 
Q 20.953125 51.265625 25.265625 53.625 
Q 29.59375 56 35.59375 56 
Q 45.5625 56 51.78125 48.09375 
Q 58.015625 40.1875 58.015625 27.296875 
Q 58.015625 14.40625 51.78125 6.484375 
Q 45.5625 -1.421875 35.59375 -1.421875 
Q 29.59375 -1.421875 25.265625 0.953125 
Q 20.953125 3.328125 18.109375 8.203125 
z
M 48.6875 27.296875 
Q 48.6875 37.203125 44.609375 42.84375 
Q 40.53125 48.484375 33.40625 48.484375 
Q 26.265625 48.484375 22.1875 42.84375 
Q 18.109375 37.203125 18.109375 27.296875 
Q 18.109375 17.390625 22.1875 11.75 
Q 26.265625 6.109375 33.40625 6.109375 
Q 40.53125 6.109375 44.609375 11.75 
Q 48.6875 17.390625 48.6875 27.296875 
z
" id="DejaVuSans-112"/>
    </defs>
    <g transform="translate(38.482812 276.920313)scale(0.1 -0.1)">
     <use xlink:href="#DejaVuSans-66"/>
     <use x="68.603516" xlink:href="#DejaVuSans-111"/>
     <use x="129.785156" xlink:href="#DejaVuSans-116"/>
     <use x="168.994141" xlink:href="#DejaVuSans-116"/>
     <use x="208.203125" xlink:href="#DejaVuSans-111"/>
     <use x="269.384766" xlink:href="#DejaVuSans-109"/>
     <use x="366.796875" xlink:href="#DejaVuSans-45"/>
     <use x="402.880859" xlink:href="#DejaVuSans-85"/>
     <use x="476.074219" xlink:href="#DejaVuSans-112"/>
    </g>
   </g>
   <g id="line2d_39">
    <path d="M 112.4375 273.420313 
L 132.4375 273.420313 
" style="fill:none;stroke:#daa520;stroke-linecap:square;stroke-width:1.5;"/>
   </g>
   <g id="line2d_40"/>
   <g id="text_35">
    <!-- Genetic -->
    <defs>
     <path d="M 59.515625 10.40625 
L 59.515625 29.984375 
L 43.40625 29.984375 
L 43.40625 38.09375 
L 69.28125 38.09375 
L 69.28125 6.78125 
Q 63.578125 2.734375 56.6875 0.65625 
Q 49.8125 -1.421875 42 -1.421875 
Q 24.90625 -1.421875 15.25 8.5625 
Q 5.609375 18.5625 5.609375 36.375 
Q 5.609375 54.25 15.25 64.234375 
Q 24.90625 74.21875 42 74.21875 
Q 49.125 74.21875 55.546875 72.453125 
Q 61.96875 70.703125 67.390625 67.28125 
L 67.390625 56.78125 
Q 61.921875 61.421875 55.765625 63.765625 
Q 49.609375 66.109375 42.828125 66.109375 
Q 29.4375 66.109375 22.71875 58.640625 
Q 16.015625 51.171875 16.015625 36.375 
Q 16.015625 21.625 22.71875 14.15625 
Q 29.4375 6.6875 42.828125 6.6875 
Q 48.046875 6.6875 52.140625 7.59375 
Q 56.25 8.5 59.515625 10.40625 
z
" id="DejaVuSans-71"/>
    </defs>
    <g transform="translate(140.4375 276.920313)scale(0.1 -0.1)">
     <use xlink:href="#DejaVuSans-71"/>
     <use x="77.490234" xlink:href="#DejaVuSans-101"/>
     <use x="139.013672" xlink:href="#DejaVuSans-110"/>
     <use x="202.392578" xlink:href="#DejaVuSans-101"/>
     <use x="263.916016" xlink:href="#DejaVuSans-116"/>
     <use x="303.125" xlink:href="#DejaVuSans-105"/>
     <use x="330.908203" xlink:href="#DejaVuSans-99"/>
    </g>
   </g>
   <g id="line2d_41">
    <path d="M 199.026563 273.420313 
L 219.026563 273.420313 
" style="fill:none;stroke:#00bfff;stroke-linecap:square;stroke-width:1.5;"/>
   </g>
   <g id="line2d_42"/>
   <g id="text_36">
    <!-- Top-Down -->
    <defs>
     <path d="M 4.203125 54.6875 
L 13.1875 54.6875 
L 24.421875 12.015625 
L 35.59375 54.6875 
L 46.1875 54.6875 
L 57.421875 12.015625 
L 68.609375 54.6875 
L 77.59375 54.6875 
L 63.28125 0 
L 52.6875 0 
L 40.921875 44.828125 
L 29.109375 0 
L 18.5 0 
z
" id="DejaVuSans-119"/>
    </defs>
    <g transform="translate(227.026563 276.920313)scale(0.1 -0.1)">
     <use xlink:href="#DejaVuSans-84"/>
     <use x="60.818359" xlink:href="#DejaVuSans-111"/>
     <use x="122" xlink:href="#DejaVuSans-112"/>
     <use x="185.476562" xlink:href="#DejaVuSans-45"/>
     <use x="221.560547" xlink:href="#DejaVuSans-68"/>
     <use x="298.5625" xlink:href="#DejaVuSans-111"/>
     <use x="359.744141" xlink:href="#DejaVuSans-119"/>
     <use x="441.53125" xlink:href="#DejaVuSans-110"/>
    </g>
   </g>
  </g>
 </g>
 <defs>
  <clipPath id="pf045180b8f">
   <rect height="42.573913" width="223.2" x="36" y="34.56"/>
  </clipPath>
  <clipPath id="p426a9881d3">
   <rect height="42.573913" width="223.2" x="36" y="111.193043"/>
  </clipPath>
  <clipPath id="p0f8fc7871c">
   <rect height="42.573913" width="223.2" x="36" y="187.826087"/>
  </clipPath>
 </defs>
</svg>
