<?xml version="1.0" encoding="utf-8" standalone="no"?>
<!DOCTYPE svg PUBLIC "-//W3C//DTD SVG 1.1//EN"
  "http://www.w3.org/Graphics/SVG/1.1/DTD/svg11.dtd">
<!-- Created with matplotlib (https://matplotlib.org/) -->
<svg height="180pt" version="1.1" viewBox="0 0 504 180" width="504pt" xmlns="http://www.w3.org/2000/svg" xmlns:xlink="http://www.w3.org/1999/xlink">
 <defs>
  <style type="text/css">
*{stroke-linecap:butt;stroke-linejoin:round;}
  </style>
 </defs>
 <g id="figure_1">
  <g id="patch_1">
   <path d="M 0 180 
L 504 180 
L 504 0 
L 0 0 
z
" style="fill:#ffffff;"/>
  </g>
  <g id="axes_1">
   <g id="patch_2">
    <path d="M 63 126 
L 188.192308 126 
L 188.192308 39.6 
L 63 39.6 
z
" style="fill:#ffffff;"/>
   </g>
   <g id="patch_3">
    <path clip-path="url(#pdca8658d37)" d="M 68.690559 126 
L 75.013403 126 
L 75.013403 40.005215 
L 68.690559 40.005215 
z
" style="fill:#dda0dd;stroke:#000000;stroke-linejoin:miter;"/>
   </g>
   <g id="patch_4">
    <path clip-path="url(#pdca8658d37)" d="M 100.304779 126 
L 106.627622 126 
L 106.627622 39.982444 
L 100.304779 39.982444 
z
" style="fill:#dda0dd;stroke:#000000;stroke-linejoin:miter;"/>
   </g>
   <g id="patch_5">
    <path clip-path="url(#pdca8658d37)" d="M 131.918998 126 
L 138.241841 126 
L 138.241841 39.982444 
L 131.918998 39.982444 
z
" style="fill:#dda0dd;stroke:#000000;stroke-linejoin:miter;"/>
   </g>
   <g id="patch_6">
    <path clip-path="url(#pdca8658d37)" d="M 163.533217 126 
L 169.856061 126 
L 169.856061 40.133765 
L 163.533217 40.133765 
z
" style="fill:#dda0dd;stroke:#000000;stroke-linejoin:miter;"/>
   </g>
   <g id="patch_7">
    <path clip-path="url(#pdca8658d37)" d="M 75.013403 126 
L 81.336247 126 
L 81.336247 45.667851 
L 75.013403 45.667851 
z
" style="fill:#eee8aa;stroke:#000000;stroke-linejoin:miter;"/>
   </g>
   <g id="patch_8">
    <path clip-path="url(#pdca8658d37)" d="M 106.627622 126 
L 112.950466 126 
L 112.950466 42.493983 
L 106.627622 42.493983 
z
" style="fill:#eee8aa;stroke:#000000;stroke-linejoin:miter;"/>
   </g>
   <g id="patch_9">
    <path clip-path="url(#pdca8658d37)" d="M 138.241841 126 
L 144.564685 126 
L 144.564685 41.035263 
L 138.241841 41.035263 
z
" style="fill:#eee8aa;stroke:#000000;stroke-linejoin:miter;"/>
   </g>
   <g id="patch_10">
    <path clip-path="url(#pdca8658d37)" d="M 169.856061 126 
L 176.178904 126 
L 176.178904 40.366337 
L 169.856061 40.366337 
z
" style="fill:#eee8aa;stroke:#000000;stroke-linejoin:miter;"/>
   </g>
   <g id="patch_11">
    <path clip-path="url(#pdca8658d37)" d="M 81.336247 126 
L 87.659091 126 
L 87.659091 42.710507 
L 81.336247 42.710507 
z
" style="fill:#87ceeb;stroke:#000000;stroke-linejoin:miter;"/>
   </g>
   <g id="patch_12">
    <path clip-path="url(#pdca8658d37)" d="M 112.950466 126 
L 119.27331 126 
L 119.27331 39.995009 
L 112.950466 39.995009 
z
" style="fill:#87ceeb;stroke:#000000;stroke-linejoin:miter;"/>
   </g>
   <g id="patch_13">
    <path clip-path="url(#pdca8658d37)" d="M 144.564685 126 
L 150.887529 126 
L 150.887529 39.995009 
L 144.564685 39.995009 
z
" style="fill:#87ceeb;stroke:#000000;stroke-linejoin:miter;"/>
   </g>
   <g id="patch_14">
    <path clip-path="url(#pdca8658d37)" d="M 176.178904 126 
L 182.501748 126 
L 182.501748 39.995009 
L 176.178904 39.995009 
z
" style="fill:#87ceeb;stroke:#000000;stroke-linejoin:miter;"/>
   </g>
   <g id="matplotlib.axis_1">
    <g id="xtick_1">
     <g id="line2d_1">
      <defs>
       <path d="M 0 0 
L 0 3.5 
" id="m3970e7561d" style="stroke:#000000;stroke-width:0.8;"/>
      </defs>
      <g>
       <use style="stroke:#000000;stroke-width:0.8;" x="78.174825" xlink:href="#m3970e7561d" y="126"/>
      </g>
     </g>
     <g id="text_1">
      <!-- 5 -->
      <defs>
       <path d="M 10.796875 72.90625 
L 49.515625 72.90625 
L 49.515625 64.59375 
L 19.828125 64.59375 
L 19.828125 46.734375 
Q 21.96875 47.46875 24.109375 47.828125 
Q 26.265625 48.1875 28.421875 48.1875 
Q 40.625 48.1875 47.75 41.5 
Q 54.890625 34.8125 54.890625 23.390625 
Q 54.890625 11.625 47.5625 5.09375 
Q 40.234375 -1.421875 26.90625 -1.421875 
Q 22.3125 -1.421875 17.546875 -0.640625 
Q 12.796875 0.140625 7.71875 1.703125 
L 7.71875 11.625 
Q 12.109375 9.234375 16.796875 8.0625 
Q 21.484375 6.890625 26.703125 6.890625 
Q 35.15625 6.890625 40.078125 11.328125 
Q 45.015625 15.765625 45.015625 23.390625 
Q 45.015625 31 40.078125 35.4375 
Q 35.15625 39.890625 26.703125 39.890625 
Q 22.75 39.890625 18.8125 39.015625 
Q 14.890625 38.140625 10.796875 36.28125 
z
" id="DejaVuSans-53"/>
      </defs>
      <g transform="translate(74.993575 140.598437)scale(0.1 -0.1)">
       <use xlink:href="#DejaVuSans-53"/>
      </g>
     </g>
    </g>
    <g id="xtick_2">
     <g id="line2d_2">
      <g>
       <use style="stroke:#000000;stroke-width:0.8;" x="109.789044" xlink:href="#m3970e7561d" y="126"/>
      </g>
     </g>
     <g id="text_2">
      <!-- 10 -->
      <defs>
       <path d="M 12.40625 8.296875 
L 28.515625 8.296875 
L 28.515625 63.921875 
L 10.984375 60.40625 
L 10.984375 69.390625 
L 28.421875 72.90625 
L 38.28125 72.90625 
L 38.28125 8.296875 
L 54.390625 8.296875 
L 54.390625 0 
L 12.40625 0 
z
" id="DejaVuSans-49"/>
       <path d="M 31.78125 66.40625 
Q 24.171875 66.40625 20.328125 58.90625 
Q 16.5 51.421875 16.5 36.375 
Q 16.5 21.390625 20.328125 13.890625 
Q 24.171875 6.390625 31.78125 6.390625 
Q 39.453125 6.390625 43.28125 13.890625 
Q 47.125 21.390625 47.125 36.375 
Q 47.125 51.421875 43.28125 58.90625 
Q 39.453125 66.40625 31.78125 66.40625 
z
M 31.78125 74.21875 
Q 44.046875 74.21875 50.515625 64.515625 
Q 56.984375 54.828125 56.984375 36.375 
Q 56.984375 17.96875 50.515625 8.265625 
Q 44.046875 -1.421875 31.78125 -1.421875 
Q 19.53125 -1.421875 13.0625 8.265625 
Q 6.59375 17.96875 6.59375 36.375 
Q 6.59375 54.828125 13.0625 64.515625 
Q 19.53125 74.21875 31.78125 74.21875 
z
" id="DejaVuSans-48"/>
      </defs>
      <g transform="translate(103.426544 140.598437)scale(0.1 -0.1)">
       <use xlink:href="#DejaVuSans-49"/>
       <use x="63.623047" xlink:href="#DejaVuSans-48"/>
      </g>
     </g>
    </g>
    <g id="xtick_3">
     <g id="line2d_3">
      <g>
       <use style="stroke:#000000;stroke-width:0.8;" x="141.403263" xlink:href="#m3970e7561d" y="126"/>
      </g>
     </g>
     <g id="text_3">
      <!-- 20 -->
      <defs>
       <path d="M 19.1875 8.296875 
L 53.609375 8.296875 
L 53.609375 0 
L 7.328125 0 
L 7.328125 8.296875 
Q 12.9375 14.109375 22.625 23.890625 
Q 32.328125 33.6875 34.8125 36.53125 
Q 39.546875 41.84375 41.421875 45.53125 
Q 43.3125 49.21875 43.3125 52.78125 
Q 43.3125 58.59375 39.234375 62.25 
Q 35.15625 65.921875 28.609375 65.921875 
Q 23.96875 65.921875 18.8125 64.3125 
Q 13.671875 62.703125 7.8125 59.421875 
L 7.8125 69.390625 
Q 13.765625 71.78125 18.9375 73 
Q 24.125 74.21875 28.421875 74.21875 
Q 39.75 74.21875 46.484375 68.546875 
Q 53.21875 62.890625 53.21875 53.421875 
Q 53.21875 48.921875 51.53125 44.890625 
Q 49.859375 40.875 45.40625 35.40625 
Q 44.1875 33.984375 37.640625 27.21875 
Q 31.109375 20.453125 19.1875 8.296875 
z
" id="DejaVuSans-50"/>
      </defs>
      <g transform="translate(135.040763 140.598437)scale(0.1 -0.1)">
       <use xlink:href="#DejaVuSans-50"/>
       <use x="63.623047" xlink:href="#DejaVuSans-48"/>
      </g>
     </g>
    </g>
    <g id="xtick_4">
     <g id="line2d_4">
      <g>
       <use style="stroke:#000000;stroke-width:0.8;" x="173.017483" xlink:href="#m3970e7561d" y="126"/>
      </g>
     </g>
     <g id="text_4">
      <!-- 30 -->
      <defs>
       <path d="M 40.578125 39.3125 
Q 47.65625 37.796875 51.625 33 
Q 55.609375 28.21875 55.609375 21.1875 
Q 55.609375 10.40625 48.1875 4.484375 
Q 40.765625 -1.421875 27.09375 -1.421875 
Q 22.515625 -1.421875 17.65625 -0.515625 
Q 12.796875 0.390625 7.625 2.203125 
L 7.625 11.71875 
Q 11.71875 9.328125 16.59375 8.109375 
Q 21.484375 6.890625 26.8125 6.890625 
Q 36.078125 6.890625 40.9375 10.546875 
Q 45.796875 14.203125 45.796875 21.1875 
Q 45.796875 27.640625 41.28125 31.265625 
Q 36.765625 34.90625 28.71875 34.90625 
L 20.21875 34.90625 
L 20.21875 43.015625 
L 29.109375 43.015625 
Q 36.375 43.015625 40.234375 45.921875 
Q 44.09375 48.828125 44.09375 54.296875 
Q 44.09375 59.90625 40.109375 62.90625 
Q 36.140625 65.921875 28.71875 65.921875 
Q 24.65625 65.921875 20.015625 65.03125 
Q 15.375 64.15625 9.8125 62.3125 
L 9.8125 71.09375 
Q 15.4375 72.65625 20.34375 73.4375 
Q 25.25 74.21875 29.59375 74.21875 
Q 40.828125 74.21875 47.359375 69.109375 
Q 53.90625 64.015625 53.90625 55.328125 
Q 53.90625 49.265625 50.4375 45.09375 
Q 46.96875 40.921875 40.578125 39.3125 
z
" id="DejaVuSans-51"/>
      </defs>
      <g transform="translate(166.654983 140.598437)scale(0.1 -0.1)">
       <use xlink:href="#DejaVuSans-51"/>
       <use x="63.623047" xlink:href="#DejaVuSans-48"/>
      </g>
     </g>
    </g>
   </g>
   <g id="matplotlib.axis_2">
    <g id="ytick_1">
     <g id="line2d_5">
      <defs>
       <path d="M 0 0 
L -3.5 0 
" id="m6ae2f0d528" style="stroke:#000000;stroke-width:0.8;"/>
      </defs>
      <g>
       <use style="stroke:#000000;stroke-width:0.8;" x="63" xlink:href="#m6ae2f0d528" y="126"/>
      </g>
     </g>
     <g id="text_5">
      <!-- 0 -->
      <g transform="translate(49.6375 129.799219)scale(0.1 -0.1)">
       <use xlink:href="#DejaVuSans-48"/>
      </g>
     </g>
    </g>
    <g id="ytick_2">
     <g id="line2d_6">
      <g>
       <use style="stroke:#000000;stroke-width:0.8;" x="63" xlink:href="#m6ae2f0d528" y="104.4"/>
      </g>
     </g>
     <g id="text_6">
      <!-- 25 -->
      <g transform="translate(43.275 108.199219)scale(0.1 -0.1)">
       <use xlink:href="#DejaVuSans-50"/>
       <use x="63.623047" xlink:href="#DejaVuSans-53"/>
      </g>
     </g>
    </g>
    <g id="ytick_3">
     <g id="line2d_7">
      <g>
       <use style="stroke:#000000;stroke-width:0.8;" x="63" xlink:href="#m6ae2f0d528" y="82.8"/>
      </g>
     </g>
     <g id="text_7">
      <!-- 50 -->
      <g transform="translate(43.275 86.599219)scale(0.1 -0.1)">
       <use xlink:href="#DejaVuSans-53"/>
       <use x="63.623047" xlink:href="#DejaVuSans-48"/>
      </g>
     </g>
    </g>
    <g id="ytick_4">
     <g id="line2d_8">
      <g>
       <use style="stroke:#000000;stroke-width:0.8;" x="63" xlink:href="#m6ae2f0d528" y="61.2"/>
      </g>
     </g>
     <g id="text_8">
      <!-- 75 -->
      <defs>
       <path d="M 8.203125 72.90625 
L 55.078125 72.90625 
L 55.078125 68.703125 
L 28.609375 0 
L 18.3125 0 
L 43.21875 64.59375 
L 8.203125 64.59375 
z
" id="DejaVuSans-55"/>
      </defs>
      <g transform="translate(43.275 64.999219)scale(0.1 -0.1)">
       <use xlink:href="#DejaVuSans-55"/>
       <use x="63.623047" xlink:href="#DejaVuSans-53"/>
      </g>
     </g>
    </g>
    <g id="ytick_5">
     <g id="line2d_9">
      <g>
       <use style="stroke:#000000;stroke-width:0.8;" x="63" xlink:href="#m6ae2f0d528" y="39.6"/>
      </g>
     </g>
     <g id="text_9">
      <!-- 100 -->
      <g transform="translate(36.9125 43.399219)scale(0.1 -0.1)">
       <use xlink:href="#DejaVuSans-49"/>
       <use x="63.623047" xlink:href="#DejaVuSans-48"/>
       <use x="127.246094" xlink:href="#DejaVuSans-48"/>
      </g>
     </g>
    </g>
    <g id="text_10">
     <!-- Quality (%) -->
     <defs>
      <path d="M 39.40625 66.21875 
Q 28.65625 66.21875 22.328125 58.203125 
Q 16.015625 50.203125 16.015625 36.375 
Q 16.015625 22.609375 22.328125 14.59375 
Q 28.65625 6.59375 39.40625 6.59375 
Q 50.140625 6.59375 56.421875 14.59375 
Q 62.703125 22.609375 62.703125 36.375 
Q 62.703125 50.203125 56.421875 58.203125 
Q 50.140625 66.21875 39.40625 66.21875 
z
M 53.21875 1.3125 
L 66.21875 -12.890625 
L 54.296875 -12.890625 
L 43.5 -1.21875 
Q 41.890625 -1.3125 41.03125 -1.359375 
Q 40.1875 -1.421875 39.40625 -1.421875 
Q 24.03125 -1.421875 14.8125 8.859375 
Q 5.609375 19.140625 5.609375 36.375 
Q 5.609375 53.65625 14.8125 63.9375 
Q 24.03125 74.21875 39.40625 74.21875 
Q 54.734375 74.21875 63.90625 63.9375 
Q 73.09375 53.65625 73.09375 36.375 
Q 73.09375 23.6875 67.984375 14.640625 
Q 62.890625 5.609375 53.21875 1.3125 
z
" id="DejaVuSans-81"/>
      <path d="M 8.5 21.578125 
L 8.5 54.6875 
L 17.484375 54.6875 
L 17.484375 21.921875 
Q 17.484375 14.15625 20.5 10.265625 
Q 23.53125 6.390625 29.59375 6.390625 
Q 36.859375 6.390625 41.078125 11.03125 
Q 45.3125 15.671875 45.3125 23.6875 
L 45.3125 54.6875 
L 54.296875 54.6875 
L 54.296875 0 
L 45.3125 0 
L 45.3125 8.40625 
Q 42.046875 3.421875 37.71875 1 
Q 33.40625 -1.421875 27.6875 -1.421875 
Q 18.265625 -1.421875 13.375 4.4375 
Q 8.5 10.296875 8.5 21.578125 
z
M 31.109375 56 
z
" id="DejaVuSans-117"/>
      <path d="M 34.28125 27.484375 
Q 23.390625 27.484375 19.1875 25 
Q 14.984375 22.515625 14.984375 16.5 
Q 14.984375 11.71875 18.140625 8.90625 
Q 21.296875 6.109375 26.703125 6.109375 
Q 34.1875 6.109375 38.703125 11.40625 
Q 43.21875 16.703125 43.21875 25.484375 
L 43.21875 27.484375 
z
M 52.203125 31.203125 
L 52.203125 0 
L 43.21875 0 
L 43.21875 8.296875 
Q 40.140625 3.328125 35.546875 0.953125 
Q 30.953125 -1.421875 24.3125 -1.421875 
Q 15.921875 -1.421875 10.953125 3.296875 
Q 6 8.015625 6 15.921875 
Q 6 25.140625 12.171875 29.828125 
Q 18.359375 34.515625 30.609375 34.515625 
L 43.21875 34.515625 
L 43.21875 35.40625 
Q 43.21875 41.609375 39.140625 45 
Q 35.0625 48.390625 27.6875 48.390625 
Q 23 48.390625 18.546875 47.265625 
Q 14.109375 46.140625 10.015625 43.890625 
L 10.015625 52.203125 
Q 14.9375 54.109375 19.578125 55.046875 
Q 24.21875 56 28.609375 56 
Q 40.484375 56 46.34375 49.84375 
Q 52.203125 43.703125 52.203125 31.203125 
z
" id="DejaVuSans-97"/>
      <path d="M 9.421875 75.984375 
L 18.40625 75.984375 
L 18.40625 0 
L 9.421875 0 
z
" id="DejaVuSans-108"/>
      <path d="M 9.421875 54.6875 
L 18.40625 54.6875 
L 18.40625 0 
L 9.421875 0 
z
M 9.421875 75.984375 
L 18.40625 75.984375 
L 18.40625 64.59375 
L 9.421875 64.59375 
z
" id="DejaVuSans-105"/>
      <path d="M 18.3125 70.21875 
L 18.3125 54.6875 
L 36.8125 54.6875 
L 36.8125 47.703125 
L 18.3125 47.703125 
L 18.3125 18.015625 
Q 18.3125 11.328125 20.140625 9.421875 
Q 21.96875 7.515625 27.59375 7.515625 
L 36.8125 7.515625 
L 36.8125 0 
L 27.59375 0 
Q 17.1875 0 13.234375 3.875 
Q 9.28125 7.765625 9.28125 18.015625 
L 9.28125 47.703125 
L 2.6875 47.703125 
L 2.6875 54.6875 
L 9.28125 54.6875 
L 9.28125 70.21875 
z
" id="DejaVuSans-116"/>
      <path d="M 32.171875 -5.078125 
Q 28.375 -14.84375 24.75 -17.8125 
Q 21.140625 -20.796875 15.09375 -20.796875 
L 7.90625 -20.796875 
L 7.90625 -13.28125 
L 13.1875 -13.28125 
Q 16.890625 -13.28125 18.9375 -11.515625 
Q 21 -9.765625 23.484375 -3.21875 
L 25.09375 0.875 
L 2.984375 54.6875 
L 12.5 54.6875 
L 29.59375 11.921875 
L 46.6875 54.6875 
L 56.203125 54.6875 
z
" id="DejaVuSans-121"/>
      <path id="DejaVuSans-32"/>
      <path d="M 31 75.875 
Q 24.46875 64.65625 21.28125 53.65625 
Q 18.109375 42.671875 18.109375 31.390625 
Q 18.109375 20.125 21.3125 9.0625 
Q 24.515625 -2 31 -13.1875 
L 23.1875 -13.1875 
Q 15.875 -1.703125 12.234375 9.375 
Q 8.59375 20.453125 8.59375 31.390625 
Q 8.59375 42.28125 12.203125 53.3125 
Q 15.828125 64.359375 23.1875 75.875 
z
" id="DejaVuSans-40"/>
      <path d="M 72.703125 32.078125 
Q 68.453125 32.078125 66.03125 28.46875 
Q 63.625 24.859375 63.625 18.40625 
Q 63.625 12.0625 66.03125 8.421875 
Q 68.453125 4.78125 72.703125 4.78125 
Q 76.859375 4.78125 79.265625 8.421875 
Q 81.6875 12.0625 81.6875 18.40625 
Q 81.6875 24.8125 79.265625 28.4375 
Q 76.859375 32.078125 72.703125 32.078125 
z
M 72.703125 38.28125 
Q 80.421875 38.28125 84.953125 32.90625 
Q 89.5 27.546875 89.5 18.40625 
Q 89.5 9.28125 84.9375 3.921875 
Q 80.375 -1.421875 72.703125 -1.421875 
Q 64.890625 -1.421875 60.34375 3.921875 
Q 55.8125 9.28125 55.8125 18.40625 
Q 55.8125 27.59375 60.375 32.9375 
Q 64.9375 38.28125 72.703125 38.28125 
z
M 22.3125 68.015625 
Q 18.109375 68.015625 15.6875 64.375 
Q 13.28125 60.75 13.28125 54.390625 
Q 13.28125 47.953125 15.671875 44.328125 
Q 18.0625 40.71875 22.3125 40.71875 
Q 26.5625 40.71875 28.96875 44.328125 
Q 31.390625 47.953125 31.390625 54.390625 
Q 31.390625 60.6875 28.953125 64.34375 
Q 26.515625 68.015625 22.3125 68.015625 
z
M 66.40625 74.21875 
L 74.21875 74.21875 
L 28.609375 -1.421875 
L 20.796875 -1.421875 
z
M 22.3125 74.21875 
Q 30.03125 74.21875 34.609375 68.875 
Q 39.203125 63.53125 39.203125 54.390625 
Q 39.203125 45.171875 34.640625 39.84375 
Q 30.078125 34.515625 22.3125 34.515625 
Q 14.546875 34.515625 10.03125 39.859375 
Q 5.515625 45.21875 5.515625 54.390625 
Q 5.515625 63.484375 10.046875 68.84375 
Q 14.59375 74.21875 22.3125 74.21875 
z
" id="DejaVuSans-37"/>
      <path d="M 8.015625 75.875 
L 15.828125 75.875 
Q 23.140625 64.359375 26.78125 53.3125 
Q 30.421875 42.28125 30.421875 31.390625 
Q 30.421875 20.453125 26.78125 9.375 
Q 23.140625 -1.703125 15.828125 -13.1875 
L 8.015625 -13.1875 
Q 14.5 -2 17.703125 9.0625 
Q 20.90625 20.125 20.90625 31.390625 
Q 20.90625 42.671875 17.703125 53.65625 
Q 14.5 64.65625 8.015625 75.875 
z
" id="DejaVuSans-41"/>
     </defs>
     <g transform="translate(30.832812 110.907813)rotate(-90)scale(0.1 -0.1)">
      <use xlink:href="#DejaVuSans-81"/>
      <use x="78.710938" xlink:href="#DejaVuSans-117"/>
      <use x="142.089844" xlink:href="#DejaVuSans-97"/>
      <use x="203.369141" xlink:href="#DejaVuSans-108"/>
      <use x="231.152344" xlink:href="#DejaVuSans-105"/>
      <use x="258.935547" xlink:href="#DejaVuSans-116"/>
      <use x="298.144531" xlink:href="#DejaVuSans-121"/>
      <use x="357.324219" xlink:href="#DejaVuSans-32"/>
      <use x="389.111328" xlink:href="#DejaVuSans-40"/>
      <use x="428.125" xlink:href="#DejaVuSans-37"/>
      <use x="523.144531" xlink:href="#DejaVuSans-41"/>
     </g>
    </g>
   </g>
   <g id="LineCollection_1">
    <path clip-path="url(#pdca8658d37)" d="M 71.851981 40.005215 
L 71.851981 40.005215 
" style="fill:none;stroke:#696969;stroke-width:1.5;"/>
    <path clip-path="url(#pdca8658d37)" d="M 103.4662 39.982444 
L 103.4662 39.982444 
" style="fill:none;stroke:#696969;stroke-width:1.5;"/>
    <path clip-path="url(#pdca8658d37)" d="M 135.08042 39.982444 
L 135.08042 39.982444 
" style="fill:none;stroke:#696969;stroke-width:1.5;"/>
    <path clip-path="url(#pdca8658d37)" d="M 166.694639 40.133765 
L 166.694639 40.133765 
" style="fill:none;stroke:#696969;stroke-width:1.5;"/>
   </g>
   <g id="LineCollection_2">
    <path clip-path="url(#pdca8658d37)" d="M 78.174825 45.935153 
L 78.174825 45.400549 
" style="fill:none;stroke:#696969;stroke-width:1.5;"/>
    <path clip-path="url(#pdca8658d37)" d="M 109.789044 43.366416 
L 109.789044 41.621551 
" style="fill:none;stroke:#696969;stroke-width:1.5;"/>
    <path clip-path="url(#pdca8658d37)" d="M 141.403263 41.770889 
L 141.403263 40.299637 
" style="fill:none;stroke:#696969;stroke-width:1.5;"/>
    <path clip-path="url(#pdca8658d37)" d="M 173.017483 40.665763 
L 173.017483 40.066911 
" style="fill:none;stroke:#696969;stroke-width:1.5;"/>
   </g>
   <g id="LineCollection_3">
    <path clip-path="url(#pdca8658d37)" d="M 84.497669 42.85089 
L 84.497669 42.570123 
" style="fill:none;stroke:#696969;stroke-width:1.5;"/>
    <path clip-path="url(#pdca8658d37)" d="M 116.111888 39.995009 
L 116.111888 39.995009 
" style="fill:none;stroke:#696969;stroke-width:1.5;"/>
    <path clip-path="url(#pdca8658d37)" d="M 147.726107 39.995009 
L 147.726107 39.995009 
" style="fill:none;stroke:#696969;stroke-width:1.5;"/>
    <path clip-path="url(#pdca8658d37)" d="M 179.340326 39.995009 
L 179.340326 39.995009 
" style="fill:none;stroke:#696969;stroke-width:1.5;"/>
   </g>
   <g id="line2d_10">
    <defs>
     <path d="M 2.5 0 
L -2.5 -0 
" id="m2317a754d7" style="stroke:#696969;"/>
    </defs>
    <g clip-path="url(#pdca8658d37)">
     <use style="fill:#696969;stroke:#696969;" x="71.851981" xlink:href="#m2317a754d7" y="40.005215"/>
     <use style="fill:#696969;stroke:#696969;" x="103.4662" xlink:href="#m2317a754d7" y="39.982444"/>
     <use style="fill:#696969;stroke:#696969;" x="135.08042" xlink:href="#m2317a754d7" y="39.982444"/>
     <use style="fill:#696969;stroke:#696969;" x="166.694639" xlink:href="#m2317a754d7" y="40.133765"/>
    </g>
   </g>
   <g id="line2d_11">
    <g clip-path="url(#pdca8658d37)">
     <use style="fill:#696969;stroke:#696969;" x="71.851981" xlink:href="#m2317a754d7" y="40.005215"/>
     <use style="fill:#696969;stroke:#696969;" x="103.4662" xlink:href="#m2317a754d7" y="39.982444"/>
     <use style="fill:#696969;stroke:#696969;" x="135.08042" xlink:href="#m2317a754d7" y="39.982444"/>
     <use style="fill:#696969;stroke:#696969;" x="166.694639" xlink:href="#m2317a754d7" y="40.133765"/>
    </g>
   </g>
   <g id="line2d_12">
    <g clip-path="url(#pdca8658d37)">
     <use style="fill:#696969;stroke:#696969;" x="78.174825" xlink:href="#m2317a754d7" y="45.935153"/>
     <use style="fill:#696969;stroke:#696969;" x="109.789044" xlink:href="#m2317a754d7" y="43.366416"/>
     <use style="fill:#696969;stroke:#696969;" x="141.403263" xlink:href="#m2317a754d7" y="41.770889"/>
     <use style="fill:#696969;stroke:#696969;" x="173.017483" xlink:href="#m2317a754d7" y="40.665763"/>
    </g>
   </g>
   <g id="line2d_13">
    <g clip-path="url(#pdca8658d37)">
     <use style="fill:#696969;stroke:#696969;" x="78.174825" xlink:href="#m2317a754d7" y="45.400549"/>
     <use style="fill:#696969;stroke:#696969;" x="109.789044" xlink:href="#m2317a754d7" y="41.621551"/>
     <use style="fill:#696969;stroke:#696969;" x="141.403263" xlink:href="#m2317a754d7" y="40.299637"/>
     <use style="fill:#696969;stroke:#696969;" x="173.017483" xlink:href="#m2317a754d7" y="40.066911"/>
    </g>
   </g>
   <g id="line2d_14">
    <g clip-path="url(#pdca8658d37)">
     <use style="fill:#696969;stroke:#696969;" x="84.497669" xlink:href="#m2317a754d7" y="42.85089"/>
     <use style="fill:#696969;stroke:#696969;" x="116.111888" xlink:href="#m2317a754d7" y="39.995009"/>
     <use style="fill:#696969;stroke:#696969;" x="147.726107" xlink:href="#m2317a754d7" y="39.995009"/>
     <use style="fill:#696969;stroke:#696969;" x="179.340326" xlink:href="#m2317a754d7" y="39.995009"/>
    </g>
   </g>
   <g id="line2d_15">
    <g clip-path="url(#pdca8658d37)">
     <use style="fill:#696969;stroke:#696969;" x="84.497669" xlink:href="#m2317a754d7" y="42.570123"/>
     <use style="fill:#696969;stroke:#696969;" x="116.111888" xlink:href="#m2317a754d7" y="39.995009"/>
     <use style="fill:#696969;stroke:#696969;" x="147.726107" xlink:href="#m2317a754d7" y="39.995009"/>
     <use style="fill:#696969;stroke:#696969;" x="179.340326" xlink:href="#m2317a754d7" y="39.995009"/>
    </g>
   </g>
   <g id="patch_15">
    <path d="M 63 126 
L 63 39.6 
" style="fill:none;stroke:#000000;stroke-linecap:square;stroke-linejoin:miter;stroke-width:0.8;"/>
   </g>
   <g id="patch_16">
    <path d="M 188.192308 126 
L 188.192308 39.6 
" style="fill:none;stroke:#000000;stroke-linecap:square;stroke-linejoin:miter;stroke-width:0.8;"/>
   </g>
   <g id="patch_17">
    <path d="M 63 126 
L 188.192308 126 
" style="fill:none;stroke:#000000;stroke-linecap:square;stroke-linejoin:miter;stroke-width:0.8;"/>
   </g>
   <g id="patch_18">
    <path d="M 63 39.6 
L 188.192308 39.6 
" style="fill:none;stroke:#000000;stroke-linecap:square;stroke-linejoin:miter;stroke-width:0.8;"/>
   </g>
   <g id="text_11">
    <!-- Census community -->
    <defs>
     <path d="M 64.40625 67.28125 
L 64.40625 56.890625 
Q 59.421875 61.53125 53.78125 63.8125 
Q 48.140625 66.109375 41.796875 66.109375 
Q 29.296875 66.109375 22.65625 58.46875 
Q 16.015625 50.828125 16.015625 36.375 
Q 16.015625 21.96875 22.65625 14.328125 
Q 29.296875 6.6875 41.796875 6.6875 
Q 48.140625 6.6875 53.78125 8.984375 
Q 59.421875 11.28125 64.40625 15.921875 
L 64.40625 5.609375 
Q 59.234375 2.09375 53.4375 0.328125 
Q 47.65625 -1.421875 41.21875 -1.421875 
Q 24.65625 -1.421875 15.125 8.703125 
Q 5.609375 18.84375 5.609375 36.375 
Q 5.609375 53.953125 15.125 64.078125 
Q 24.65625 74.21875 41.21875 74.21875 
Q 47.75 74.21875 53.53125 72.484375 
Q 59.328125 70.75 64.40625 67.28125 
z
" id="DejaVuSans-67"/>
     <path d="M 56.203125 29.59375 
L 56.203125 25.203125 
L 14.890625 25.203125 
Q 15.484375 15.921875 20.484375 11.0625 
Q 25.484375 6.203125 34.421875 6.203125 
Q 39.59375 6.203125 44.453125 7.46875 
Q 49.3125 8.734375 54.109375 11.28125 
L 54.109375 2.78125 
Q 49.265625 0.734375 44.1875 -0.34375 
Q 39.109375 -1.421875 33.890625 -1.421875 
Q 20.796875 -1.421875 13.15625 6.1875 
Q 5.515625 13.8125 5.515625 26.8125 
Q 5.515625 40.234375 12.765625 48.109375 
Q 20.015625 56 32.328125 56 
Q 43.359375 56 49.78125 48.890625 
Q 56.203125 41.796875 56.203125 29.59375 
z
M 47.21875 32.234375 
Q 47.125 39.59375 43.09375 43.984375 
Q 39.0625 48.390625 32.421875 48.390625 
Q 24.90625 48.390625 20.390625 44.140625 
Q 15.875 39.890625 15.1875 32.171875 
z
" id="DejaVuSans-101"/>
     <path d="M 54.890625 33.015625 
L 54.890625 0 
L 45.90625 0 
L 45.90625 32.71875 
Q 45.90625 40.484375 42.875 44.328125 
Q 39.84375 48.1875 33.796875 48.1875 
Q 26.515625 48.1875 22.3125 43.546875 
Q 18.109375 38.921875 18.109375 30.90625 
L 18.109375 0 
L 9.078125 0 
L 9.078125 54.6875 
L 18.109375 54.6875 
L 18.109375 46.1875 
Q 21.34375 51.125 25.703125 53.5625 
Q 30.078125 56 35.796875 56 
Q 45.21875 56 50.046875 50.171875 
Q 54.890625 44.34375 54.890625 33.015625 
z
" id="DejaVuSans-110"/>
     <path d="M 44.28125 53.078125 
L 44.28125 44.578125 
Q 40.484375 46.53125 36.375 47.5 
Q 32.28125 48.484375 27.875 48.484375 
Q 21.1875 48.484375 17.84375 46.4375 
Q 14.5 44.390625 14.5 40.28125 
Q 14.5 37.15625 16.890625 35.375 
Q 19.28125 33.59375 26.515625 31.984375 
L 29.59375 31.296875 
Q 39.15625 29.25 43.1875 25.515625 
Q 47.21875 21.78125 47.21875 15.09375 
Q 47.21875 7.46875 41.1875 3.015625 
Q 35.15625 -1.421875 24.609375 -1.421875 
Q 20.21875 -1.421875 15.453125 -0.5625 
Q 10.6875 0.296875 5.421875 2 
L 5.421875 11.28125 
Q 10.40625 8.6875 15.234375 7.390625 
Q 20.0625 6.109375 24.8125 6.109375 
Q 31.15625 6.109375 34.5625 8.28125 
Q 37.984375 10.453125 37.984375 14.40625 
Q 37.984375 18.0625 35.515625 20.015625 
Q 33.0625 21.96875 24.703125 23.78125 
L 21.578125 24.515625 
Q 13.234375 26.265625 9.515625 29.90625 
Q 5.8125 33.546875 5.8125 39.890625 
Q 5.8125 47.609375 11.28125 51.796875 
Q 16.75 56 26.8125 56 
Q 31.78125 56 36.171875 55.265625 
Q 40.578125 54.546875 44.28125 53.078125 
z
" id="DejaVuSans-115"/>
     <path d="M 48.78125 52.59375 
L 48.78125 44.1875 
Q 44.96875 46.296875 41.140625 47.34375 
Q 37.3125 48.390625 33.40625 48.390625 
Q 24.65625 48.390625 19.8125 42.84375 
Q 14.984375 37.3125 14.984375 27.296875 
Q 14.984375 17.28125 19.8125 11.734375 
Q 24.65625 6.203125 33.40625 6.203125 
Q 37.3125 6.203125 41.140625 7.25 
Q 44.96875 8.296875 48.78125 10.40625 
L 48.78125 2.09375 
Q 45.015625 0.34375 40.984375 -0.53125 
Q 36.96875 -1.421875 32.421875 -1.421875 
Q 20.0625 -1.421875 12.78125 6.34375 
Q 5.515625 14.109375 5.515625 27.296875 
Q 5.515625 40.671875 12.859375 48.328125 
Q 20.21875 56 33.015625 56 
Q 37.15625 56 41.109375 55.140625 
Q 45.0625 54.296875 48.78125 52.59375 
z
" id="DejaVuSans-99"/>
     <path d="M 30.609375 48.390625 
Q 23.390625 48.390625 19.1875 42.75 
Q 14.984375 37.109375 14.984375 27.296875 
Q 14.984375 17.484375 19.15625 11.84375 
Q 23.34375 6.203125 30.609375 6.203125 
Q 37.796875 6.203125 41.984375 11.859375 
Q 46.1875 17.53125 46.1875 27.296875 
Q 46.1875 37.015625 41.984375 42.703125 
Q 37.796875 48.390625 30.609375 48.390625 
z
M 30.609375 56 
Q 42.328125 56 49.015625 48.375 
Q 55.71875 40.765625 55.71875 27.296875 
Q 55.71875 13.875 49.015625 6.21875 
Q 42.328125 -1.421875 30.609375 -1.421875 
Q 18.84375 -1.421875 12.171875 6.21875 
Q 5.515625 13.875 5.515625 27.296875 
Q 5.515625 40.765625 12.171875 48.375 
Q 18.84375 56 30.609375 56 
z
" id="DejaVuSans-111"/>
     <path d="M 52 44.1875 
Q 55.375 50.25 60.0625 53.125 
Q 64.75 56 71.09375 56 
Q 79.640625 56 84.28125 50.015625 
Q 88.921875 44.046875 88.921875 33.015625 
L 88.921875 0 
L 79.890625 0 
L 79.890625 32.71875 
Q 79.890625 40.578125 77.09375 44.375 
Q 74.3125 48.1875 68.609375 48.1875 
Q 61.625 48.1875 57.5625 43.546875 
Q 53.515625 38.921875 53.515625 30.90625 
L 53.515625 0 
L 44.484375 0 
L 44.484375 32.71875 
Q 44.484375 40.625 41.703125 44.40625 
Q 38.921875 48.1875 33.109375 48.1875 
Q 26.21875 48.1875 22.15625 43.53125 
Q 18.109375 38.875 18.109375 30.90625 
L 18.109375 0 
L 9.078125 0 
L 9.078125 54.6875 
L 18.109375 54.6875 
L 18.109375 46.1875 
Q 21.1875 51.21875 25.484375 53.609375 
Q 29.78125 56 35.6875 56 
Q 41.65625 56 45.828125 52.96875 
Q 50 49.953125 52 44.1875 
z
" id="DejaVuSans-109"/>
    </defs>
    <g transform="translate(82.486857 33.6)scale(0.09 -0.09)">
     <use xlink:href="#DejaVuSans-67"/>
     <use x="69.824219" xlink:href="#DejaVuSans-101"/>
     <use x="131.347656" xlink:href="#DejaVuSans-110"/>
     <use x="194.726562" xlink:href="#DejaVuSans-115"/>
     <use x="246.826172" xlink:href="#DejaVuSans-117"/>
     <use x="310.205078" xlink:href="#DejaVuSans-115"/>
     <use x="362.304688" xlink:href="#DejaVuSans-32"/>
     <use x="394.091797" xlink:href="#DejaVuSans-99"/>
     <use x="449.072266" xlink:href="#DejaVuSans-111"/>
     <use x="510.253906" xlink:href="#DejaVuSans-109"/>
     <use x="607.666016" xlink:href="#DejaVuSans-109"/>
     <use x="705.078125" xlink:href="#DejaVuSans-117"/>
     <use x="768.457031" xlink:href="#DejaVuSans-110"/>
     <use x="831.835938" xlink:href="#DejaVuSans-105"/>
     <use x="859.619141" xlink:href="#DejaVuSans-116"/>
     <use x="898.828125" xlink:href="#DejaVuSans-121"/>
    </g>
   </g>
  </g>
  <g id="axes_2">
   <g id="patch_19">
    <path d="M 195.703846 126 
L 320.896154 126 
L 320.896154 39.6 
L 195.703846 39.6 
z
" style="fill:#ffffff;"/>
   </g>
   <g id="patch_20">
    <path clip-path="url(#peba923f865)" d="M 201.394406 126 
L 207.717249 126 
L 207.717249 114.775432 
L 201.394406 114.775432 
z
" style="fill:#dda0dd;stroke:#000000;stroke-linejoin:miter;"/>
   </g>
   <g id="patch_21">
    <path clip-path="url(#peba923f865)" d="M 233.008625 126 
L 239.331469 126 
L 239.331469 72.688782 
L 233.008625 72.688782 
z
" style="fill:#dda0dd;stroke:#000000;stroke-linejoin:miter;"/>
   </g>
   <g id="patch_22">
    <path clip-path="url(#peba923f865)" d="M 264.622844 126 
L 270.945688 126 
L 270.945688 81.550656 
L 264.622844 81.550656 
z
" style="fill:#dda0dd;stroke:#000000;stroke-linejoin:miter;"/>
   </g>
   <g id="patch_23">
    <path clip-path="url(#peba923f865)" d="M 296.237063 126 
L 302.559907 126 
L 302.559907 48.959237 
L 296.237063 48.959237 
z
" style="fill:#dda0dd;stroke:#000000;stroke-linejoin:miter;"/>
   </g>
   <g id="patch_24">
    <path clip-path="url(#peba923f865)" d="M 207.717249 126 
L 214.040093 126 
L 214.040093 65.931179 
L 207.717249 65.931179 
z
" style="fill:#eee8aa;stroke:#000000;stroke-linejoin:miter;"/>
   </g>
   <g id="patch_25">
    <path clip-path="url(#peba923f865)" d="M 239.331469 126 
L 245.654312 126 
L 245.654312 60.744942 
L 239.331469 60.744942 
z
" style="fill:#eee8aa;stroke:#000000;stroke-linejoin:miter;"/>
   </g>
   <g id="patch_26">
    <path clip-path="url(#peba923f865)" d="M 270.945688 126 
L 277.268531 126 
L 277.268531 54.329755 
L 270.945688 54.329755 
z
" style="fill:#eee8aa;stroke:#000000;stroke-linejoin:miter;"/>
   </g>
   <g id="patch_27">
    <path clip-path="url(#peba923f865)" d="M 302.559907 126 
L 308.882751 126 
L 308.882751 51.830251 
L 302.559907 51.830251 
z
" style="fill:#eee8aa;stroke:#000000;stroke-linejoin:miter;"/>
   </g>
   <g id="patch_28">
    <path clip-path="url(#peba923f865)" d="M 214.040093 126 
L 220.362937 126 
L 220.362937 78.886007 
L 214.040093 78.886007 
z
" style="fill:#87ceeb;stroke:#000000;stroke-linejoin:miter;"/>
   </g>
   <g id="patch_29">
    <path clip-path="url(#peba923f865)" d="M 245.654312 126 
L 251.977156 126 
L 251.977156 70.161912 
L 245.654312 70.161912 
z
" style="fill:#87ceeb;stroke:#000000;stroke-linejoin:miter;"/>
   </g>
   <g id="patch_30">
    <path clip-path="url(#peba923f865)" d="M 277.268531 126 
L 283.591375 126 
L 283.591375 55.995457 
L 277.268531 55.995457 
z
" style="fill:#87ceeb;stroke:#000000;stroke-linejoin:miter;"/>
   </g>
   <g id="patch_31">
    <path clip-path="url(#peba923f865)" d="M 308.882751 126 
L 315.205594 126 
L 315.205594 55.995457 
L 308.882751 55.995457 
z
" style="fill:#87ceeb;stroke:#000000;stroke-linejoin:miter;"/>
   </g>
   <g id="matplotlib.axis_3">
    <g id="xtick_5">
     <g id="line2d_16">
      <g>
       <use style="stroke:#000000;stroke-width:0.8;" x="210.878671" xlink:href="#m3970e7561d" y="126"/>
      </g>
     </g>
     <g id="text_12">
      <!-- 5 -->
      <g transform="translate(207.697421 140.598437)scale(0.1 -0.1)">
       <use xlink:href="#DejaVuSans-53"/>
      </g>
     </g>
    </g>
    <g id="xtick_6">
     <g id="line2d_17">
      <g>
       <use style="stroke:#000000;stroke-width:0.8;" x="242.49289" xlink:href="#m3970e7561d" y="126"/>
      </g>
     </g>
     <g id="text_13">
      <!-- 10 -->
      <g transform="translate(236.13039 140.598437)scale(0.1 -0.1)">
       <use xlink:href="#DejaVuSans-49"/>
       <use x="63.623047" xlink:href="#DejaVuSans-48"/>
      </g>
     </g>
    </g>
    <g id="xtick_7">
     <g id="line2d_18">
      <g>
       <use style="stroke:#000000;stroke-width:0.8;" x="274.10711" xlink:href="#m3970e7561d" y="126"/>
      </g>
     </g>
     <g id="text_14">
      <!-- 20 -->
      <g transform="translate(267.74461 140.598437)scale(0.1 -0.1)">
       <use xlink:href="#DejaVuSans-50"/>
       <use x="63.623047" xlink:href="#DejaVuSans-48"/>
      </g>
     </g>
    </g>
    <g id="xtick_8">
     <g id="line2d_19">
      <g>
       <use style="stroke:#000000;stroke-width:0.8;" x="305.721329" xlink:href="#m3970e7561d" y="126"/>
      </g>
     </g>
     <g id="text_15">
      <!-- 30 -->
      <g transform="translate(299.358829 140.598437)scale(0.1 -0.1)">
       <use xlink:href="#DejaVuSans-51"/>
       <use x="63.623047" xlink:href="#DejaVuSans-48"/>
      </g>
     </g>
    </g>
    <g id="text_16">
     <!-- Time limit per iteration (s) -->
     <defs>
      <path d="M -0.296875 72.90625 
L 61.375 72.90625 
L 61.375 64.59375 
L 35.5 64.59375 
L 35.5 0 
L 25.59375 0 
L 25.59375 64.59375 
L -0.296875 64.59375 
z
" id="DejaVuSans-84"/>
      <path d="M 18.109375 8.203125 
L 18.109375 -20.796875 
L 9.078125 -20.796875 
L 9.078125 54.6875 
L 18.109375 54.6875 
L 18.109375 46.390625 
Q 20.953125 51.265625 25.265625 53.625 
Q 29.59375 56 35.59375 56 
Q 45.5625 56 51.78125 48.09375 
Q 58.015625 40.1875 58.015625 27.296875 
Q 58.015625 14.40625 51.78125 6.484375 
Q 45.5625 -1.421875 35.59375 -1.421875 
Q 29.59375 -1.421875 25.265625 0.953125 
Q 20.953125 3.328125 18.109375 8.203125 
z
M 48.6875 27.296875 
Q 48.6875 37.203125 44.609375 42.84375 
Q 40.53125 48.484375 33.40625 48.484375 
Q 26.265625 48.484375 22.1875 42.84375 
Q 18.109375 37.203125 18.109375 27.296875 
Q 18.109375 17.390625 22.1875 11.75 
Q 26.265625 6.109375 33.40625 6.109375 
Q 40.53125 6.109375 44.609375 11.75 
Q 48.6875 17.390625 48.6875 27.296875 
z
" id="DejaVuSans-112"/>
      <path d="M 41.109375 46.296875 
Q 39.59375 47.171875 37.8125 47.578125 
Q 36.03125 48 33.890625 48 
Q 26.265625 48 22.1875 43.046875 
Q 18.109375 38.09375 18.109375 28.8125 
L 18.109375 0 
L 9.078125 0 
L 9.078125 54.6875 
L 18.109375 54.6875 
L 18.109375 46.1875 
Q 20.953125 51.171875 25.484375 53.578125 
Q 30.03125 56 36.53125 56 
Q 37.453125 56 38.578125 55.875 
Q 39.703125 55.765625 41.0625 55.515625 
z
" id="DejaVuSans-114"/>
     </defs>
     <g transform="translate(192.623438 154.276563)scale(0.1 -0.1)">
      <use xlink:href="#DejaVuSans-84"/>
      <use x="61.037109" xlink:href="#DejaVuSans-105"/>
      <use x="88.820312" xlink:href="#DejaVuSans-109"/>
      <use x="186.232422" xlink:href="#DejaVuSans-101"/>
      <use x="247.755859" xlink:href="#DejaVuSans-32"/>
      <use x="279.542969" xlink:href="#DejaVuSans-108"/>
      <use x="307.326172" xlink:href="#DejaVuSans-105"/>
      <use x="335.109375" xlink:href="#DejaVuSans-109"/>
      <use x="432.521484" xlink:href="#DejaVuSans-105"/>
      <use x="460.304688" xlink:href="#DejaVuSans-116"/>
      <use x="499.513672" xlink:href="#DejaVuSans-32"/>
      <use x="531.300781" xlink:href="#DejaVuSans-112"/>
      <use x="594.777344" xlink:href="#DejaVuSans-101"/>
      <use x="656.300781" xlink:href="#DejaVuSans-114"/>
      <use x="697.414062" xlink:href="#DejaVuSans-32"/>
      <use x="729.201172" xlink:href="#DejaVuSans-105"/>
      <use x="756.984375" xlink:href="#DejaVuSans-116"/>
      <use x="796.193359" xlink:href="#DejaVuSans-101"/>
      <use x="857.716797" xlink:href="#DejaVuSans-114"/>
      <use x="898.830078" xlink:href="#DejaVuSans-97"/>
      <use x="960.109375" xlink:href="#DejaVuSans-116"/>
      <use x="999.318359" xlink:href="#DejaVuSans-105"/>
      <use x="1027.101562" xlink:href="#DejaVuSans-111"/>
      <use x="1088.283203" xlink:href="#DejaVuSans-110"/>
      <use x="1151.662109" xlink:href="#DejaVuSans-32"/>
      <use x="1183.449219" xlink:href="#DejaVuSans-40"/>
      <use x="1222.462891" xlink:href="#DejaVuSans-115"/>
      <use x="1274.5625" xlink:href="#DejaVuSans-41"/>
     </g>
    </g>
   </g>
   <g id="matplotlib.axis_4">
    <g id="ytick_6">
     <g id="line2d_20">
      <g>
       <use style="stroke:#000000;stroke-width:0.8;" x="195.703846" xlink:href="#m6ae2f0d528" y="126"/>
      </g>
     </g>
    </g>
    <g id="ytick_7">
     <g id="line2d_21">
      <g>
       <use style="stroke:#000000;stroke-width:0.8;" x="195.703846" xlink:href="#m6ae2f0d528" y="104.4"/>
      </g>
     </g>
    </g>
    <g id="ytick_8">
     <g id="line2d_22">
      <g>
       <use style="stroke:#000000;stroke-width:0.8;" x="195.703846" xlink:href="#m6ae2f0d528" y="82.8"/>
      </g>
     </g>
    </g>
    <g id="ytick_9">
     <g id="line2d_23">
      <g>
       <use style="stroke:#000000;stroke-width:0.8;" x="195.703846" xlink:href="#m6ae2f0d528" y="61.2"/>
      </g>
     </g>
    </g>
    <g id="ytick_10">
     <g id="line2d_24">
      <g>
       <use style="stroke:#000000;stroke-width:0.8;" x="195.703846" xlink:href="#m6ae2f0d528" y="39.6"/>
      </g>
     </g>
    </g>
   </g>
   <g id="LineCollection_4">
    <path clip-path="url(#peba923f865)" d="M 204.555828 114.775432 
L 204.555828 114.775432 
" style="fill:none;stroke:#696969;stroke-width:1.5;"/>
    <path clip-path="url(#peba923f865)" d="M 236.170047 72.688782 
L 236.170047 72.688782 
" style="fill:none;stroke:#696969;stroke-width:1.5;"/>
    <path clip-path="url(#peba923f865)" d="M 267.784266 81.550656 
L 267.784266 81.550656 
" style="fill:none;stroke:#696969;stroke-width:1.5;"/>
    <path clip-path="url(#peba923f865)" d="M 299.398485 49.226001 
L 299.398485 48.692472 
" style="fill:none;stroke:#696969;stroke-width:1.5;"/>
   </g>
   <g id="LineCollection_5">
    <path clip-path="url(#peba923f865)" d="M 210.878671 66.201322 
L 210.878671 65.661036 
" style="fill:none;stroke:#696969;stroke-width:1.5;"/>
    <path clip-path="url(#peba923f865)" d="M 242.49289 62.259991 
L 242.49289 59.229894 
" style="fill:none;stroke:#696969;stroke-width:1.5;"/>
    <path clip-path="url(#peba923f865)" d="M 274.10711 56.505215 
L 274.10711 52.154295 
" style="fill:none;stroke:#696969;stroke-width:1.5;"/>
    <path clip-path="url(#peba923f865)" d="M 305.721329 54.579942 
L 305.721329 49.08056 
" style="fill:none;stroke:#696969;stroke-width:1.5;"/>
   </g>
   <g id="LineCollection_6">
    <path clip-path="url(#peba923f865)" d="M 217.201515 79.012041 
L 217.201515 78.759972 
" style="fill:none;stroke:#696969;stroke-width:1.5;"/>
    <path clip-path="url(#peba923f865)" d="M 248.815734 70.37431 
L 248.815734 69.949514 
" style="fill:none;stroke:#696969;stroke-width:1.5;"/>
    <path clip-path="url(#peba923f865)" d="M 280.429953 55.995457 
L 280.429953 55.995457 
" style="fill:none;stroke:#696969;stroke-width:1.5;"/>
    <path clip-path="url(#peba923f865)" d="M 312.044172 55.995457 
L 312.044172 55.995457 
" style="fill:none;stroke:#696969;stroke-width:1.5;"/>
   </g>
   <g id="line2d_25">
    <g clip-path="url(#peba923f865)">
     <use style="fill:#696969;stroke:#696969;" x="204.555828" xlink:href="#m2317a754d7" y="114.775432"/>
     <use style="fill:#696969;stroke:#696969;" x="236.170047" xlink:href="#m2317a754d7" y="72.688782"/>
     <use style="fill:#696969;stroke:#696969;" x="267.784266" xlink:href="#m2317a754d7" y="81.550656"/>
     <use style="fill:#696969;stroke:#696969;" x="299.398485" xlink:href="#m2317a754d7" y="49.226001"/>
    </g>
   </g>
   <g id="line2d_26">
    <g clip-path="url(#peba923f865)">
     <use style="fill:#696969;stroke:#696969;" x="204.555828" xlink:href="#m2317a754d7" y="114.775432"/>
     <use style="fill:#696969;stroke:#696969;" x="236.170047" xlink:href="#m2317a754d7" y="72.688782"/>
     <use style="fill:#696969;stroke:#696969;" x="267.784266" xlink:href="#m2317a754d7" y="81.550656"/>
     <use style="fill:#696969;stroke:#696969;" x="299.398485" xlink:href="#m2317a754d7" y="48.692472"/>
    </g>
   </g>
   <g id="line2d_27">
    <g clip-path="url(#peba923f865)">
     <use style="fill:#696969;stroke:#696969;" x="210.878671" xlink:href="#m2317a754d7" y="66.201322"/>
     <use style="fill:#696969;stroke:#696969;" x="242.49289" xlink:href="#m2317a754d7" y="62.259991"/>
     <use style="fill:#696969;stroke:#696969;" x="274.10711" xlink:href="#m2317a754d7" y="56.505215"/>
     <use style="fill:#696969;stroke:#696969;" x="305.721329" xlink:href="#m2317a754d7" y="54.579942"/>
    </g>
   </g>
   <g id="line2d_28">
    <g clip-path="url(#peba923f865)">
     <use style="fill:#696969;stroke:#696969;" x="210.878671" xlink:href="#m2317a754d7" y="65.661036"/>
     <use style="fill:#696969;stroke:#696969;" x="242.49289" xlink:href="#m2317a754d7" y="59.229894"/>
     <use style="fill:#696969;stroke:#696969;" x="274.10711" xlink:href="#m2317a754d7" y="52.154295"/>
     <use style="fill:#696969;stroke:#696969;" x="305.721329" xlink:href="#m2317a754d7" y="49.08056"/>
    </g>
   </g>
   <g id="line2d_29">
    <g clip-path="url(#peba923f865)">
     <use style="fill:#696969;stroke:#696969;" x="217.201515" xlink:href="#m2317a754d7" y="79.012041"/>
     <use style="fill:#696969;stroke:#696969;" x="248.815734" xlink:href="#m2317a754d7" y="70.37431"/>
     <use style="fill:#696969;stroke:#696969;" x="280.429953" xlink:href="#m2317a754d7" y="55.995457"/>
     <use style="fill:#696969;stroke:#696969;" x="312.044172" xlink:href="#m2317a754d7" y="55.995457"/>
    </g>
   </g>
   <g id="line2d_30">
    <g clip-path="url(#peba923f865)">
     <use style="fill:#696969;stroke:#696969;" x="217.201515" xlink:href="#m2317a754d7" y="78.759972"/>
     <use style="fill:#696969;stroke:#696969;" x="248.815734" xlink:href="#m2317a754d7" y="69.949514"/>
     <use style="fill:#696969;stroke:#696969;" x="280.429953" xlink:href="#m2317a754d7" y="55.995457"/>
     <use style="fill:#696969;stroke:#696969;" x="312.044172" xlink:href="#m2317a754d7" y="55.995457"/>
    </g>
   </g>
   <g id="patch_32">
    <path d="M 195.703846 126 
L 195.703846 39.6 
" style="fill:none;stroke:#000000;stroke-linecap:square;stroke-linejoin:miter;stroke-width:0.8;"/>
   </g>
   <g id="patch_33">
    <path d="M 320.896154 126 
L 320.896154 39.6 
" style="fill:none;stroke:#000000;stroke-linecap:square;stroke-linejoin:miter;stroke-width:0.8;"/>
   </g>
   <g id="patch_34">
    <path d="M 195.703846 126 
L 320.896154 126 
" style="fill:none;stroke:#000000;stroke-linecap:square;stroke-linejoin:miter;stroke-width:0.8;"/>
   </g>
   <g id="patch_35">
    <path d="M 195.703846 39.6 
L 320.896154 39.6 
" style="fill:none;stroke:#000000;stroke-linecap:square;stroke-linejoin:miter;stroke-width:0.8;"/>
   </g>
   <g id="text_17">
    <!-- Credit card -->
    <defs>
     <path d="M 45.40625 46.390625 
L 45.40625 75.984375 
L 54.390625 75.984375 
L 54.390625 0 
L 45.40625 0 
L 45.40625 8.203125 
Q 42.578125 3.328125 38.25 0.953125 
Q 33.9375 -1.421875 27.875 -1.421875 
Q 17.96875 -1.421875 11.734375 6.484375 
Q 5.515625 14.40625 5.515625 27.296875 
Q 5.515625 40.1875 11.734375 48.09375 
Q 17.96875 56 27.875 56 
Q 33.9375 56 38.25 53.625 
Q 42.578125 51.265625 45.40625 46.390625 
z
M 14.796875 27.296875 
Q 14.796875 17.390625 18.875 11.75 
Q 22.953125 6.109375 30.078125 6.109375 
Q 37.203125 6.109375 41.296875 11.75 
Q 45.40625 17.390625 45.40625 27.296875 
Q 45.40625 37.203125 41.296875 42.84375 
Q 37.203125 48.484375 30.078125 48.484375 
Q 22.953125 48.484375 18.875 42.84375 
Q 14.796875 37.203125 14.796875 27.296875 
z
" id="DejaVuSans-100"/>
    </defs>
    <g transform="translate(233.301094 33.6)scale(0.09 -0.09)">
     <use xlink:href="#DejaVuSans-67"/>
     <use x="69.824219" xlink:href="#DejaVuSans-114"/>
     <use x="110.90625" xlink:href="#DejaVuSans-101"/>
     <use x="172.429688" xlink:href="#DejaVuSans-100"/>
     <use x="235.90625" xlink:href="#DejaVuSans-105"/>
     <use x="263.689453" xlink:href="#DejaVuSans-116"/>
     <use x="302.898438" xlink:href="#DejaVuSans-32"/>
     <use x="334.685547" xlink:href="#DejaVuSans-99"/>
     <use x="389.666016" xlink:href="#DejaVuSans-97"/>
     <use x="450.945312" xlink:href="#DejaVuSans-114"/>
     <use x="492.042969" xlink:href="#DejaVuSans-100"/>
    </g>
   </g>
  </g>
  <g id="axes_3">
   <g id="patch_36">
    <path d="M 328.407692 126 
L 453.6 126 
L 453.6 39.6 
L 328.407692 39.6 
z
" style="fill:#ffffff;"/>
   </g>
   <g id="patch_37">
    <path clip-path="url(#pc446f2996e)" d="M 334.098252 126 
L 340.421096 126 
L 340.421096 81.895831 
L 334.098252 81.895831 
z
" style="fill:#dda0dd;stroke:#000000;stroke-linejoin:miter;"/>
   </g>
   <g id="patch_38">
    <path clip-path="url(#pc446f2996e)" d="M 365.712471 126 
L 372.035315 126 
L 372.035315 42.150219 
L 365.712471 42.150219 
z
" style="fill:#dda0dd;stroke:#000000;stroke-linejoin:miter;"/>
   </g>
   <g id="patch_39">
    <path clip-path="url(#pc446f2996e)" d="M 397.32669 126 
L 403.649534 126 
L 403.649534 41.992523 
L 397.32669 41.992523 
z
" style="fill:#dda0dd;stroke:#000000;stroke-linejoin:miter;"/>
   </g>
   <g id="patch_40">
    <path clip-path="url(#pc446f2996e)" d="M 428.940909 126 
L 435.263753 126 
L 435.263753 41.979749 
L 428.940909 41.979749 
z
" style="fill:#dda0dd;stroke:#000000;stroke-linejoin:miter;"/>
   </g>
   <g id="patch_41">
    <path clip-path="url(#pc446f2996e)" d="M 340.421096 126 
L 346.743939 126 
L 346.743939 49.538795 
L 340.421096 49.538795 
z
" style="fill:#eee8aa;stroke:#000000;stroke-linejoin:miter;"/>
   </g>
   <g id="patch_42">
    <path clip-path="url(#pc446f2996e)" d="M 372.035315 126 
L 378.358159 126 
L 378.358159 45.395217 
L 372.035315 45.395217 
z
" style="fill:#eee8aa;stroke:#000000;stroke-linejoin:miter;"/>
   </g>
   <g id="patch_43">
    <path clip-path="url(#pc446f2996e)" d="M 403.649534 126 
L 409.972378 126 
L 409.972378 43.089103 
L 403.649534 43.089103 
z
" style="fill:#eee8aa;stroke:#000000;stroke-linejoin:miter;"/>
   </g>
   <g id="patch_44">
    <path clip-path="url(#pc446f2996e)" d="M 435.263753 126 
L 441.586597 126 
L 441.586597 42.675903 
L 435.263753 42.675903 
z
" style="fill:#eee8aa;stroke:#000000;stroke-linejoin:miter;"/>
   </g>
   <g id="patch_45">
    <path clip-path="url(#pc446f2996e)" d="M 346.743939 126 
L 353.066783 126 
L 353.066783 61.174761 
L 346.743939 61.174761 
z
" style="fill:#87ceeb;stroke:#000000;stroke-linejoin:miter;"/>
   </g>
   <g id="patch_46">
    <path clip-path="url(#pc446f2996e)" d="M 378.358159 126 
L 384.681002 126 
L 384.681002 54.365734 
L 378.358159 54.365734 
z
" style="fill:#87ceeb;stroke:#000000;stroke-linejoin:miter;"/>
   </g>
   <g id="patch_47">
    <path clip-path="url(#pc446f2996e)" d="M 409.972378 126 
L 416.295221 126 
L 416.295221 42.213832 
L 409.972378 42.213832 
z
" style="fill:#87ceeb;stroke:#000000;stroke-linejoin:miter;"/>
   </g>
   <g id="patch_48">
    <path clip-path="url(#pc446f2996e)" d="M 441.586597 126 
L 447.909441 126 
L 447.909441 42.0887 
L 441.586597 42.0887 
z
" style="fill:#87ceeb;stroke:#000000;stroke-linejoin:miter;"/>
   </g>
   <g id="matplotlib.axis_5">
    <g id="xtick_9">
     <g id="line2d_31">
      <g>
       <use style="stroke:#000000;stroke-width:0.8;" x="343.582517" xlink:href="#m3970e7561d" y="126"/>
      </g>
     </g>
     <g id="text_18">
      <!-- 5 -->
      <g transform="translate(340.401267 140.598437)scale(0.1 -0.1)">
       <use xlink:href="#DejaVuSans-53"/>
      </g>
     </g>
    </g>
    <g id="xtick_10">
     <g id="line2d_32">
      <g>
       <use style="stroke:#000000;stroke-width:0.8;" x="375.196737" xlink:href="#m3970e7561d" y="126"/>
      </g>
     </g>
     <g id="text_19">
      <!-- 10 -->
      <g transform="translate(368.834237 140.598437)scale(0.1 -0.1)">
       <use xlink:href="#DejaVuSans-49"/>
       <use x="63.623047" xlink:href="#DejaVuSans-48"/>
      </g>
     </g>
    </g>
    <g id="xtick_11">
     <g id="line2d_33">
      <g>
       <use style="stroke:#000000;stroke-width:0.8;" x="406.810956" xlink:href="#m3970e7561d" y="126"/>
      </g>
     </g>
     <g id="text_20">
      <!-- 20 -->
      <g transform="translate(400.448456 140.598437)scale(0.1 -0.1)">
       <use xlink:href="#DejaVuSans-50"/>
       <use x="63.623047" xlink:href="#DejaVuSans-48"/>
      </g>
     </g>
    </g>
    <g id="xtick_12">
     <g id="line2d_34">
      <g>
       <use style="stroke:#000000;stroke-width:0.8;" x="438.425175" xlink:href="#m3970e7561d" y="126"/>
      </g>
     </g>
     <g id="text_21">
      <!-- 30 -->
      <g transform="translate(432.062675 140.598437)scale(0.1 -0.1)">
       <use xlink:href="#DejaVuSans-51"/>
       <use x="63.623047" xlink:href="#DejaVuSans-48"/>
      </g>
     </g>
    </g>
   </g>
   <g id="matplotlib.axis_6">
    <g id="ytick_11">
     <g id="line2d_35">
      <g>
       <use style="stroke:#000000;stroke-width:0.8;" x="328.407692" xlink:href="#m6ae2f0d528" y="126"/>
      </g>
     </g>
    </g>
    <g id="ytick_12">
     <g id="line2d_36">
      <g>
       <use style="stroke:#000000;stroke-width:0.8;" x="328.407692" xlink:href="#m6ae2f0d528" y="104.4"/>
      </g>
     </g>
    </g>
    <g id="ytick_13">
     <g id="line2d_37">
      <g>
       <use style="stroke:#000000;stroke-width:0.8;" x="328.407692" xlink:href="#m6ae2f0d528" y="82.8"/>
      </g>
     </g>
    </g>
    <g id="ytick_14">
     <g id="line2d_38">
      <g>
       <use style="stroke:#000000;stroke-width:0.8;" x="328.407692" xlink:href="#m6ae2f0d528" y="61.2"/>
      </g>
     </g>
    </g>
    <g id="ytick_15">
     <g id="line2d_39">
      <g>
       <use style="stroke:#000000;stroke-width:0.8;" x="328.407692" xlink:href="#m6ae2f0d528" y="39.6"/>
      </g>
     </g>
    </g>
   </g>
   <g id="LineCollection_7">
    <path clip-path="url(#pc446f2996e)" d="M 337.259674 81.895831 
L 337.259674 81.895831 
" style="fill:none;stroke:#696969;stroke-width:1.5;"/>
    <path clip-path="url(#pc446f2996e)" d="M 368.873893 42.150219 
L 368.873893 42.150219 
" style="fill:none;stroke:#696969;stroke-width:1.5;"/>
    <path clip-path="url(#pc446f2996e)" d="M 400.488112 41.992523 
L 400.488112 41.992523 
" style="fill:none;stroke:#696969;stroke-width:1.5;"/>
    <path clip-path="url(#pc446f2996e)" d="M 432.102331 41.979749 
L 432.102331 41.979749 
" style="fill:none;stroke:#696969;stroke-width:1.5;"/>
   </g>
   <g id="LineCollection_8">
    <path clip-path="url(#pc446f2996e)" d="M 343.582517 50.650176 
L 343.582517 48.427413 
" style="fill:none;stroke:#696969;stroke-width:1.5;"/>
    <path clip-path="url(#pc446f2996e)" d="M 375.196737 46.270529 
L 375.196737 44.519904 
" style="fill:none;stroke:#696969;stroke-width:1.5;"/>
    <path clip-path="url(#pc446f2996e)" d="M 406.810956 43.409801 
L 406.810956 42.768405 
" style="fill:none;stroke:#696969;stroke-width:1.5;"/>
    <path clip-path="url(#pc446f2996e)" d="M 438.425175 43.097392 
L 438.425175 42.254413 
" style="fill:none;stroke:#696969;stroke-width:1.5;"/>
   </g>
   <g id="LineCollection_9">
    <path clip-path="url(#pc446f2996e)" d="M 349.905361 61.174761 
L 349.905361 61.174761 
" style="fill:none;stroke:#696969;stroke-width:1.5;"/>
    <path clip-path="url(#pc446f2996e)" d="M 381.51958 54.365734 
L 381.51958 54.365734 
" style="fill:none;stroke:#696969;stroke-width:1.5;"/>
    <path clip-path="url(#pc446f2996e)" d="M 413.1338 42.279186 
L 413.1338 42.148478 
" style="fill:none;stroke:#696969;stroke-width:1.5;"/>
    <path clip-path="url(#pc446f2996e)" d="M 444.748019 42.0887 
L 444.748019 42.0887 
" style="fill:none;stroke:#696969;stroke-width:1.5;"/>
   </g>
   <g id="line2d_40">
    <g clip-path="url(#pc446f2996e)">
     <use style="fill:#696969;stroke:#696969;" x="337.259674" xlink:href="#m2317a754d7" y="81.895831"/>
     <use style="fill:#696969;stroke:#696969;" x="368.873893" xlink:href="#m2317a754d7" y="42.150219"/>
     <use style="fill:#696969;stroke:#696969;" x="400.488112" xlink:href="#m2317a754d7" y="41.992523"/>
     <use style="fill:#696969;stroke:#696969;" x="432.102331" xlink:href="#m2317a754d7" y="41.979749"/>
    </g>
   </g>
   <g id="line2d_41">
    <g clip-path="url(#pc446f2996e)">
     <use style="fill:#696969;stroke:#696969;" x="337.259674" xlink:href="#m2317a754d7" y="81.895831"/>
     <use style="fill:#696969;stroke:#696969;" x="368.873893" xlink:href="#m2317a754d7" y="42.150219"/>
     <use style="fill:#696969;stroke:#696969;" x="400.488112" xlink:href="#m2317a754d7" y="41.992523"/>
     <use style="fill:#696969;stroke:#696969;" x="432.102331" xlink:href="#m2317a754d7" y="41.979749"/>
    </g>
   </g>
   <g id="line2d_42">
    <g clip-path="url(#pc446f2996e)">
     <use style="fill:#696969;stroke:#696969;" x="343.582517" xlink:href="#m2317a754d7" y="50.650176"/>
     <use style="fill:#696969;stroke:#696969;" x="375.196737" xlink:href="#m2317a754d7" y="46.270529"/>
     <use style="fill:#696969;stroke:#696969;" x="406.810956" xlink:href="#m2317a754d7" y="43.409801"/>
     <use style="fill:#696969;stroke:#696969;" x="438.425175" xlink:href="#m2317a754d7" y="43.097392"/>
    </g>
   </g>
   <g id="line2d_43">
    <g clip-path="url(#pc446f2996e)">
     <use style="fill:#696969;stroke:#696969;" x="343.582517" xlink:href="#m2317a754d7" y="48.427413"/>
     <use style="fill:#696969;stroke:#696969;" x="375.196737" xlink:href="#m2317a754d7" y="44.519904"/>
     <use style="fill:#696969;stroke:#696969;" x="406.810956" xlink:href="#m2317a754d7" y="42.768405"/>
     <use style="fill:#696969;stroke:#696969;" x="438.425175" xlink:href="#m2317a754d7" y="42.254413"/>
    </g>
   </g>
   <g id="line2d_44">
    <g clip-path="url(#pc446f2996e)">
     <use style="fill:#696969;stroke:#696969;" x="349.905361" xlink:href="#m2317a754d7" y="61.174761"/>
     <use style="fill:#696969;stroke:#696969;" x="381.51958" xlink:href="#m2317a754d7" y="54.365734"/>
     <use style="fill:#696969;stroke:#696969;" x="413.1338" xlink:href="#m2317a754d7" y="42.279186"/>
     <use style="fill:#696969;stroke:#696969;" x="444.748019" xlink:href="#m2317a754d7" y="42.0887"/>
    </g>
   </g>
   <g id="line2d_45">
    <g clip-path="url(#pc446f2996e)">
     <use style="fill:#696969;stroke:#696969;" x="349.905361" xlink:href="#m2317a754d7" y="61.174761"/>
     <use style="fill:#696969;stroke:#696969;" x="381.51958" xlink:href="#m2317a754d7" y="54.365734"/>
     <use style="fill:#696969;stroke:#696969;" x="413.1338" xlink:href="#m2317a754d7" y="42.148478"/>
     <use style="fill:#696969;stroke:#696969;" x="444.748019" xlink:href="#m2317a754d7" y="42.0887"/>
    </g>
   </g>
   <g id="patch_49">
    <path d="M 328.407692 126 
L 328.407692 39.6 
" style="fill:none;stroke:#000000;stroke-linecap:square;stroke-linejoin:miter;stroke-width:0.8;"/>
   </g>
   <g id="patch_50">
    <path d="M 453.6 126 
L 453.6 39.6 
" style="fill:none;stroke:#000000;stroke-linecap:square;stroke-linejoin:miter;stroke-width:0.8;"/>
   </g>
   <g id="patch_51">
    <path d="M 328.407692 126 
L 453.6 126 
" style="fill:none;stroke:#000000;stroke-linecap:square;stroke-linejoin:miter;stroke-width:0.8;"/>
   </g>
   <g id="patch_52">
    <path d="M 328.407692 39.6 
L 453.6 39.6 
" style="fill:none;stroke:#000000;stroke-linecap:square;stroke-linejoin:miter;stroke-width:0.8;"/>
   </g>
   <g id="text_22">
    <!-- Psychology test -->
    <defs>
     <path d="M 19.671875 64.796875 
L 19.671875 37.40625 
L 32.078125 37.40625 
Q 38.96875 37.40625 42.71875 40.96875 
Q 46.484375 44.53125 46.484375 51.125 
Q 46.484375 57.671875 42.71875 61.234375 
Q 38.96875 64.796875 32.078125 64.796875 
z
M 9.8125 72.90625 
L 32.078125 72.90625 
Q 44.34375 72.90625 50.609375 67.359375 
Q 56.890625 61.8125 56.890625 51.125 
Q 56.890625 40.328125 50.609375 34.8125 
Q 44.34375 29.296875 32.078125 29.296875 
L 19.671875 29.296875 
L 19.671875 0 
L 9.8125 0 
z
" id="DejaVuSans-80"/>
     <path d="M 54.890625 33.015625 
L 54.890625 0 
L 45.90625 0 
L 45.90625 32.71875 
Q 45.90625 40.484375 42.875 44.328125 
Q 39.84375 48.1875 33.796875 48.1875 
Q 26.515625 48.1875 22.3125 43.546875 
Q 18.109375 38.921875 18.109375 30.90625 
L 18.109375 0 
L 9.078125 0 
L 9.078125 75.984375 
L 18.109375 75.984375 
L 18.109375 46.1875 
Q 21.34375 51.125 25.703125 53.5625 
Q 30.078125 56 35.796875 56 
Q 45.21875 56 50.046875 50.171875 
Q 54.890625 44.34375 54.890625 33.015625 
z
" id="DejaVuSans-104"/>
     <path d="M 45.40625 27.984375 
Q 45.40625 37.75 41.375 43.109375 
Q 37.359375 48.484375 30.078125 48.484375 
Q 22.859375 48.484375 18.828125 43.109375 
Q 14.796875 37.75 14.796875 27.984375 
Q 14.796875 18.265625 18.828125 12.890625 
Q 22.859375 7.515625 30.078125 7.515625 
Q 37.359375 7.515625 41.375 12.890625 
Q 45.40625 18.265625 45.40625 27.984375 
z
M 54.390625 6.78125 
Q 54.390625 -7.171875 48.1875 -13.984375 
Q 42 -20.796875 29.203125 -20.796875 
Q 24.46875 -20.796875 20.265625 -20.09375 
Q 16.0625 -19.390625 12.109375 -17.921875 
L 12.109375 -9.1875 
Q 16.0625 -11.328125 19.921875 -12.34375 
Q 23.78125 -13.375 27.78125 -13.375 
Q 36.625 -13.375 41.015625 -8.765625 
Q 45.40625 -4.15625 45.40625 5.171875 
L 45.40625 9.625 
Q 42.625 4.78125 38.28125 2.390625 
Q 33.9375 0 27.875 0 
Q 17.828125 0 11.671875 7.65625 
Q 5.515625 15.328125 5.515625 27.984375 
Q 5.515625 40.671875 11.671875 48.328125 
Q 17.828125 56 27.875 56 
Q 33.9375 56 38.28125 53.609375 
Q 42.625 51.21875 45.40625 46.390625 
L 45.40625 54.6875 
L 54.390625 54.6875 
z
" id="DejaVuSans-103"/>
    </defs>
    <g transform="translate(355.608534 33.6)scale(0.09 -0.09)">
     <use xlink:href="#DejaVuSans-80"/>
     <use x="60.287109" xlink:href="#DejaVuSans-115"/>
     <use x="112.386719" xlink:href="#DejaVuSans-121"/>
     <use x="171.566406" xlink:href="#DejaVuSans-99"/>
     <use x="226.546875" xlink:href="#DejaVuSans-104"/>
     <use x="289.925781" xlink:href="#DejaVuSans-111"/>
     <use x="351.107422" xlink:href="#DejaVuSans-108"/>
     <use x="378.890625" xlink:href="#DejaVuSans-111"/>
     <use x="440.072266" xlink:href="#DejaVuSans-103"/>
     <use x="503.548828" xlink:href="#DejaVuSans-121"/>
     <use x="562.728516" xlink:href="#DejaVuSans-32"/>
     <use x="594.515625" xlink:href="#DejaVuSans-116"/>
     <use x="633.724609" xlink:href="#DejaVuSans-101"/>
     <use x="695.248047" xlink:href="#DejaVuSans-115"/>
     <use x="747.347656" xlink:href="#DejaVuSans-116"/>
    </g>
   </g>
  </g>
  <g id="text_23">
   <!-- Population Uniqueness -->
   <defs>
    <path d="M 8.6875 72.90625 
L 18.609375 72.90625 
L 18.609375 28.609375 
Q 18.609375 16.890625 22.84375 11.734375 
Q 27.09375 6.59375 36.625 6.59375 
Q 46.09375 6.59375 50.34375 11.734375 
Q 54.59375 16.890625 54.59375 28.609375 
L 54.59375 72.90625 
L 64.5 72.90625 
L 64.5 27.390625 
Q 64.5 13.140625 57.4375 5.859375 
Q 50.390625 -1.421875 36.625 -1.421875 
Q 22.796875 -1.421875 15.734375 5.859375 
Q 8.6875 13.140625 8.6875 27.390625 
z
" id="DejaVuSans-85"/>
    <path d="M 14.796875 27.296875 
Q 14.796875 17.390625 18.875 11.75 
Q 22.953125 6.109375 30.078125 6.109375 
Q 37.203125 6.109375 41.296875 11.75 
Q 45.40625 17.390625 45.40625 27.296875 
Q 45.40625 37.203125 41.296875 42.84375 
Q 37.203125 48.484375 30.078125 48.484375 
Q 22.953125 48.484375 18.875 42.84375 
Q 14.796875 37.203125 14.796875 27.296875 
z
M 45.40625 8.203125 
Q 42.578125 3.328125 38.25 0.953125 
Q 33.9375 -1.421875 27.875 -1.421875 
Q 17.96875 -1.421875 11.734375 6.484375 
Q 5.515625 14.40625 5.515625 27.296875 
Q 5.515625 40.1875 11.734375 48.09375 
Q 17.96875 56 27.875 56 
Q 33.9375 56 38.25 53.625 
Q 42.578125 51.265625 45.40625 46.390625 
L 45.40625 54.6875 
L 54.390625 54.6875 
L 54.390625 -20.796875 
L 45.40625 -20.796875 
z
" id="DejaVuSans-113"/>
   </defs>
   <g transform="translate(183.449062 12.718125)scale(0.12 -0.12)">
    <use xlink:href="#DejaVuSans-80"/>
    <use x="60.255859" xlink:href="#DejaVuSans-111"/>
    <use x="121.4375" xlink:href="#DejaVuSans-112"/>
    <use x="184.914062" xlink:href="#DejaVuSans-117"/>
    <use x="248.292969" xlink:href="#DejaVuSans-108"/>
    <use x="276.076172" xlink:href="#DejaVuSans-97"/>
    <use x="337.355469" xlink:href="#DejaVuSans-116"/>
    <use x="376.564453" xlink:href="#DejaVuSans-105"/>
    <use x="404.347656" xlink:href="#DejaVuSans-111"/>
    <use x="465.529297" xlink:href="#DejaVuSans-110"/>
    <use x="528.908203" xlink:href="#DejaVuSans-32"/>
    <use x="560.695312" xlink:href="#DejaVuSans-85"/>
    <use x="633.888672" xlink:href="#DejaVuSans-110"/>
    <use x="697.267578" xlink:href="#DejaVuSans-105"/>
    <use x="725.050781" xlink:href="#DejaVuSans-113"/>
    <use x="788.527344" xlink:href="#DejaVuSans-117"/>
    <use x="851.90625" xlink:href="#DejaVuSans-101"/>
    <use x="913.429688" xlink:href="#DejaVuSans-110"/>
    <use x="976.808594" xlink:href="#DejaVuSans-101"/>
    <use x="1038.332031" xlink:href="#DejaVuSans-115"/>
    <use x="1090.431641" xlink:href="#DejaVuSans-115"/>
   </g>
  </g>
  <g id="legend_1">
   <g id="patch_53">
    <path d="M 116.482812 175 
L 387.517187 175 
Q 389.517187 175 389.517187 173 
L 389.517187 159.321875 
Q 389.517187 157.321875 387.517187 157.321875 
L 116.482812 157.321875 
Q 114.482812 157.321875 114.482812 159.321875 
L 114.482812 173 
Q 114.482812 175 116.482812 175 
z
" style="fill:#ffffff;opacity:0.8;stroke:#cccccc;stroke-linejoin:miter;"/>
   </g>
   <g id="patch_54">
    <path d="M 118.482812 168.920312 
L 138.482812 168.920312 
L 138.482812 161.920312 
L 118.482812 161.920312 
z
" style="fill:#dda0dd;stroke:#000000;stroke-linejoin:miter;"/>
   </g>
   <g id="text_24">
    <!-- Bottom-Up -->
    <defs>
     <path d="M 19.671875 34.8125 
L 19.671875 8.109375 
L 35.5 8.109375 
Q 43.453125 8.109375 47.28125 11.40625 
Q 51.125 14.703125 51.125 21.484375 
Q 51.125 28.328125 47.28125 31.5625 
Q 43.453125 34.8125 35.5 34.8125 
z
M 19.671875 64.796875 
L 19.671875 42.828125 
L 34.28125 42.828125 
Q 41.5 42.828125 45.03125 45.53125 
Q 48.578125 48.25 48.578125 53.8125 
Q 48.578125 59.328125 45.03125 62.0625 
Q 41.5 64.796875 34.28125 64.796875 
z
M 9.8125 72.90625 
L 35.015625 72.90625 
Q 46.296875 72.90625 52.390625 68.21875 
Q 58.5 63.53125 58.5 54.890625 
Q 58.5 48.1875 55.375 44.234375 
Q 52.25 40.28125 46.1875 39.3125 
Q 53.46875 37.75 57.5 32.78125 
Q 61.53125 27.828125 61.53125 20.40625 
Q 61.53125 10.640625 54.890625 5.3125 
Q 48.25 0 35.984375 0 
L 9.8125 0 
z
" id="DejaVuSans-66"/>
     <path d="M 4.890625 31.390625 
L 31.203125 31.390625 
L 31.203125 23.390625 
L 4.890625 23.390625 
z
" id="DejaVuSans-45"/>
    </defs>
    <g transform="translate(146.482812 168.920312)scale(0.1 -0.1)">
     <use xlink:href="#DejaVuSans-66"/>
     <use x="68.603516" xlink:href="#DejaVuSans-111"/>
     <use x="129.785156" xlink:href="#DejaVuSans-116"/>
     <use x="168.994141" xlink:href="#DejaVuSans-116"/>
     <use x="208.203125" xlink:href="#DejaVuSans-111"/>
     <use x="269.384766" xlink:href="#DejaVuSans-109"/>
     <use x="366.796875" xlink:href="#DejaVuSans-45"/>
     <use x="402.880859" xlink:href="#DejaVuSans-85"/>
     <use x="476.074219" xlink:href="#DejaVuSans-112"/>
    </g>
   </g>
   <g id="patch_55">
    <path d="M 220.4375 168.920312 
L 240.4375 168.920312 
L 240.4375 161.920312 
L 220.4375 161.920312 
z
" style="fill:#eee8aa;stroke:#000000;stroke-linejoin:miter;"/>
   </g>
   <g id="text_25">
    <!-- Genetic -->
    <defs>
     <path d="M 59.515625 10.40625 
L 59.515625 29.984375 
L 43.40625 29.984375 
L 43.40625 38.09375 
L 69.28125 38.09375 
L 69.28125 6.78125 
Q 63.578125 2.734375 56.6875 0.65625 
Q 49.8125 -1.421875 42 -1.421875 
Q 24.90625 -1.421875 15.25 8.5625 
Q 5.609375 18.5625 5.609375 36.375 
Q 5.609375 54.25 15.25 64.234375 
Q 24.90625 74.21875 42 74.21875 
Q 49.125 74.21875 55.546875 72.453125 
Q 61.96875 70.703125 67.390625 67.28125 
L 67.390625 56.78125 
Q 61.921875 61.421875 55.765625 63.765625 
Q 49.609375 66.109375 42.828125 66.109375 
Q 29.4375 66.109375 22.71875 58.640625 
Q 16.015625 51.171875 16.015625 36.375 
Q 16.015625 21.625 22.71875 14.15625 
Q 29.4375 6.6875 42.828125 6.6875 
Q 48.046875 6.6875 52.140625 7.59375 
Q 56.25 8.5 59.515625 10.40625 
z
" id="DejaVuSans-71"/>
    </defs>
    <g transform="translate(248.4375 168.920312)scale(0.1 -0.1)">
     <use xlink:href="#DejaVuSans-71"/>
     <use x="77.490234" xlink:href="#DejaVuSans-101"/>
     <use x="139.013672" xlink:href="#DejaVuSans-110"/>
     <use x="202.392578" xlink:href="#DejaVuSans-101"/>
     <use x="263.916016" xlink:href="#DejaVuSans-116"/>
     <use x="303.125" xlink:href="#DejaVuSans-105"/>
     <use x="330.908203" xlink:href="#DejaVuSans-99"/>
    </g>
   </g>
   <g id="patch_56">
    <path d="M 307.026563 168.920312 
L 327.026563 168.920312 
L 327.026563 161.920312 
L 307.026563 161.920312 
z
" style="fill:#87ceeb;stroke:#000000;stroke-linejoin:miter;"/>
   </g>
   <g id="text_26">
    <!-- Top-Down -->
    <defs>
     <path d="M 19.671875 64.796875 
L 19.671875 8.109375 
L 31.59375 8.109375 
Q 46.6875 8.109375 53.6875 14.9375 
Q 60.6875 21.78125 60.6875 36.53125 
Q 60.6875 51.171875 53.6875 57.984375 
Q 46.6875 64.796875 31.59375 64.796875 
z
M 9.8125 72.90625 
L 30.078125 72.90625 
Q 51.265625 72.90625 61.171875 64.09375 
Q 71.09375 55.28125 71.09375 36.53125 
Q 71.09375 17.671875 61.125 8.828125 
Q 51.171875 0 30.078125 0 
L 9.8125 0 
z
" id="DejaVuSans-68"/>
     <path d="M 4.203125 54.6875 
L 13.1875 54.6875 
L 24.421875 12.015625 
L 35.59375 54.6875 
L 46.1875 54.6875 
L 57.421875 12.015625 
L 68.609375 54.6875 
L 77.59375 54.6875 
L 63.28125 0 
L 52.6875 0 
L 40.921875 44.828125 
L 29.109375 0 
L 18.5 0 
z
" id="DejaVuSans-119"/>
    </defs>
    <g transform="translate(335.026563 168.920312)scale(0.1 -0.1)">
     <use xlink:href="#DejaVuSans-84"/>
     <use x="60.818359" xlink:href="#DejaVuSans-111"/>
     <use x="122" xlink:href="#DejaVuSans-112"/>
     <use x="185.476562" xlink:href="#DejaVuSans-45"/>
     <use x="221.560547" xlink:href="#DejaVuSans-68"/>
     <use x="298.5625" xlink:href="#DejaVuSans-111"/>
     <use x="359.744141" xlink:href="#DejaVuSans-119"/>
     <use x="441.53125" xlink:href="#DejaVuSans-110"/>
    </g>
   </g>
  </g>
 </g>
 <defs>
  <clipPath id="pdca8658d37">
   <rect height="86.4" width="125.192308" x="63" y="39.6"/>
  </clipPath>
  <clipPath id="peba923f865">
   <rect height="86.4" width="125.192308" x="195.703846" y="39.6"/>
  </clipPath>
  <clipPath id="pc446f2996e">
   <rect height="86.4" width="125.192308" x="328.407692" y="39.6"/>
  </clipPath>
 </defs>
</svg>
