<?xml version="1.0" encoding="utf-8" standalone="no"?>
<!DOCTYPE svg PUBLIC "-//W3C//DTD SVG 1.1//EN"
  "http://www.w3.org/Graphics/SVG/1.1/DTD/svg11.dtd">
<!-- Created with matplotlib (https://matplotlib.org/) -->
<svg height="288pt" version="1.1" viewBox="0 0 288 288" width="288pt" xmlns="http://www.w3.org/2000/svg" xmlns:xlink="http://www.w3.org/1999/xlink">
 <metadata>
  <rdf:RDF xmlns:cc="http://creativecommons.org/ns#" xmlns:dc="http://purl.org/dc/elements/1.1/" xmlns:rdf="http://www.w3.org/1999/02/22-rdf-syntax-ns#">
   <cc:Work>
    <dc:type rdf:resource="http://purl.org/dc/dcmitype/StillImage"/>
    <dc:date>2021-07-16T21:35:43.523107</dc:date>
    <dc:format>image/svg+xml</dc:format>
    <dc:creator>
     <cc:Agent>
      <dc:title>Matplotlib v3.3.4, https://matplotlib.org/</dc:title>
     </cc:Agent>
    </dc:creator>
   </cc:Work>
  </rdf:RDF>
 </metadata>
 <defs>
  <style type="text/css">*{stroke-linecap:butt;stroke-linejoin:round;}</style>
 </defs>
 <g id="figure_1">
  <g id="patch_1">
   <path d="M 0 288 
L 288 288 
L 288 0 
L 0 0 
z
" style="fill:#ffffff;"/>
  </g>
  <g id="axes_1">
   <g id="patch_2">
    <path d="M 36 77.133913 
L 259.2 77.133913 
L 259.2 34.56 
L 36 34.56 
z
" style="fill:#ffffff;"/>
   </g>
   <g id="matplotlib.axis_1">
    <g id="xtick_1">
     <g id="line2d_1">
      <defs>
       <path d="M 0 0 
L 0 3.5 
" id="mc98188ea8b" style="stroke:#000000;stroke-width:0.8;"/>
      </defs>
      <g>
       <use style="stroke:#000000;stroke-width:0.8;" x="36" xlink:href="#mc98188ea8b" y="77.133913"/>
      </g>
     </g>
     <g id="text_1">
      <!-- 0 -->
      <g transform="translate(32.81875 91.732351)scale(0.1 -0.1)">
       <defs>
        <path d="M 31.78125 66.40625 
Q 24.171875 66.40625 20.328125 58.90625 
Q 16.5 51.421875 16.5 36.375 
Q 16.5 21.390625 20.328125 13.890625 
Q 24.171875 6.390625 31.78125 6.390625 
Q 39.453125 6.390625 43.28125 13.890625 
Q 47.125 21.390625 47.125 36.375 
Q 47.125 51.421875 43.28125 58.90625 
Q 39.453125 66.40625 31.78125 66.40625 
z
M 31.78125 74.21875 
Q 44.046875 74.21875 50.515625 64.515625 
Q 56.984375 54.828125 56.984375 36.375 
Q 56.984375 17.96875 50.515625 8.265625 
Q 44.046875 -1.421875 31.78125 -1.421875 
Q 19.53125 -1.421875 13.0625 8.265625 
Q 6.59375 17.96875 6.59375 36.375 
Q 6.59375 54.828125 13.0625 64.515625 
Q 19.53125 74.21875 31.78125 74.21875 
z
" id="DejaVuSans-48"/>
       </defs>
       <use xlink:href="#DejaVuSans-48"/>
      </g>
     </g>
    </g>
    <g id="xtick_2">
     <g id="line2d_2">
      <g>
       <use style="stroke:#000000;stroke-width:0.8;" x="80.64" xlink:href="#mc98188ea8b" y="77.133913"/>
      </g>
     </g>
     <g id="text_2">
      <!-- 2 -->
      <g transform="translate(77.45875 91.732351)scale(0.1 -0.1)">
       <defs>
        <path d="M 19.1875 8.296875 
L 53.609375 8.296875 
L 53.609375 0 
L 7.328125 0 
L 7.328125 8.296875 
Q 12.9375 14.109375 22.625 23.890625 
Q 32.328125 33.6875 34.8125 36.53125 
Q 39.546875 41.84375 41.421875 45.53125 
Q 43.3125 49.21875 43.3125 52.78125 
Q 43.3125 58.59375 39.234375 62.25 
Q 35.15625 65.921875 28.609375 65.921875 
Q 23.96875 65.921875 18.8125 64.3125 
Q 13.671875 62.703125 7.8125 59.421875 
L 7.8125 69.390625 
Q 13.765625 71.78125 18.9375 73 
Q 24.125 74.21875 28.421875 74.21875 
Q 39.75 74.21875 46.484375 68.546875 
Q 53.21875 62.890625 53.21875 53.421875 
Q 53.21875 48.921875 51.53125 44.890625 
Q 49.859375 40.875 45.40625 35.40625 
Q 44.1875 33.984375 37.640625 27.21875 
Q 31.109375 20.453125 19.1875 8.296875 
z
" id="DejaVuSans-50"/>
       </defs>
       <use xlink:href="#DejaVuSans-50"/>
      </g>
     </g>
    </g>
    <g id="xtick_3">
     <g id="line2d_3">
      <g>
       <use style="stroke:#000000;stroke-width:0.8;" x="125.28" xlink:href="#mc98188ea8b" y="77.133913"/>
      </g>
     </g>
     <g id="text_3">
      <!-- 4 -->
      <g transform="translate(122.09875 91.732351)scale(0.1 -0.1)">
       <defs>
        <path d="M 37.796875 64.3125 
L 12.890625 25.390625 
L 37.796875 25.390625 
z
M 35.203125 72.90625 
L 47.609375 72.90625 
L 47.609375 25.390625 
L 58.015625 25.390625 
L 58.015625 17.1875 
L 47.609375 17.1875 
L 47.609375 0 
L 37.796875 0 
L 37.796875 17.1875 
L 4.890625 17.1875 
L 4.890625 26.703125 
z
" id="DejaVuSans-52"/>
       </defs>
       <use xlink:href="#DejaVuSans-52"/>
      </g>
     </g>
    </g>
    <g id="xtick_4">
     <g id="line2d_4">
      <g>
       <use style="stroke:#000000;stroke-width:0.8;" x="169.92" xlink:href="#mc98188ea8b" y="77.133913"/>
      </g>
     </g>
     <g id="text_4">
      <!-- 6 -->
      <g transform="translate(166.73875 91.732351)scale(0.1 -0.1)">
       <defs>
        <path d="M 33.015625 40.375 
Q 26.375 40.375 22.484375 35.828125 
Q 18.609375 31.296875 18.609375 23.390625 
Q 18.609375 15.53125 22.484375 10.953125 
Q 26.375 6.390625 33.015625 6.390625 
Q 39.65625 6.390625 43.53125 10.953125 
Q 47.40625 15.53125 47.40625 23.390625 
Q 47.40625 31.296875 43.53125 35.828125 
Q 39.65625 40.375 33.015625 40.375 
z
M 52.59375 71.296875 
L 52.59375 62.3125 
Q 48.875 64.0625 45.09375 64.984375 
Q 41.3125 65.921875 37.59375 65.921875 
Q 27.828125 65.921875 22.671875 59.328125 
Q 17.53125 52.734375 16.796875 39.40625 
Q 19.671875 43.65625 24.015625 45.921875 
Q 28.375 48.1875 33.59375 48.1875 
Q 44.578125 48.1875 50.953125 41.515625 
Q 57.328125 34.859375 57.328125 23.390625 
Q 57.328125 12.15625 50.6875 5.359375 
Q 44.046875 -1.421875 33.015625 -1.421875 
Q 20.359375 -1.421875 13.671875 8.265625 
Q 6.984375 17.96875 6.984375 36.375 
Q 6.984375 53.65625 15.1875 63.9375 
Q 23.390625 74.21875 37.203125 74.21875 
Q 40.921875 74.21875 44.703125 73.484375 
Q 48.484375 72.75 52.59375 71.296875 
z
" id="DejaVuSans-54"/>
       </defs>
       <use xlink:href="#DejaVuSans-54"/>
      </g>
     </g>
    </g>
    <g id="xtick_5">
     <g id="line2d_5">
      <g>
       <use style="stroke:#000000;stroke-width:0.8;" x="214.56" xlink:href="#mc98188ea8b" y="77.133913"/>
      </g>
     </g>
     <g id="text_5">
      <!-- 8 -->
      <g transform="translate(211.37875 91.732351)scale(0.1 -0.1)">
       <defs>
        <path d="M 31.78125 34.625 
Q 24.75 34.625 20.71875 30.859375 
Q 16.703125 27.09375 16.703125 20.515625 
Q 16.703125 13.921875 20.71875 10.15625 
Q 24.75 6.390625 31.78125 6.390625 
Q 38.8125 6.390625 42.859375 10.171875 
Q 46.921875 13.96875 46.921875 20.515625 
Q 46.921875 27.09375 42.890625 30.859375 
Q 38.875 34.625 31.78125 34.625 
z
M 21.921875 38.8125 
Q 15.578125 40.375 12.03125 44.71875 
Q 8.5 49.078125 8.5 55.328125 
Q 8.5 64.0625 14.71875 69.140625 
Q 20.953125 74.21875 31.78125 74.21875 
Q 42.671875 74.21875 48.875 69.140625 
Q 55.078125 64.0625 55.078125 55.328125 
Q 55.078125 49.078125 51.53125 44.71875 
Q 48 40.375 41.703125 38.8125 
Q 48.828125 37.15625 52.796875 32.3125 
Q 56.78125 27.484375 56.78125 20.515625 
Q 56.78125 9.90625 50.3125 4.234375 
Q 43.84375 -1.421875 31.78125 -1.421875 
Q 19.734375 -1.421875 13.25 4.234375 
Q 6.78125 9.90625 6.78125 20.515625 
Q 6.78125 27.484375 10.78125 32.3125 
Q 14.796875 37.15625 21.921875 38.8125 
z
M 18.3125 54.390625 
Q 18.3125 48.734375 21.84375 45.5625 
Q 25.390625 42.390625 31.78125 42.390625 
Q 38.140625 42.390625 41.71875 45.5625 
Q 45.3125 48.734375 45.3125 54.390625 
Q 45.3125 60.0625 41.71875 63.234375 
Q 38.140625 66.40625 31.78125 66.40625 
Q 25.390625 66.40625 21.84375 63.234375 
Q 18.3125 60.0625 18.3125 54.390625 
z
" id="DejaVuSans-56"/>
       </defs>
       <use xlink:href="#DejaVuSans-56"/>
      </g>
     </g>
    </g>
    <g id="xtick_6">
     <g id="line2d_6">
      <g>
       <use style="stroke:#000000;stroke-width:0.8;" x="259.2" xlink:href="#mc98188ea8b" y="77.133913"/>
      </g>
     </g>
     <g id="text_6">
      <!-- 10 -->
      <g transform="translate(252.8375 91.732351)scale(0.1 -0.1)">
       <defs>
        <path d="M 12.40625 8.296875 
L 28.515625 8.296875 
L 28.515625 63.921875 
L 10.984375 60.40625 
L 10.984375 69.390625 
L 28.421875 72.90625 
L 38.28125 72.90625 
L 38.28125 8.296875 
L 54.390625 8.296875 
L 54.390625 0 
L 12.40625 0 
z
" id="DejaVuSans-49"/>
       </defs>
       <use xlink:href="#DejaVuSans-49"/>
       <use x="63.623047" xlink:href="#DejaVuSans-48"/>
      </g>
     </g>
    </g>
   </g>
   <g id="matplotlib.axis_2">
    <g id="ytick_1">
     <g id="line2d_7">
      <defs>
       <path d="M 0 0 
L -3.5 0 
" id="m6b10387529" style="stroke:#000000;stroke-width:0.8;"/>
      </defs>
      <g>
       <use style="stroke:#000000;stroke-width:0.8;" x="36" xlink:href="#m6b10387529" y="77.133913"/>
      </g>
     </g>
     <g id="text_7">
      <!-- 0 -->
      <g transform="translate(22.6375 80.933132)scale(0.1 -0.1)">
       <use xlink:href="#DejaVuSans-48"/>
      </g>
     </g>
    </g>
    <g id="ytick_2">
     <g id="line2d_8">
      <g>
       <use style="stroke:#000000;stroke-width:0.8;" x="36" xlink:href="#m6b10387529" y="55.846957"/>
      </g>
     </g>
     <g id="text_8">
      <!-- 40 -->
      <g transform="translate(16.275 59.646175)scale(0.1 -0.1)">
       <use xlink:href="#DejaVuSans-52"/>
       <use x="63.623047" xlink:href="#DejaVuSans-48"/>
      </g>
     </g>
    </g>
    <g id="ytick_3">
     <g id="line2d_9">
      <g>
       <use style="stroke:#000000;stroke-width:0.8;" x="36" xlink:href="#m6b10387529" y="34.56"/>
      </g>
     </g>
     <g id="text_9">
      <!-- 80 -->
      <g transform="translate(16.275 38.359219)scale(0.1 -0.1)">
       <use xlink:href="#DejaVuSans-56"/>
       <use x="63.623047" xlink:href="#DejaVuSans-48"/>
      </g>
     </g>
    </g>
   </g>
   <g id="line2d_10">
    <path clip-path="url(#p2d93971a85)" d="M 36 77.133913 
L 38.254545 76.160888 
L 40.509091 72.604005 
L 42.763636 69.562344 
L 45.018182 68.411757 
L 47.272727 66.647877 
L 49.527273 65.313438 
L 51.781818 64.766409 
L 54.036364 62.063035 
L 56.290909 61.003455 
L 58.545455 60.149976 
L 60.8 58.082236 
L 63.054545 56.585729 
L 65.309091 55.907852 
L 67.563636 54.936448 
L 69.818182 53.917735 
L 72.072727 52.716868 
L 74.327273 51.908585 
L 76.581818 50.739894 
L 78.836364 49.79769 
L 81.090909 48.553423 
L 83.345455 48.047871 
L 85.6 47.687617 
L 87.854545 46.899668 
L 90.109091 46.53303 
L 92.363636 45.93044 
L 94.618182 45.399788 
L 96.872727 45.026228 
L 99.127273 44.582477 
L 101.381818 44.244965 
L 103.636364 43.803575 
L 105.890909 43.443037 
L 108.145455 42.932505 
L 110.4 42.797498 
L 112.654545 42.611458 
L 114.909091 42.611458 
L 117.163636 42.611458 
L 119.418182 42.611458 
L 121.672727 42.611458 
L 123.927273 42.611458 
L 126.181818 42.611458 
L 128.436364 42.611458 
L 130.690909 42.611458 
L 132.945455 42.611458 
L 135.2 42.611458 
L 137.454545 42.611458 
L 139.709091 42.611458 
L 141.963636 42.611458 
L 144.218182 42.611458 
L 146.472727 42.611458 
L 148.727273 42.611458 
L 150.981818 42.611458 
L 153.236364 42.611458 
L 155.490909 42.611458 
L 157.745455 42.611458 
L 160 42.611458 
L 162.254545 42.611458 
L 164.509091 42.611458 
L 166.763636 42.611458 
L 169.018182 42.611458 
L 171.272727 42.611458 
L 173.527273 42.611458 
L 175.781818 42.611458 
L 178.036364 42.611458 
L 180.290909 42.611458 
L 182.545455 42.611458 
L 184.8 42.611458 
L 187.054545 42.611458 
L 189.309091 42.611458 
L 191.563636 42.611458 
L 193.818182 42.611458 
L 196.072727 42.611458 
L 198.327273 42.611458 
L 200.581818 42.611458 
L 202.836364 42.611458 
L 205.090909 42.611458 
L 207.345455 42.611458 
L 209.6 42.611458 
L 211.854545 42.611458 
L 214.109091 42.611458 
L 216.363636 42.611458 
L 218.618182 42.611458 
L 220.872727 42.611458 
L 223.127273 42.611458 
L 225.381818 42.611458 
L 227.636364 42.611458 
L 229.890909 42.611458 
L 232.145455 42.611458 
L 234.4 42.611458 
L 236.654545 42.611458 
L 238.909091 42.611458 
L 241.163636 42.611458 
L 243.418182 42.611458 
L 245.672727 42.611458 
L 247.927273 42.611458 
L 250.181818 42.611458 
L 252.436364 42.611458 
L 254.690909 42.611458 
L 256.945455 42.611458 
L 259.2 42.611458 
" style="fill:none;stroke:#da70d6;stroke-linecap:square;stroke-width:1.5;"/>
   </g>
   <g id="line2d_11">
    <path clip-path="url(#p2d93971a85)" d="M 36 77.133913 
L 38.254545 76.597041 
L 40.509091 67.837843 
L 42.763636 52.633658 
L 45.018182 50.451165 
L 47.272727 49.670594 
L 49.527273 49.233594 
L 51.781818 48.971317 
L 54.036364 48.787209 
L 56.290909 48.600368 
L 58.545455 48.497319 
L 60.8 48.394271 
L 63.054545 48.291223 
L 65.309091 48.188175 
L 67.563636 48.085126 
L 69.818182 47.982078 
L 72.072727 47.901508 
L 74.327273 47.828168 
L 76.581818 47.702837 
L 78.836364 47.368895 
L 81.090909 47.257947 
L 83.345455 47.170705 
L 85.6 47.112584 
L 87.854545 47.073318 
L 90.109091 47.049537 
L 92.363636 46.937662 
L 94.618182 46.813405 
L 96.872727 46.712198 
L 99.127273 46.506228 
L 101.381818 46.427872 
L 103.636364 46.025772 
L 105.890909 45.849493 
L 108.145455 45.633214 
L 110.4 45.305478 
L 112.654545 45.191333 
L 114.909091 45.114856 
L 117.163636 44.974773 
L 119.418182 44.430247 
L 121.672727 44.226968 
L 123.927273 44.147812 
L 126.181818 44.089387 
L 128.436364 44.010631 
L 130.690909 43.739688 
L 132.945455 43.677809 
L 135.2 43.585235 
L 137.454545 43.441333 
L 139.709091 43.421757 
L 141.963636 43.282298 
L 144.218182 43.204536 
L 146.472727 43.193893 
L 148.727273 43.183251 
L 150.981818 43.156166 
L 153.236364 43.094076 
L 155.490909 43.043112 
L 157.745455 43.012448 
L 160 42.996397 
L 162.254545 42.981478 
L 164.509091 42.973272 
L 166.763636 42.965067 
L 169.018182 42.962109 
L 171.272727 42.962109 
L 173.527273 42.962109 
L 175.781818 42.962109 
L 178.036364 42.962109 
L 180.290909 42.962109 
L 182.545455 42.962109 
L 184.8 42.962109 
L 187.054545 42.962109 
L 189.309091 42.962109 
L 191.563636 42.962109 
L 193.818182 42.962109 
L 196.072727 42.962109 
L 198.327273 42.962109 
L 200.581818 42.962109 
L 202.836364 42.962109 
L 205.090909 42.962109 
L 207.345455 42.962109 
L 209.6 42.962109 
L 211.854545 42.962109 
L 214.109091 42.962109 
L 216.363636 42.962109 
L 218.618182 42.962109 
L 220.872727 42.962109 
L 223.127273 42.962109 
L 225.381818 42.962109 
L 227.636364 42.962109 
L 229.890909 42.962109 
L 232.145455 42.962109 
L 234.4 42.962109 
L 236.654545 42.962109 
L 238.909091 42.962109 
L 241.163636 42.962109 
L 243.418182 42.962109 
L 245.672727 42.962109 
L 247.927273 42.962109 
L 250.181818 42.962109 
L 252.436364 42.962109 
L 254.690909 42.962109 
L 256.945455 42.962109 
L 259.2 42.962109 
" style="fill:none;stroke:#daa520;stroke-linecap:square;stroke-width:1.5;"/>
   </g>
   <g id="line2d_12">
    <path clip-path="url(#p2d93971a85)" d="M 36 77.133913 
L 38.254545 74.630204 
L 40.509091 73.85486 
L 42.763636 72.853892 
L 45.018182 72.049952 
L 47.272727 71.023582 
L 49.527273 70.337917 
L 51.781818 68.739806 
L 54.036364 67.711141 
L 56.290909 66.432453 
L 58.545455 65.057168 
L 60.8 63.782239 
L 63.054545 62.199436 
L 65.309091 60.475813 
L 67.563636 58.574792 
L 69.818182 56.780525 
L 72.072727 54.579607 
L 74.327273 52.613869 
L 76.581818 50.362842 
L 78.836364 47.999006 
L 81.090909 46.371595 
L 83.345455 45.002968 
L 85.6 44.253666 
L 87.854545 43.626531 
L 90.109091 43.209678 
L 92.363636 42.935157 
L 94.618182 42.935157 
L 96.872727 42.935157 
L 99.127273 42.935157 
L 101.381818 42.935157 
L 103.636364 42.935157 
L 105.890909 42.935157 
L 108.145455 42.935157 
L 110.4 42.935157 
L 112.654545 42.935157 
L 114.909091 42.935157 
L 117.163636 42.935157 
L 119.418182 42.935157 
L 121.672727 42.935157 
L 123.927273 42.935157 
L 126.181818 42.935157 
L 128.436364 42.935157 
L 130.690909 42.935157 
L 132.945455 42.935157 
L 135.2 42.935157 
L 137.454545 42.935157 
L 139.709091 42.935157 
L 141.963636 42.935157 
L 144.218182 42.935157 
L 146.472727 42.935157 
L 148.727273 42.935157 
L 150.981818 42.935157 
L 153.236364 42.935157 
L 155.490909 42.935157 
L 157.745455 42.935157 
L 160 42.935157 
L 162.254545 42.935157 
L 164.509091 42.935157 
L 166.763636 42.935157 
L 169.018182 42.935157 
L 171.272727 42.935157 
L 173.527273 42.935157 
L 175.781818 42.935157 
L 178.036364 42.935157 
L 180.290909 42.935157 
L 182.545455 42.935157 
L 184.8 42.935157 
L 187.054545 42.935157 
L 189.309091 42.935157 
L 191.563636 42.935157 
L 193.818182 42.935157 
L 196.072727 42.935157 
L 198.327273 42.935157 
L 200.581818 42.935157 
L 202.836364 42.935157 
L 205.090909 42.935157 
L 207.345455 42.935157 
L 209.6 42.935157 
L 211.854545 42.935157 
L 214.109091 42.935157 
L 216.363636 42.935157 
L 218.618182 42.935157 
L 220.872727 42.935157 
L 223.127273 42.935157 
L 225.381818 42.935157 
L 227.636364 42.935157 
L 229.890909 42.935157 
L 232.145455 42.935157 
L 234.4 42.935157 
L 236.654545 42.935157 
L 238.909091 42.935157 
L 241.163636 42.935157 
L 243.418182 42.935157 
L 245.672727 42.935157 
L 247.927273 42.935157 
L 250.181818 42.935157 
L 252.436364 42.935157 
L 254.690909 42.935157 
L 256.945455 42.935157 
L 259.2 42.935157 
" style="fill:none;stroke:#00bfff;stroke-linecap:square;stroke-width:1.5;"/>
   </g>
   <g id="patch_3">
    <path d="M 36 77.133913 
L 36 34.56 
" style="fill:none;stroke:#000000;stroke-linecap:square;stroke-linejoin:miter;stroke-width:0.8;"/>
   </g>
   <g id="patch_4">
    <path d="M 259.2 77.133913 
L 259.2 34.56 
" style="fill:none;stroke:#000000;stroke-linecap:square;stroke-linejoin:miter;stroke-width:0.8;"/>
   </g>
   <g id="patch_5">
    <path d="M 36 77.133913 
L 259.2 77.133913 
" style="fill:none;stroke:#000000;stroke-linecap:square;stroke-linejoin:miter;stroke-width:0.8;"/>
   </g>
   <g id="patch_6">
    <path d="M 36 34.56 
L 259.2 34.56 
" style="fill:none;stroke:#000000;stroke-linecap:square;stroke-linejoin:miter;stroke-width:0.8;"/>
   </g>
   <g id="text_10">
    <!-- Census community -->
    <g transform="translate(104.490703 28.56)scale(0.09 -0.09)">
     <defs>
      <path d="M 64.40625 67.28125 
L 64.40625 56.890625 
Q 59.421875 61.53125 53.78125 63.8125 
Q 48.140625 66.109375 41.796875 66.109375 
Q 29.296875 66.109375 22.65625 58.46875 
Q 16.015625 50.828125 16.015625 36.375 
Q 16.015625 21.96875 22.65625 14.328125 
Q 29.296875 6.6875 41.796875 6.6875 
Q 48.140625 6.6875 53.78125 8.984375 
Q 59.421875 11.28125 64.40625 15.921875 
L 64.40625 5.609375 
Q 59.234375 2.09375 53.4375 0.328125 
Q 47.65625 -1.421875 41.21875 -1.421875 
Q 24.65625 -1.421875 15.125 8.703125 
Q 5.609375 18.84375 5.609375 36.375 
Q 5.609375 53.953125 15.125 64.078125 
Q 24.65625 74.21875 41.21875 74.21875 
Q 47.75 74.21875 53.53125 72.484375 
Q 59.328125 70.75 64.40625 67.28125 
z
" id="DejaVuSans-67"/>
      <path d="M 56.203125 29.59375 
L 56.203125 25.203125 
L 14.890625 25.203125 
Q 15.484375 15.921875 20.484375 11.0625 
Q 25.484375 6.203125 34.421875 6.203125 
Q 39.59375 6.203125 44.453125 7.46875 
Q 49.3125 8.734375 54.109375 11.28125 
L 54.109375 2.78125 
Q 49.265625 0.734375 44.1875 -0.34375 
Q 39.109375 -1.421875 33.890625 -1.421875 
Q 20.796875 -1.421875 13.15625 6.1875 
Q 5.515625 13.8125 5.515625 26.8125 
Q 5.515625 40.234375 12.765625 48.109375 
Q 20.015625 56 32.328125 56 
Q 43.359375 56 49.78125 48.890625 
Q 56.203125 41.796875 56.203125 29.59375 
z
M 47.21875 32.234375 
Q 47.125 39.59375 43.09375 43.984375 
Q 39.0625 48.390625 32.421875 48.390625 
Q 24.90625 48.390625 20.390625 44.140625 
Q 15.875 39.890625 15.1875 32.171875 
z
" id="DejaVuSans-101"/>
      <path d="M 54.890625 33.015625 
L 54.890625 0 
L 45.90625 0 
L 45.90625 32.71875 
Q 45.90625 40.484375 42.875 44.328125 
Q 39.84375 48.1875 33.796875 48.1875 
Q 26.515625 48.1875 22.3125 43.546875 
Q 18.109375 38.921875 18.109375 30.90625 
L 18.109375 0 
L 9.078125 0 
L 9.078125 54.6875 
L 18.109375 54.6875 
L 18.109375 46.1875 
Q 21.34375 51.125 25.703125 53.5625 
Q 30.078125 56 35.796875 56 
Q 45.21875 56 50.046875 50.171875 
Q 54.890625 44.34375 54.890625 33.015625 
z
" id="DejaVuSans-110"/>
      <path d="M 44.28125 53.078125 
L 44.28125 44.578125 
Q 40.484375 46.53125 36.375 47.5 
Q 32.28125 48.484375 27.875 48.484375 
Q 21.1875 48.484375 17.84375 46.4375 
Q 14.5 44.390625 14.5 40.28125 
Q 14.5 37.15625 16.890625 35.375 
Q 19.28125 33.59375 26.515625 31.984375 
L 29.59375 31.296875 
Q 39.15625 29.25 43.1875 25.515625 
Q 47.21875 21.78125 47.21875 15.09375 
Q 47.21875 7.46875 41.1875 3.015625 
Q 35.15625 -1.421875 24.609375 -1.421875 
Q 20.21875 -1.421875 15.453125 -0.5625 
Q 10.6875 0.296875 5.421875 2 
L 5.421875 11.28125 
Q 10.40625 8.6875 15.234375 7.390625 
Q 20.0625 6.109375 24.8125 6.109375 
Q 31.15625 6.109375 34.5625 8.28125 
Q 37.984375 10.453125 37.984375 14.40625 
Q 37.984375 18.0625 35.515625 20.015625 
Q 33.0625 21.96875 24.703125 23.78125 
L 21.578125 24.515625 
Q 13.234375 26.265625 9.515625 29.90625 
Q 5.8125 33.546875 5.8125 39.890625 
Q 5.8125 47.609375 11.28125 51.796875 
Q 16.75 56 26.8125 56 
Q 31.78125 56 36.171875 55.265625 
Q 40.578125 54.546875 44.28125 53.078125 
z
" id="DejaVuSans-115"/>
      <path d="M 8.5 21.578125 
L 8.5 54.6875 
L 17.484375 54.6875 
L 17.484375 21.921875 
Q 17.484375 14.15625 20.5 10.265625 
Q 23.53125 6.390625 29.59375 6.390625 
Q 36.859375 6.390625 41.078125 11.03125 
Q 45.3125 15.671875 45.3125 23.6875 
L 45.3125 54.6875 
L 54.296875 54.6875 
L 54.296875 0 
L 45.3125 0 
L 45.3125 8.40625 
Q 42.046875 3.421875 37.71875 1 
Q 33.40625 -1.421875 27.6875 -1.421875 
Q 18.265625 -1.421875 13.375 4.4375 
Q 8.5 10.296875 8.5 21.578125 
z
M 31.109375 56 
z
" id="DejaVuSans-117"/>
      <path id="DejaVuSans-32"/>
      <path d="M 48.78125 52.59375 
L 48.78125 44.1875 
Q 44.96875 46.296875 41.140625 47.34375 
Q 37.3125 48.390625 33.40625 48.390625 
Q 24.65625 48.390625 19.8125 42.84375 
Q 14.984375 37.3125 14.984375 27.296875 
Q 14.984375 17.28125 19.8125 11.734375 
Q 24.65625 6.203125 33.40625 6.203125 
Q 37.3125 6.203125 41.140625 7.25 
Q 44.96875 8.296875 48.78125 10.40625 
L 48.78125 2.09375 
Q 45.015625 0.34375 40.984375 -0.53125 
Q 36.96875 -1.421875 32.421875 -1.421875 
Q 20.0625 -1.421875 12.78125 6.34375 
Q 5.515625 14.109375 5.515625 27.296875 
Q 5.515625 40.671875 12.859375 48.328125 
Q 20.21875 56 33.015625 56 
Q 37.15625 56 41.109375 55.140625 
Q 45.0625 54.296875 48.78125 52.59375 
z
" id="DejaVuSans-99"/>
      <path d="M 30.609375 48.390625 
Q 23.390625 48.390625 19.1875 42.75 
Q 14.984375 37.109375 14.984375 27.296875 
Q 14.984375 17.484375 19.15625 11.84375 
Q 23.34375 6.203125 30.609375 6.203125 
Q 37.796875 6.203125 41.984375 11.859375 
Q 46.1875 17.53125 46.1875 27.296875 
Q 46.1875 37.015625 41.984375 42.703125 
Q 37.796875 48.390625 30.609375 48.390625 
z
M 30.609375 56 
Q 42.328125 56 49.015625 48.375 
Q 55.71875 40.765625 55.71875 27.296875 
Q 55.71875 13.875 49.015625 6.21875 
Q 42.328125 -1.421875 30.609375 -1.421875 
Q 18.84375 -1.421875 12.171875 6.21875 
Q 5.515625 13.875 5.515625 27.296875 
Q 5.515625 40.765625 12.171875 48.375 
Q 18.84375 56 30.609375 56 
z
" id="DejaVuSans-111"/>
      <path d="M 52 44.1875 
Q 55.375 50.25 60.0625 53.125 
Q 64.75 56 71.09375 56 
Q 79.640625 56 84.28125 50.015625 
Q 88.921875 44.046875 88.921875 33.015625 
L 88.921875 0 
L 79.890625 0 
L 79.890625 32.71875 
Q 79.890625 40.578125 77.09375 44.375 
Q 74.3125 48.1875 68.609375 48.1875 
Q 61.625 48.1875 57.5625 43.546875 
Q 53.515625 38.921875 53.515625 30.90625 
L 53.515625 0 
L 44.484375 0 
L 44.484375 32.71875 
Q 44.484375 40.625 41.703125 44.40625 
Q 38.921875 48.1875 33.109375 48.1875 
Q 26.21875 48.1875 22.15625 43.53125 
Q 18.109375 38.875 18.109375 30.90625 
L 18.109375 0 
L 9.078125 0 
L 9.078125 54.6875 
L 18.109375 54.6875 
L 18.109375 46.1875 
Q 21.1875 51.21875 25.484375 53.609375 
Q 29.78125 56 35.6875 56 
Q 41.65625 56 45.828125 52.96875 
Q 50 49.953125 52 44.1875 
z
" id="DejaVuSans-109"/>
      <path d="M 9.421875 54.6875 
L 18.40625 54.6875 
L 18.40625 0 
L 9.421875 0 
z
M 9.421875 75.984375 
L 18.40625 75.984375 
L 18.40625 64.59375 
L 9.421875 64.59375 
z
" id="DejaVuSans-105"/>
      <path d="M 18.3125 70.21875 
L 18.3125 54.6875 
L 36.8125 54.6875 
L 36.8125 47.703125 
L 18.3125 47.703125 
L 18.3125 18.015625 
Q 18.3125 11.328125 20.140625 9.421875 
Q 21.96875 7.515625 27.59375 7.515625 
L 36.8125 7.515625 
L 36.8125 0 
L 27.59375 0 
Q 17.1875 0 13.234375 3.875 
Q 9.28125 7.765625 9.28125 18.015625 
L 9.28125 47.703125 
L 2.6875 47.703125 
L 2.6875 54.6875 
L 9.28125 54.6875 
L 9.28125 70.21875 
z
" id="DejaVuSans-116"/>
      <path d="M 32.171875 -5.078125 
Q 28.375 -14.84375 24.75 -17.8125 
Q 21.140625 -20.796875 15.09375 -20.796875 
L 7.90625 -20.796875 
L 7.90625 -13.28125 
L 13.1875 -13.28125 
Q 16.890625 -13.28125 18.9375 -11.515625 
Q 21 -9.765625 23.484375 -3.21875 
L 25.09375 0.875 
L 2.984375 54.6875 
L 12.5 54.6875 
L 29.59375 11.921875 
L 46.6875 54.6875 
L 56.203125 54.6875 
z
" id="DejaVuSans-121"/>
     </defs>
     <use xlink:href="#DejaVuSans-67"/>
     <use x="69.824219" xlink:href="#DejaVuSans-101"/>
     <use x="131.347656" xlink:href="#DejaVuSans-110"/>
     <use x="194.726562" xlink:href="#DejaVuSans-115"/>
     <use x="246.826172" xlink:href="#DejaVuSans-117"/>
     <use x="310.205078" xlink:href="#DejaVuSans-115"/>
     <use x="362.304688" xlink:href="#DejaVuSans-32"/>
     <use x="394.091797" xlink:href="#DejaVuSans-99"/>
     <use x="449.072266" xlink:href="#DejaVuSans-111"/>
     <use x="510.253906" xlink:href="#DejaVuSans-109"/>
     <use x="607.666016" xlink:href="#DejaVuSans-109"/>
     <use x="705.078125" xlink:href="#DejaVuSans-117"/>
     <use x="768.457031" xlink:href="#DejaVuSans-110"/>
     <use x="831.835938" xlink:href="#DejaVuSans-105"/>
     <use x="859.619141" xlink:href="#DejaVuSans-116"/>
     <use x="898.828125" xlink:href="#DejaVuSans-121"/>
    </g>
   </g>
  </g>
  <g id="axes_2">
   <g id="patch_7">
    <path d="M 36 153.766957 
L 259.2 153.766957 
L 259.2 111.193043 
L 36 111.193043 
z
" style="fill:#ffffff;"/>
   </g>
   <g id="matplotlib.axis_3">
    <g id="xtick_7">
     <g id="line2d_13">
      <g>
       <use style="stroke:#000000;stroke-width:0.8;" x="36" xlink:href="#mc98188ea8b" y="153.766957"/>
      </g>
     </g>
     <g id="text_11">
      <!-- 0 -->
      <g transform="translate(32.81875 168.365394)scale(0.1 -0.1)">
       <use xlink:href="#DejaVuSans-48"/>
      </g>
     </g>
    </g>
    <g id="xtick_8">
     <g id="line2d_14">
      <g>
       <use style="stroke:#000000;stroke-width:0.8;" x="80.64" xlink:href="#mc98188ea8b" y="153.766957"/>
      </g>
     </g>
     <g id="text_12">
      <!-- 2 -->
      <g transform="translate(77.45875 168.365394)scale(0.1 -0.1)">
       <use xlink:href="#DejaVuSans-50"/>
      </g>
     </g>
    </g>
    <g id="xtick_9">
     <g id="line2d_15">
      <g>
       <use style="stroke:#000000;stroke-width:0.8;" x="125.28" xlink:href="#mc98188ea8b" y="153.766957"/>
      </g>
     </g>
     <g id="text_13">
      <!-- 4 -->
      <g transform="translate(122.09875 168.365394)scale(0.1 -0.1)">
       <use xlink:href="#DejaVuSans-52"/>
      </g>
     </g>
    </g>
    <g id="xtick_10">
     <g id="line2d_16">
      <g>
       <use style="stroke:#000000;stroke-width:0.8;" x="169.92" xlink:href="#mc98188ea8b" y="153.766957"/>
      </g>
     </g>
     <g id="text_14">
      <!-- 6 -->
      <g transform="translate(166.73875 168.365394)scale(0.1 -0.1)">
       <use xlink:href="#DejaVuSans-54"/>
      </g>
     </g>
    </g>
    <g id="xtick_11">
     <g id="line2d_17">
      <g>
       <use style="stroke:#000000;stroke-width:0.8;" x="214.56" xlink:href="#mc98188ea8b" y="153.766957"/>
      </g>
     </g>
     <g id="text_15">
      <!-- 8 -->
      <g transform="translate(211.37875 168.365394)scale(0.1 -0.1)">
       <use xlink:href="#DejaVuSans-56"/>
      </g>
     </g>
    </g>
    <g id="xtick_12">
     <g id="line2d_18">
      <g>
       <use style="stroke:#000000;stroke-width:0.8;" x="259.2" xlink:href="#mc98188ea8b" y="153.766957"/>
      </g>
     </g>
     <g id="text_16">
      <!-- 10 -->
      <g transform="translate(252.8375 168.365394)scale(0.1 -0.1)">
       <use xlink:href="#DejaVuSans-49"/>
       <use x="63.623047" xlink:href="#DejaVuSans-48"/>
      </g>
     </g>
    </g>
   </g>
   <g id="matplotlib.axis_4">
    <g id="ytick_4">
     <g id="line2d_19">
      <g>
       <use style="stroke:#000000;stroke-width:0.8;" x="36" xlink:href="#m6b10387529" y="153.766957"/>
      </g>
     </g>
     <g id="text_17">
      <!-- 0 -->
      <g transform="translate(22.6375 157.566175)scale(0.1 -0.1)">
       <use xlink:href="#DejaVuSans-48"/>
      </g>
     </g>
    </g>
    <g id="ytick_5">
     <g id="line2d_20">
      <g>
       <use style="stroke:#000000;stroke-width:0.8;" x="36" xlink:href="#m6b10387529" y="132.48"/>
      </g>
     </g>
     <g id="text_18">
      <!-- 20 -->
      <g transform="translate(16.275 136.279219)scale(0.1 -0.1)">
       <use xlink:href="#DejaVuSans-50"/>
       <use x="63.623047" xlink:href="#DejaVuSans-48"/>
      </g>
     </g>
    </g>
    <g id="ytick_6">
     <g id="line2d_21">
      <g>
       <use style="stroke:#000000;stroke-width:0.8;" x="36" xlink:href="#m6b10387529" y="111.193043"/>
      </g>
     </g>
     <g id="text_19">
      <!-- 40 -->
      <g transform="translate(16.275 114.992262)scale(0.1 -0.1)">
       <use xlink:href="#DejaVuSans-52"/>
       <use x="63.623047" xlink:href="#DejaVuSans-48"/>
      </g>
     </g>
    </g>
    <g id="text_20">
     <!-- Quality (%) -->
     <g transform="translate(10.195312 160.587812)rotate(-90)scale(0.1 -0.1)">
      <defs>
       <path d="M 39.40625 66.21875 
Q 28.65625 66.21875 22.328125 58.203125 
Q 16.015625 50.203125 16.015625 36.375 
Q 16.015625 22.609375 22.328125 14.59375 
Q 28.65625 6.59375 39.40625 6.59375 
Q 50.140625 6.59375 56.421875 14.59375 
Q 62.703125 22.609375 62.703125 36.375 
Q 62.703125 50.203125 56.421875 58.203125 
Q 50.140625 66.21875 39.40625 66.21875 
z
M 53.21875 1.3125 
L 66.21875 -12.890625 
L 54.296875 -12.890625 
L 43.5 -1.21875 
Q 41.890625 -1.3125 41.03125 -1.359375 
Q 40.1875 -1.421875 39.40625 -1.421875 
Q 24.03125 -1.421875 14.8125 8.859375 
Q 5.609375 19.140625 5.609375 36.375 
Q 5.609375 53.65625 14.8125 63.9375 
Q 24.03125 74.21875 39.40625 74.21875 
Q 54.734375 74.21875 63.90625 63.9375 
Q 73.09375 53.65625 73.09375 36.375 
Q 73.09375 23.6875 67.984375 14.640625 
Q 62.890625 5.609375 53.21875 1.3125 
z
" id="DejaVuSans-81"/>
       <path d="M 34.28125 27.484375 
Q 23.390625 27.484375 19.1875 25 
Q 14.984375 22.515625 14.984375 16.5 
Q 14.984375 11.71875 18.140625 8.90625 
Q 21.296875 6.109375 26.703125 6.109375 
Q 34.1875 6.109375 38.703125 11.40625 
Q 43.21875 16.703125 43.21875 25.484375 
L 43.21875 27.484375 
z
M 52.203125 31.203125 
L 52.203125 0 
L 43.21875 0 
L 43.21875 8.296875 
Q 40.140625 3.328125 35.546875 0.953125 
Q 30.953125 -1.421875 24.3125 -1.421875 
Q 15.921875 -1.421875 10.953125 3.296875 
Q 6 8.015625 6 15.921875 
Q 6 25.140625 12.171875 29.828125 
Q 18.359375 34.515625 30.609375 34.515625 
L 43.21875 34.515625 
L 43.21875 35.40625 
Q 43.21875 41.609375 39.140625 45 
Q 35.0625 48.390625 27.6875 48.390625 
Q 23 48.390625 18.546875 47.265625 
Q 14.109375 46.140625 10.015625 43.890625 
L 10.015625 52.203125 
Q 14.9375 54.109375 19.578125 55.046875 
Q 24.21875 56 28.609375 56 
Q 40.484375 56 46.34375 49.84375 
Q 52.203125 43.703125 52.203125 31.203125 
z
" id="DejaVuSans-97"/>
       <path d="M 9.421875 75.984375 
L 18.40625 75.984375 
L 18.40625 0 
L 9.421875 0 
z
" id="DejaVuSans-108"/>
       <path d="M 31 75.875 
Q 24.46875 64.65625 21.28125 53.65625 
Q 18.109375 42.671875 18.109375 31.390625 
Q 18.109375 20.125 21.3125 9.0625 
Q 24.515625 -2 31 -13.1875 
L 23.1875 -13.1875 
Q 15.875 -1.703125 12.234375 9.375 
Q 8.59375 20.453125 8.59375 31.390625 
Q 8.59375 42.28125 12.203125 53.3125 
Q 15.828125 64.359375 23.1875 75.875 
z
" id="DejaVuSans-40"/>
       <path d="M 72.703125 32.078125 
Q 68.453125 32.078125 66.03125 28.46875 
Q 63.625 24.859375 63.625 18.40625 
Q 63.625 12.0625 66.03125 8.421875 
Q 68.453125 4.78125 72.703125 4.78125 
Q 76.859375 4.78125 79.265625 8.421875 
Q 81.6875 12.0625 81.6875 18.40625 
Q 81.6875 24.8125 79.265625 28.4375 
Q 76.859375 32.078125 72.703125 32.078125 
z
M 72.703125 38.28125 
Q 80.421875 38.28125 84.953125 32.90625 
Q 89.5 27.546875 89.5 18.40625 
Q 89.5 9.28125 84.9375 3.921875 
Q 80.375 -1.421875 72.703125 -1.421875 
Q 64.890625 -1.421875 60.34375 3.921875 
Q 55.8125 9.28125 55.8125 18.40625 
Q 55.8125 27.59375 60.375 32.9375 
Q 64.9375 38.28125 72.703125 38.28125 
z
M 22.3125 68.015625 
Q 18.109375 68.015625 15.6875 64.375 
Q 13.28125 60.75 13.28125 54.390625 
Q 13.28125 47.953125 15.671875 44.328125 
Q 18.0625 40.71875 22.3125 40.71875 
Q 26.5625 40.71875 28.96875 44.328125 
Q 31.390625 47.953125 31.390625 54.390625 
Q 31.390625 60.6875 28.953125 64.34375 
Q 26.515625 68.015625 22.3125 68.015625 
z
M 66.40625 74.21875 
L 74.21875 74.21875 
L 28.609375 -1.421875 
L 20.796875 -1.421875 
z
M 22.3125 74.21875 
Q 30.03125 74.21875 34.609375 68.875 
Q 39.203125 63.53125 39.203125 54.390625 
Q 39.203125 45.171875 34.640625 39.84375 
Q 30.078125 34.515625 22.3125 34.515625 
Q 14.546875 34.515625 10.03125 39.859375 
Q 5.515625 45.21875 5.515625 54.390625 
Q 5.515625 63.484375 10.046875 68.84375 
Q 14.59375 74.21875 22.3125 74.21875 
z
" id="DejaVuSans-37"/>
       <path d="M 8.015625 75.875 
L 15.828125 75.875 
Q 23.140625 64.359375 26.78125 53.3125 
Q 30.421875 42.28125 30.421875 31.390625 
Q 30.421875 20.453125 26.78125 9.375 
Q 23.140625 -1.703125 15.828125 -13.1875 
L 8.015625 -13.1875 
Q 14.5 -2 17.703125 9.0625 
Q 20.90625 20.125 20.90625 31.390625 
Q 20.90625 42.671875 17.703125 53.65625 
Q 14.5 64.65625 8.015625 75.875 
z
" id="DejaVuSans-41"/>
      </defs>
      <use xlink:href="#DejaVuSans-81"/>
      <use x="78.710938" xlink:href="#DejaVuSans-117"/>
      <use x="142.089844" xlink:href="#DejaVuSans-97"/>
      <use x="203.369141" xlink:href="#DejaVuSans-108"/>
      <use x="231.152344" xlink:href="#DejaVuSans-105"/>
      <use x="258.935547" xlink:href="#DejaVuSans-116"/>
      <use x="298.144531" xlink:href="#DejaVuSans-121"/>
      <use x="357.324219" xlink:href="#DejaVuSans-32"/>
      <use x="389.111328" xlink:href="#DejaVuSans-40"/>
      <use x="428.125" xlink:href="#DejaVuSans-37"/>
      <use x="523.144531" xlink:href="#DejaVuSans-41"/>
     </g>
    </g>
   </g>
   <g id="line2d_22">
    <path clip-path="url(#p9b9dcade85)" d="M 36 153.766957 
L 38.254545 153.697478 
L 40.509091 153.263939 
L 42.763636 152.653063 
L 45.018182 152.157063 
L 47.272727 151.783043 
L 49.527273 151.529238 
L 51.781818 151.376118 
L 54.036364 150.935422 
L 56.290909 150.68048 
L 58.545455 150.641858 
L 60.8 150.481895 
L 63.054545 150.301849 
L 65.309091 150.233402 
L 67.563636 150.193564 
L 69.818182 149.891484 
L 72.072727 149.745048 
L 74.327273 149.691248 
L 76.581818 149.642385 
L 78.836364 149.44909 
L 81.090909 149.288701 
L 83.345455 149.155826 
L 85.6 148.892202 
L 87.854545 148.759227 
L 90.109091 148.634806 
L 92.363636 148.546582 
L 94.618182 148.514279 
L 96.872727 148.332378 
L 99.127273 148.183111 
L 101.381818 148.030607 
L 103.636364 147.893653 
L 105.890909 147.785521 
L 108.145455 145.122277 
L 110.4 140.693826 
L 112.654545 129.013241 
L 114.909091 124.14225 
L 117.163636 120.345705 
L 119.418182 120.054046 
L 121.672727 119.867152 
L 123.927273 119.867152 
L 126.181818 119.867152 
L 128.436364 119.867152 
L 130.690909 119.867152 
L 132.945455 119.867152 
L 135.2 119.867152 
L 137.454545 119.867152 
L 139.709091 119.867152 
L 141.963636 119.867152 
L 144.218182 119.867152 
L 146.472727 119.867152 
L 148.727273 119.867152 
L 150.981818 119.867152 
L 153.236364 119.867152 
L 155.490909 119.867152 
L 157.745455 119.867152 
L 160 119.867152 
L 162.254545 119.867152 
L 164.509091 119.867152 
L 166.763636 119.867152 
L 169.018182 119.867152 
L 171.272727 119.867152 
L 173.527273 119.867152 
L 175.781818 119.867152 
L 178.036364 119.867152 
L 180.290909 119.867152 
L 182.545455 119.867152 
L 184.8 119.867152 
L 187.054545 119.867152 
L 189.309091 119.867152 
L 191.563636 119.867152 
L 193.818182 119.867152 
L 196.072727 119.867152 
L 198.327273 119.867152 
L 200.581818 119.867152 
L 202.836364 119.867152 
L 205.090909 119.867152 
L 207.345455 119.867152 
L 209.6 119.867152 
L 211.854545 119.867152 
L 214.109091 119.867152 
L 216.363636 119.867152 
L 218.618182 119.867152 
L 220.872727 119.867152 
L 223.127273 119.867152 
L 225.381818 119.867152 
L 227.636364 119.867152 
L 229.890909 119.867152 
L 232.145455 119.867152 
L 234.4 119.867152 
L 236.654545 119.867152 
L 238.909091 119.867152 
L 241.163636 119.867152 
L 243.418182 119.867152 
L 245.672727 119.867152 
L 247.927273 119.867152 
L 250.181818 119.867152 
L 252.436364 119.867152 
L 254.690909 119.867152 
L 256.945455 119.867152 
L 259.2 119.867152 
" style="fill:none;stroke:#da70d6;stroke-linecap:square;stroke-width:1.5;"/>
   </g>
   <g id="line2d_23">
    <path clip-path="url(#p9b9dcade85)" d="M 36 153.766957 
L 38.254545 148.561889 
L 40.509091 143.391924 
L 42.763636 139.159548 
L 45.018182 133.826631 
L 47.272727 130.61676 
L 49.527273 129.888222 
L 51.781818 129.121055 
L 54.036364 128.601017 
L 56.290909 128.34399 
L 58.545455 127.576316 
L 60.8 127.378803 
L 63.054545 127.256078 
L 65.309091 127.056549 
L 67.563636 126.732436 
L 69.818182 126.378744 
L 72.072727 125.808242 
L 74.327273 125.611281 
L 76.581818 125.414321 
L 78.836364 125.147522 
L 81.090909 124.772956 
L 83.345455 124.674947 
L 85.6 124.261158 
L 87.854545 123.809105 
L 90.109091 123.549372 
L 92.363636 123.2105 
L 94.618182 122.624294 
L 96.872727 122.365693 
L 99.127273 121.892597 
L 101.381818 121.665462 
L 103.636364 121.420462 
L 105.890909 121.255381 
L 108.145455 120.952696 
L 110.4 120.784364 
L 112.654545 120.288493 
L 114.909091 120.023896 
L 117.163636 119.751139 
L 119.418182 119.544641 
L 121.672727 119.403774 
L 123.927273 119.268653 
L 126.181818 119.195393 
L 128.436364 119.122133 
L 130.690909 119.039003 
L 132.945455 118.807088 
L 135.2 118.573323 
L 137.454545 118.45195 
L 139.709091 118.325405 
L 141.963636 118.267507 
L 144.218182 118.243455 
L 146.472727 118.148306 
L 148.727273 118.134193 
L 150.981818 118.110835 
L 153.236364 118.086535 
L 155.490909 118.062233 
L 157.745455 118.016262 
L 160 117.949381 
L 162.254545 117.872262 
L 164.509091 117.835368 
L 166.763636 117.798502 
L 169.018182 117.761637 
L 171.272727 117.749414 
L 173.527273 117.745986 
L 175.781818 117.712213 
L 178.036364 117.702144 
L 180.290909 117.698509 
L 182.545455 117.694874 
L 184.8 117.691239 
L 187.054545 117.687605 
L 189.309091 117.68397 
L 191.563636 117.680335 
L 193.818182 117.6767 
L 196.072727 117.673066 
L 198.327273 117.669431 
L 200.581818 117.666484 
L 202.836364 117.664274 
L 205.090909 117.662065 
L 207.345455 117.657544 
L 209.6 117.654141 
L 211.854545 117.651728 
L 214.109091 117.649315 
L 216.363636 117.646313 
L 218.618182 117.641498 
L 220.872727 117.636684 
L 223.127273 117.63187 
L 225.381818 117.627055 
L 227.636364 117.622241 
L 229.890909 117.617427 
L 232.145455 117.612613 
L 234.4 117.607798 
L 236.654545 117.604646 
L 238.909091 117.602233 
L 241.163636 117.59982 
L 243.418182 117.59891 
L 245.672727 117.59891 
L 247.927273 117.59891 
L 250.181818 117.59891 
L 252.436364 117.59891 
L 254.690909 117.59891 
L 256.945455 117.59891 
L 259.2 117.59891 
" style="fill:none;stroke:#daa520;stroke-linecap:square;stroke-width:1.5;"/>
   </g>
   <g id="line2d_24">
    <path clip-path="url(#p9b9dcade85)" d="M 36 153.766957 
L 38.254545 146.169842 
L 40.509091 137.691275 
L 42.763636 130.257652 
L 45.018182 125.864787 
L 47.272727 124.449692 
L 49.527273 123.656461 
L 51.781818 123.129197 
L 54.036364 122.696528 
L 56.290909 122.519391 
L 58.545455 122.342253 
L 60.8 122.165116 
L 63.054545 121.987979 
L 65.309091 121.810842 
L 67.563636 121.680962 
L 69.818182 121.578632 
L 72.072727 121.476303 
L 74.327273 121.373974 
L 76.581818 121.271644 
L 78.836364 121.169315 
L 81.090909 121.066985 
L 83.345455 120.917294 
L 85.6 120.7543 
L 87.854545 120.591307 
L 90.109091 120.428314 
L 92.363636 120.26903 
L 94.618182 120.2036 
L 96.872727 120.185461 
L 99.127273 120.167321 
L 101.381818 120.149182 
L 103.636364 120.131042 
L 105.890909 120.112903 
L 108.145455 120.094763 
L 110.4 120.076624 
L 112.654545 120.058484 
L 114.909091 120.040345 
L 117.163636 120.022206 
L 119.418182 120.004066 
L 121.672727 119.988141 
L 123.927273 119.983043 
L 126.181818 119.980628 
L 128.436364 119.980628 
L 130.690909 119.980628 
L 132.945455 119.980628 
L 135.2 119.980628 
L 137.454545 119.980628 
L 139.709091 119.980628 
L 141.963636 119.980628 
L 144.218182 119.980628 
L 146.472727 119.980628 
L 148.727273 119.980628 
L 150.981818 119.980628 
L 153.236364 119.980628 
L 155.490909 119.980628 
L 157.745455 119.980628 
L 160 119.980628 
L 162.254545 119.980628 
L 164.509091 119.980628 
L 166.763636 119.980628 
L 169.018182 119.980628 
L 171.272727 119.980628 
L 173.527273 119.980628 
L 175.781818 119.980628 
L 178.036364 119.980628 
L 180.290909 119.980628 
L 182.545455 119.980628 
L 184.8 119.980628 
L 187.054545 119.980628 
L 189.309091 119.980628 
L 191.563636 119.980628 
L 193.818182 119.980628 
L 196.072727 119.980628 
L 198.327273 119.980628 
L 200.581818 119.980628 
L 202.836364 119.980628 
L 205.090909 119.980628 
L 207.345455 119.980628 
L 209.6 119.980628 
L 211.854545 119.980628 
L 214.109091 119.980628 
L 216.363636 119.980628 
L 218.618182 119.980628 
L 220.872727 119.980628 
L 223.127273 119.980628 
L 225.381818 119.980628 
L 227.636364 119.980628 
L 229.890909 119.980628 
L 232.145455 119.980628 
L 234.4 119.980628 
L 236.654545 119.980628 
L 238.909091 119.980628 
L 241.163636 119.980628 
L 243.418182 119.980628 
L 245.672727 119.980628 
L 247.927273 119.980628 
L 250.181818 119.980628 
L 252.436364 119.980628 
L 254.690909 119.980628 
L 256.945455 119.980628 
L 259.2 119.980628 
" style="fill:none;stroke:#00bfff;stroke-linecap:square;stroke-width:1.5;"/>
   </g>
   <g id="patch_8">
    <path d="M 36 153.766957 
L 36 111.193043 
" style="fill:none;stroke:#000000;stroke-linecap:square;stroke-linejoin:miter;stroke-width:0.8;"/>
   </g>
   <g id="patch_9">
    <path d="M 259.2 153.766957 
L 259.2 111.193043 
" style="fill:none;stroke:#000000;stroke-linecap:square;stroke-linejoin:miter;stroke-width:0.8;"/>
   </g>
   <g id="patch_10">
    <path d="M 36 153.766957 
L 259.2 153.766957 
" style="fill:none;stroke:#000000;stroke-linecap:square;stroke-linejoin:miter;stroke-width:0.8;"/>
   </g>
   <g id="patch_11">
    <path d="M 36 111.193043 
L 259.2 111.193043 
" style="fill:none;stroke:#000000;stroke-linecap:square;stroke-linejoin:miter;stroke-width:0.8;"/>
   </g>
   <g id="text_21">
    <!-- Credit card -->
    <g transform="translate(122.778984 105.193043)scale(0.09 -0.09)">
     <defs>
      <path d="M 41.109375 46.296875 
Q 39.59375 47.171875 37.8125 47.578125 
Q 36.03125 48 33.890625 48 
Q 26.265625 48 22.1875 43.046875 
Q 18.109375 38.09375 18.109375 28.8125 
L 18.109375 0 
L 9.078125 0 
L 9.078125 54.6875 
L 18.109375 54.6875 
L 18.109375 46.1875 
Q 20.953125 51.171875 25.484375 53.578125 
Q 30.03125 56 36.53125 56 
Q 37.453125 56 38.578125 55.875 
Q 39.703125 55.765625 41.0625 55.515625 
z
" id="DejaVuSans-114"/>
      <path d="M 45.40625 46.390625 
L 45.40625 75.984375 
L 54.390625 75.984375 
L 54.390625 0 
L 45.40625 0 
L 45.40625 8.203125 
Q 42.578125 3.328125 38.25 0.953125 
Q 33.9375 -1.421875 27.875 -1.421875 
Q 17.96875 -1.421875 11.734375 6.484375 
Q 5.515625 14.40625 5.515625 27.296875 
Q 5.515625 40.1875 11.734375 48.09375 
Q 17.96875 56 27.875 56 
Q 33.9375 56 38.25 53.625 
Q 42.578125 51.265625 45.40625 46.390625 
z
M 14.796875 27.296875 
Q 14.796875 17.390625 18.875 11.75 
Q 22.953125 6.109375 30.078125 6.109375 
Q 37.203125 6.109375 41.296875 11.75 
Q 45.40625 17.390625 45.40625 27.296875 
Q 45.40625 37.203125 41.296875 42.84375 
Q 37.203125 48.484375 30.078125 48.484375 
Q 22.953125 48.484375 18.875 42.84375 
Q 14.796875 37.203125 14.796875 27.296875 
z
" id="DejaVuSans-100"/>
     </defs>
     <use xlink:href="#DejaVuSans-67"/>
     <use x="69.824219" xlink:href="#DejaVuSans-114"/>
     <use x="108.6875" xlink:href="#DejaVuSans-101"/>
     <use x="170.210938" xlink:href="#DejaVuSans-100"/>
     <use x="233.6875" xlink:href="#DejaVuSans-105"/>
     <use x="261.470703" xlink:href="#DejaVuSans-116"/>
     <use x="300.679688" xlink:href="#DejaVuSans-32"/>
     <use x="332.466797" xlink:href="#DejaVuSans-99"/>
     <use x="387.447266" xlink:href="#DejaVuSans-97"/>
     <use x="448.726562" xlink:href="#DejaVuSans-114"/>
     <use x="488.089844" xlink:href="#DejaVuSans-100"/>
    </g>
   </g>
  </g>
  <g id="axes_3">
   <g id="patch_12">
    <path d="M 36 230.4 
L 259.2 230.4 
L 259.2 187.826087 
L 36 187.826087 
z
" style="fill:#ffffff;"/>
   </g>
   <g id="matplotlib.axis_5">
    <g id="xtick_13">
     <g id="line2d_25">
      <g>
       <use style="stroke:#000000;stroke-width:0.8;" x="36" xlink:href="#mc98188ea8b" y="230.4"/>
      </g>
     </g>
     <g id="text_22">
      <!-- 0 -->
      <g transform="translate(32.81875 244.998438)scale(0.1 -0.1)">
       <use xlink:href="#DejaVuSans-48"/>
      </g>
     </g>
    </g>
    <g id="xtick_14">
     <g id="line2d_26">
      <g>
       <use style="stroke:#000000;stroke-width:0.8;" x="80.64" xlink:href="#mc98188ea8b" y="230.4"/>
      </g>
     </g>
     <g id="text_23">
      <!-- 2 -->
      <g transform="translate(77.45875 244.998438)scale(0.1 -0.1)">
       <use xlink:href="#DejaVuSans-50"/>
      </g>
     </g>
    </g>
    <g id="xtick_15">
     <g id="line2d_27">
      <g>
       <use style="stroke:#000000;stroke-width:0.8;" x="125.28" xlink:href="#mc98188ea8b" y="230.4"/>
      </g>
     </g>
     <g id="text_24">
      <!-- 4 -->
      <g transform="translate(122.09875 244.998438)scale(0.1 -0.1)">
       <use xlink:href="#DejaVuSans-52"/>
      </g>
     </g>
    </g>
    <g id="xtick_16">
     <g id="line2d_28">
      <g>
       <use style="stroke:#000000;stroke-width:0.8;" x="169.92" xlink:href="#mc98188ea8b" y="230.4"/>
      </g>
     </g>
     <g id="text_25">
      <!-- 6 -->
      <g transform="translate(166.73875 244.998438)scale(0.1 -0.1)">
       <use xlink:href="#DejaVuSans-54"/>
      </g>
     </g>
    </g>
    <g id="xtick_17">
     <g id="line2d_29">
      <g>
       <use style="stroke:#000000;stroke-width:0.8;" x="214.56" xlink:href="#mc98188ea8b" y="230.4"/>
      </g>
     </g>
     <g id="text_26">
      <!-- 8 -->
      <g transform="translate(211.37875 244.998438)scale(0.1 -0.1)">
       <use xlink:href="#DejaVuSans-56"/>
      </g>
     </g>
    </g>
    <g id="xtick_18">
     <g id="line2d_30">
      <g>
       <use style="stroke:#000000;stroke-width:0.8;" x="259.2" xlink:href="#mc98188ea8b" y="230.4"/>
      </g>
     </g>
     <g id="text_27">
      <!-- 10 -->
      <g transform="translate(252.8375 244.998438)scale(0.1 -0.1)">
       <use xlink:href="#DejaVuSans-49"/>
       <use x="63.623047" xlink:href="#DejaVuSans-48"/>
      </g>
     </g>
    </g>
    <g id="text_28">
     <!-- Time (s) -->
     <g transform="translate(127.271094 258.676563)scale(0.1 -0.1)">
      <defs>
       <path d="M -0.296875 72.90625 
L 61.375 72.90625 
L 61.375 64.59375 
L 35.5 64.59375 
L 35.5 0 
L 25.59375 0 
L 25.59375 64.59375 
L -0.296875 64.59375 
z
" id="DejaVuSans-84"/>
      </defs>
      <use xlink:href="#DejaVuSans-84"/>
      <use x="57.958984" xlink:href="#DejaVuSans-105"/>
      <use x="85.742188" xlink:href="#DejaVuSans-109"/>
      <use x="183.154297" xlink:href="#DejaVuSans-101"/>
      <use x="244.677734" xlink:href="#DejaVuSans-32"/>
      <use x="276.464844" xlink:href="#DejaVuSans-40"/>
      <use x="315.478516" xlink:href="#DejaVuSans-115"/>
      <use x="367.578125" xlink:href="#DejaVuSans-41"/>
     </g>
    </g>
   </g>
   <g id="matplotlib.axis_6">
    <g id="ytick_7">
     <g id="line2d_31">
      <g>
       <use style="stroke:#000000;stroke-width:0.8;" x="36" xlink:href="#m6b10387529" y="230.4"/>
      </g>
     </g>
     <g id="text_29">
      <!-- 0 -->
      <g transform="translate(22.6375 234.199219)scale(0.1 -0.1)">
       <use xlink:href="#DejaVuSans-48"/>
      </g>
     </g>
    </g>
    <g id="ytick_8">
     <g id="line2d_32">
      <g>
       <use style="stroke:#000000;stroke-width:0.8;" x="36" xlink:href="#m6b10387529" y="209.113043"/>
      </g>
     </g>
     <g id="text_30">
      <!-- 30 -->
      <g transform="translate(16.275 212.912262)scale(0.1 -0.1)">
       <defs>
        <path d="M 40.578125 39.3125 
Q 47.65625 37.796875 51.625 33 
Q 55.609375 28.21875 55.609375 21.1875 
Q 55.609375 10.40625 48.1875 4.484375 
Q 40.765625 -1.421875 27.09375 -1.421875 
Q 22.515625 -1.421875 17.65625 -0.515625 
Q 12.796875 0.390625 7.625 2.203125 
L 7.625 11.71875 
Q 11.71875 9.328125 16.59375 8.109375 
Q 21.484375 6.890625 26.8125 6.890625 
Q 36.078125 6.890625 40.9375 10.546875 
Q 45.796875 14.203125 45.796875 21.1875 
Q 45.796875 27.640625 41.28125 31.265625 
Q 36.765625 34.90625 28.71875 34.90625 
L 20.21875 34.90625 
L 20.21875 43.015625 
L 29.109375 43.015625 
Q 36.375 43.015625 40.234375 45.921875 
Q 44.09375 48.828125 44.09375 54.296875 
Q 44.09375 59.90625 40.109375 62.90625 
Q 36.140625 65.921875 28.71875 65.921875 
Q 24.65625 65.921875 20.015625 65.03125 
Q 15.375 64.15625 9.8125 62.3125 
L 9.8125 71.09375 
Q 15.4375 72.65625 20.34375 73.4375 
Q 25.25 74.21875 29.59375 74.21875 
Q 40.828125 74.21875 47.359375 69.109375 
Q 53.90625 64.015625 53.90625 55.328125 
Q 53.90625 49.265625 50.4375 45.09375 
Q 46.96875 40.921875 40.578125 39.3125 
z
" id="DejaVuSans-51"/>
       </defs>
       <use xlink:href="#DejaVuSans-51"/>
       <use x="63.623047" xlink:href="#DejaVuSans-48"/>
      </g>
     </g>
    </g>
    <g id="ytick_9">
     <g id="line2d_33">
      <g>
       <use style="stroke:#000000;stroke-width:0.8;" x="36" xlink:href="#m6b10387529" y="187.826087"/>
      </g>
     </g>
     <g id="text_31">
      <!-- 60 -->
      <g transform="translate(16.275 191.625306)scale(0.1 -0.1)">
       <use xlink:href="#DejaVuSans-54"/>
       <use x="63.623047" xlink:href="#DejaVuSans-48"/>
      </g>
     </g>
    </g>
   </g>
   <g id="line2d_34">
    <path clip-path="url(#p27201390e8)" d="M 36 230.4 
L 38.254545 229.90924 
L 40.509091 229.806874 
L 42.763636 229.662312 
L 45.018182 229.598168 
L 47.272727 229.46402 
L 49.527273 229.353491 
L 51.781818 229.275247 
L 54.036364 229.107229 
L 56.290909 228.879519 
L 58.545455 228.718363 
L 60.8 228.565421 
L 63.054545 228.296348 
L 65.309091 227.979862 
L 67.563636 227.520981 
L 69.818182 227.082631 
L 72.072727 226.321596 
L 74.327273 225.557743 
L 76.581818 224.749859 
L 78.836364 223.636236 
L 81.090909 222.225184 
L 83.345455 220.408645 
L 85.6 217.586076 
L 87.854545 212.943118 
L 90.109091 208.165364 
L 92.363636 203.41996 
L 94.618182 201.253923 
L 96.872727 199.826507 
L 99.127273 199.201279 
L 101.381818 199.186807 
L 103.636364 199.172334 
L 105.890909 199.157862 
L 108.145455 199.143389 
L 110.4 199.128917 
L 112.654545 199.114445 
L 114.909091 199.099972 
L 117.163636 199.0855 
L 119.418182 199.071028 
L 121.672727 199.056555 
L 123.927273 199.042083 
L 126.181818 199.027611 
L 128.436364 199.013138 
L 130.690909 198.998666 
L 132.945455 198.984193 
L 135.2 198.969721 
L 137.454545 198.955249 
L 139.709091 198.940776 
L 141.963636 198.926304 
L 144.218182 198.911832 
L 146.472727 198.897359 
L 148.727273 198.882887 
L 150.981818 198.868415 
L 153.236364 198.853942 
L 155.490909 198.83947 
L 157.745455 198.824997 
L 160 198.810525 
L 162.254545 198.796053 
L 164.509091 198.78158 
L 166.763636 198.767108 
L 169.018182 198.752636 
L 171.272727 198.738163 
L 173.527273 198.72428 
L 175.781818 198.716576 
L 178.036364 198.711113 
L 180.290909 198.70565 
L 182.545455 198.700187 
L 184.8 198.694724 
L 187.054545 198.690785 
L 189.309091 198.690097 
L 191.563636 198.690097 
L 193.818182 198.690097 
L 196.072727 198.690097 
L 198.327273 198.690097 
L 200.581818 198.690097 
L 202.836364 198.690097 
L 205.090909 198.690097 
L 207.345455 198.690097 
L 209.6 198.690097 
L 211.854545 198.690097 
L 214.109091 198.690097 
L 216.363636 198.690097 
L 218.618182 198.690097 
L 220.872727 198.690097 
L 223.127273 198.690097 
L 225.381818 198.690097 
L 227.636364 198.690097 
L 229.890909 198.690097 
L 232.145455 198.690097 
L 234.4 198.690097 
L 236.654545 198.690097 
L 238.909091 198.690097 
L 241.163636 198.690097 
L 243.418182 198.690097 
L 245.672727 198.690097 
L 247.927273 198.690097 
L 250.181818 198.690097 
L 252.436364 198.690097 
L 254.690909 198.690097 
L 256.945455 198.690097 
L 259.2 198.690097 
" style="fill:none;stroke:#da70d6;stroke-linecap:square;stroke-width:1.5;"/>
   </g>
   <g id="line2d_35">
    <path clip-path="url(#p27201390e8)" d="M 36 230.4 
L 38.254545 207.010809 
L 40.509091 204.597008 
L 42.763636 203.705307 
L 45.018182 203.215141 
L 47.272727 202.722913 
L 49.527273 202.434578 
L 51.781818 202.263927 
L 54.036364 202.093276 
L 56.290909 201.922625 
L 58.545455 201.52377 
L 60.8 201.106691 
L 63.054545 200.72877 
L 65.309091 200.418628 
L 67.563636 200.324516 
L 69.818182 200.203127 
L 72.072727 199.985047 
L 74.327273 199.800352 
L 76.581818 199.690323 
L 78.836364 199.55431 
L 81.090909 199.314762 
L 83.345455 199.101369 
L 85.6 198.816548 
L 87.854545 198.657444 
L 90.109091 198.610934 
L 92.363636 198.56284 
L 94.618182 198.471032 
L 96.872727 198.375017 
L 99.127273 198.289428 
L 101.381818 198.259355 
L 103.636364 198.232815 
L 105.890909 198.206275 
L 108.145455 198.180449 
L 110.4 198.160273 
L 112.654545 198.140097 
L 114.909091 198.119921 
L 117.163636 198.099745 
L 119.418182 198.079569 
L 121.672727 198.063997 
L 123.927273 198.049269 
L 126.181818 198.0356 
L 128.436364 198.001951 
L 130.690909 197.965101 
L 132.945455 197.92825 
L 135.2 197.888623 
L 137.454545 197.850281 
L 139.709091 197.819703 
L 141.963636 197.785865 
L 144.218182 197.76931 
L 146.472727 197.76476 
L 148.727273 197.763234 
L 150.981818 197.761709 
L 153.236364 197.760184 
L 155.490909 197.758659 
L 157.745455 197.757134 
L 160 197.755609 
L 162.254545 197.754084 
L 164.509091 197.752559 
L 166.763636 197.751034 
L 169.018182 197.749508 
L 171.272727 197.747983 
L 173.527273 197.746458 
L 175.781818 197.745344 
L 178.036364 197.74458 
L 180.290909 197.743815 
L 182.545455 197.743051 
L 184.8 197.742512 
L 187.054545 197.742014 
L 189.309091 197.741516 
L 191.563636 197.741018 
L 193.818182 197.74052 
L 196.072727 197.740021 
L 198.327273 197.739523 
L 200.581818 197.739025 
L 202.836364 197.738527 
L 205.090909 197.738029 
L 207.345455 197.737531 
L 209.6 197.737033 
L 211.854545 197.736535 
L 214.109091 197.736037 
L 216.363636 197.735427 
L 218.618182 197.734744 
L 220.872727 197.734061 
L 223.127273 197.729286 
L 225.381818 197.72218 
L 227.636364 197.716772 
L 229.890909 197.716058 
L 232.145455 197.715258 
L 234.4 197.714131 
L 236.654545 197.713004 
L 238.909091 197.711877 
L 241.163636 197.71075 
L 243.418182 197.709624 
L 245.672727 197.708497 
L 247.927273 197.70737 
L 250.181818 197.706243 
L 252.436364 197.705116 
L 254.690909 197.704826 
L 256.945455 197.704826 
L 259.2 197.704826 
" style="fill:none;stroke:#daa520;stroke-linecap:square;stroke-width:1.5;"/>
   </g>
   <g id="line2d_36">
    <path clip-path="url(#p27201390e8)" d="M 36 230.4 
L 38.254545 222.367591 
L 40.509091 214.311138 
L 42.763636 207.865169 
L 45.018182 201.67102 
L 47.272727 199.906497 
L 49.527273 198.845304 
L 51.781818 198.370869 
L 54.036364 198.370869 
L 56.290909 198.370869 
L 58.545455 198.370869 
L 60.8 198.370869 
L 63.054545 198.370869 
L 65.309091 198.370869 
L 67.563636 198.370869 
L 69.818182 198.370869 
L 72.072727 198.370869 
L 74.327273 198.370869 
L 76.581818 198.370869 
L 78.836364 198.370869 
L 81.090909 198.370869 
L 83.345455 198.370869 
L 85.6 198.370869 
L 87.854545 198.370869 
L 90.109091 198.370869 
L 92.363636 198.370869 
L 94.618182 198.370869 
L 96.872727 198.370869 
L 99.127273 198.370869 
L 101.381818 198.370869 
L 103.636364 198.370869 
L 105.890909 198.370869 
L 108.145455 198.370869 
L 110.4 198.370869 
L 112.654545 198.370869 
L 114.909091 198.370869 
L 117.163636 198.370869 
L 119.418182 198.370869 
L 121.672727 198.370869 
L 123.927273 198.370869 
L 126.181818 198.370869 
L 128.436364 198.370869 
L 130.690909 198.370869 
L 132.945455 198.370869 
L 135.2 198.370869 
L 137.454545 198.370869 
L 139.709091 198.370869 
L 141.963636 198.370869 
L 144.218182 198.370869 
L 146.472727 198.370869 
L 148.727273 198.370869 
L 150.981818 198.370869 
L 153.236364 198.370869 
L 155.490909 198.370869 
L 157.745455 198.370869 
L 160 198.370869 
L 162.254545 198.370869 
L 164.509091 198.370869 
L 166.763636 198.370869 
L 169.018182 198.370869 
L 171.272727 198.370869 
L 173.527273 198.370869 
L 175.781818 198.370869 
L 178.036364 198.370869 
L 180.290909 198.370869 
L 182.545455 198.370869 
L 184.8 198.370869 
L 187.054545 198.370869 
L 189.309091 198.370869 
L 191.563636 198.370869 
L 193.818182 198.370869 
L 196.072727 198.370869 
L 198.327273 198.370869 
L 200.581818 198.370869 
L 202.836364 198.370869 
L 205.090909 198.370869 
L 207.345455 198.370869 
L 209.6 198.370869 
L 211.854545 198.370869 
L 214.109091 198.370869 
L 216.363636 198.370869 
L 218.618182 198.370869 
L 220.872727 198.370869 
L 223.127273 198.370869 
L 225.381818 198.370869 
L 227.636364 198.370869 
L 229.890909 198.370869 
L 232.145455 198.370869 
L 234.4 198.370869 
L 236.654545 198.370869 
L 238.909091 198.370869 
L 241.163636 198.370869 
L 243.418182 198.370869 
L 245.672727 198.370869 
L 247.927273 198.370869 
L 250.181818 198.370869 
L 252.436364 198.370869 
L 254.690909 198.370869 
L 256.945455 198.370869 
L 259.2 198.370869 
" style="fill:none;stroke:#00bfff;stroke-linecap:square;stroke-width:1.5;"/>
   </g>
   <g id="patch_13">
    <path d="M 36 230.4 
L 36 187.826087 
" style="fill:none;stroke:#000000;stroke-linecap:square;stroke-linejoin:miter;stroke-width:0.8;"/>
   </g>
   <g id="patch_14">
    <path d="M 259.2 230.4 
L 259.2 187.826087 
" style="fill:none;stroke:#000000;stroke-linecap:square;stroke-linejoin:miter;stroke-width:0.8;"/>
   </g>
   <g id="patch_15">
    <path d="M 36 230.4 
L 259.2 230.4 
" style="fill:none;stroke:#000000;stroke-linecap:square;stroke-linejoin:miter;stroke-width:0.8;"/>
   </g>
   <g id="patch_16">
    <path d="M 36 187.826087 
L 259.2 187.826087 
" style="fill:none;stroke:#000000;stroke-linecap:square;stroke-linejoin:miter;stroke-width:0.8;"/>
   </g>
   <g id="text_32">
    <!-- Psychology test -->
    <g transform="translate(112.282734 181.826087)scale(0.09 -0.09)">
     <defs>
      <path d="M 19.671875 64.796875 
L 19.671875 37.40625 
L 32.078125 37.40625 
Q 38.96875 37.40625 42.71875 40.96875 
Q 46.484375 44.53125 46.484375 51.125 
Q 46.484375 57.671875 42.71875 61.234375 
Q 38.96875 64.796875 32.078125 64.796875 
z
M 9.8125 72.90625 
L 32.078125 72.90625 
Q 44.34375 72.90625 50.609375 67.359375 
Q 56.890625 61.8125 56.890625 51.125 
Q 56.890625 40.328125 50.609375 34.8125 
Q 44.34375 29.296875 32.078125 29.296875 
L 19.671875 29.296875 
L 19.671875 0 
L 9.8125 0 
z
" id="DejaVuSans-80"/>
      <path d="M 54.890625 33.015625 
L 54.890625 0 
L 45.90625 0 
L 45.90625 32.71875 
Q 45.90625 40.484375 42.875 44.328125 
Q 39.84375 48.1875 33.796875 48.1875 
Q 26.515625 48.1875 22.3125 43.546875 
Q 18.109375 38.921875 18.109375 30.90625 
L 18.109375 0 
L 9.078125 0 
L 9.078125 75.984375 
L 18.109375 75.984375 
L 18.109375 46.1875 
Q 21.34375 51.125 25.703125 53.5625 
Q 30.078125 56 35.796875 56 
Q 45.21875 56 50.046875 50.171875 
Q 54.890625 44.34375 54.890625 33.015625 
z
" id="DejaVuSans-104"/>
      <path d="M 45.40625 27.984375 
Q 45.40625 37.75 41.375 43.109375 
Q 37.359375 48.484375 30.078125 48.484375 
Q 22.859375 48.484375 18.828125 43.109375 
Q 14.796875 37.75 14.796875 27.984375 
Q 14.796875 18.265625 18.828125 12.890625 
Q 22.859375 7.515625 30.078125 7.515625 
Q 37.359375 7.515625 41.375 12.890625 
Q 45.40625 18.265625 45.40625 27.984375 
z
M 54.390625 6.78125 
Q 54.390625 -7.171875 48.1875 -13.984375 
Q 42 -20.796875 29.203125 -20.796875 
Q 24.46875 -20.796875 20.265625 -20.09375 
Q 16.0625 -19.390625 12.109375 -17.921875 
L 12.109375 -9.1875 
Q 16.0625 -11.328125 19.921875 -12.34375 
Q 23.78125 -13.375 27.78125 -13.375 
Q 36.625 -13.375 41.015625 -8.765625 
Q 45.40625 -4.15625 45.40625 5.171875 
L 45.40625 9.625 
Q 42.625 4.78125 38.28125 2.390625 
Q 33.9375 0 27.875 0 
Q 17.828125 0 11.671875 7.65625 
Q 5.515625 15.328125 5.515625 27.984375 
Q 5.515625 40.671875 11.671875 48.328125 
Q 17.828125 56 27.875 56 
Q 33.9375 56 38.28125 53.609375 
Q 42.625 51.21875 45.40625 46.390625 
L 45.40625 54.6875 
L 54.390625 54.6875 
z
" id="DejaVuSans-103"/>
     </defs>
     <use xlink:href="#DejaVuSans-80"/>
     <use x="58.552734" xlink:href="#DejaVuSans-115"/>
     <use x="110.652344" xlink:href="#DejaVuSans-121"/>
     <use x="169.832031" xlink:href="#DejaVuSans-99"/>
     <use x="224.8125" xlink:href="#DejaVuSans-104"/>
     <use x="288.191406" xlink:href="#DejaVuSans-111"/>
     <use x="349.373047" xlink:href="#DejaVuSans-108"/>
     <use x="377.15625" xlink:href="#DejaVuSans-111"/>
     <use x="438.337891" xlink:href="#DejaVuSans-103"/>
     <use x="501.814453" xlink:href="#DejaVuSans-121"/>
     <use x="560.994141" xlink:href="#DejaVuSans-32"/>
     <use x="592.78125" xlink:href="#DejaVuSans-116"/>
     <use x="631.990234" xlink:href="#DejaVuSans-101"/>
     <use x="693.513672" xlink:href="#DejaVuSans-115"/>
     <use x="745.613281" xlink:href="#DejaVuSans-116"/>
    </g>
   </g>
  </g>
  <g id="text_33">
   <!-- Distinguishability -->
   <g transform="translate(92.169375 14.878125)scale(0.12 -0.12)">
    <defs>
     <path d="M 19.671875 64.796875 
L 19.671875 8.109375 
L 31.59375 8.109375 
Q 46.6875 8.109375 53.6875 14.9375 
Q 60.6875 21.78125 60.6875 36.53125 
Q 60.6875 51.171875 53.6875 57.984375 
Q 46.6875 64.796875 31.59375 64.796875 
z
M 9.8125 72.90625 
L 30.078125 72.90625 
Q 51.265625 72.90625 61.171875 64.09375 
Q 71.09375 55.28125 71.09375 36.53125 
Q 71.09375 17.671875 61.125 8.828125 
Q 51.171875 0 30.078125 0 
L 9.8125 0 
z
" id="DejaVuSans-68"/>
     <path d="M 48.6875 27.296875 
Q 48.6875 37.203125 44.609375 42.84375 
Q 40.53125 48.484375 33.40625 48.484375 
Q 26.265625 48.484375 22.1875 42.84375 
Q 18.109375 37.203125 18.109375 27.296875 
Q 18.109375 17.390625 22.1875 11.75 
Q 26.265625 6.109375 33.40625 6.109375 
Q 40.53125 6.109375 44.609375 11.75 
Q 48.6875 17.390625 48.6875 27.296875 
z
M 18.109375 46.390625 
Q 20.953125 51.265625 25.265625 53.625 
Q 29.59375 56 35.59375 56 
Q 45.5625 56 51.78125 48.09375 
Q 58.015625 40.1875 58.015625 27.296875 
Q 58.015625 14.40625 51.78125 6.484375 
Q 45.5625 -1.421875 35.59375 -1.421875 
Q 29.59375 -1.421875 25.265625 0.953125 
Q 20.953125 3.328125 18.109375 8.203125 
L 18.109375 0 
L 9.078125 0 
L 9.078125 75.984375 
L 18.109375 75.984375 
z
" id="DejaVuSans-98"/>
    </defs>
    <use xlink:href="#DejaVuSans-68"/>
    <use x="77.001953" xlink:href="#DejaVuSans-105"/>
    <use x="104.785156" xlink:href="#DejaVuSans-115"/>
    <use x="156.884766" xlink:href="#DejaVuSans-116"/>
    <use x="196.09375" xlink:href="#DejaVuSans-105"/>
    <use x="223.876953" xlink:href="#DejaVuSans-110"/>
    <use x="287.255859" xlink:href="#DejaVuSans-103"/>
    <use x="350.732422" xlink:href="#DejaVuSans-117"/>
    <use x="414.111328" xlink:href="#DejaVuSans-105"/>
    <use x="441.894531" xlink:href="#DejaVuSans-115"/>
    <use x="493.994141" xlink:href="#DejaVuSans-104"/>
    <use x="557.373047" xlink:href="#DejaVuSans-97"/>
    <use x="618.652344" xlink:href="#DejaVuSans-98"/>
    <use x="682.128906" xlink:href="#DejaVuSans-105"/>
    <use x="709.912109" xlink:href="#DejaVuSans-108"/>
    <use x="737.695312" xlink:href="#DejaVuSans-105"/>
    <use x="765.478516" xlink:href="#DejaVuSans-116"/>
    <use x="804.6875" xlink:href="#DejaVuSans-121"/>
   </g>
  </g>
  <g id="legend_1">
   <g id="patch_17">
    <path d="M 9.319531 283 
L 278.680469 283 
Q 280.680469 283 280.680469 281 
L 280.680469 267.321875 
Q 280.680469 265.321875 278.680469 265.321875 
L 9.319531 265.321875 
Q 7.319531 265.321875 7.319531 267.321875 
L 7.319531 281 
Q 7.319531 283 9.319531 283 
z
" style="fill:#ffffff;opacity:0.8;stroke:#cccccc;stroke-linejoin:miter;"/>
   </g>
   <g id="line2d_37">
    <path d="M 11.319531 273.420313 
L 31.319531 273.420313 
" style="fill:none;stroke:#da70d6;stroke-linecap:square;stroke-width:1.5;"/>
   </g>
   <g id="line2d_38"/>
   <g id="text_34">
    <!-- Bottom-Up -->
    <g transform="translate(39.319531 276.920313)scale(0.1 -0.1)">
     <defs>
      <path d="M 19.671875 34.8125 
L 19.671875 8.109375 
L 35.5 8.109375 
Q 43.453125 8.109375 47.28125 11.40625 
Q 51.125 14.703125 51.125 21.484375 
Q 51.125 28.328125 47.28125 31.5625 
Q 43.453125 34.8125 35.5 34.8125 
z
M 19.671875 64.796875 
L 19.671875 42.828125 
L 34.28125 42.828125 
Q 41.5 42.828125 45.03125 45.53125 
Q 48.578125 48.25 48.578125 53.8125 
Q 48.578125 59.328125 45.03125 62.0625 
Q 41.5 64.796875 34.28125 64.796875 
z
M 9.8125 72.90625 
L 35.015625 72.90625 
Q 46.296875 72.90625 52.390625 68.21875 
Q 58.5 63.53125 58.5 54.890625 
Q 58.5 48.1875 55.375 44.234375 
Q 52.25 40.28125 46.1875 39.3125 
Q 53.46875 37.75 57.5 32.78125 
Q 61.53125 27.828125 61.53125 20.40625 
Q 61.53125 10.640625 54.890625 5.3125 
Q 48.25 0 35.984375 0 
L 9.8125 0 
z
" id="DejaVuSans-66"/>
      <path d="M 4.890625 31.390625 
L 31.203125 31.390625 
L 31.203125 23.390625 
L 4.890625 23.390625 
z
" id="DejaVuSans-45"/>
      <path d="M 8.6875 72.90625 
L 18.609375 72.90625 
L 18.609375 28.609375 
Q 18.609375 16.890625 22.84375 11.734375 
Q 27.09375 6.59375 36.625 6.59375 
Q 46.09375 6.59375 50.34375 11.734375 
Q 54.59375 16.890625 54.59375 28.609375 
L 54.59375 72.90625 
L 64.5 72.90625 
L 64.5 27.390625 
Q 64.5 13.140625 57.4375 5.859375 
Q 50.390625 -1.421875 36.625 -1.421875 
Q 22.796875 -1.421875 15.734375 5.859375 
Q 8.6875 13.140625 8.6875 27.390625 
z
" id="DejaVuSans-85"/>
      <path d="M 18.109375 8.203125 
L 18.109375 -20.796875 
L 9.078125 -20.796875 
L 9.078125 54.6875 
L 18.109375 54.6875 
L 18.109375 46.390625 
Q 20.953125 51.265625 25.265625 53.625 
Q 29.59375 56 35.59375 56 
Q 45.5625 56 51.78125 48.09375 
Q 58.015625 40.1875 58.015625 27.296875 
Q 58.015625 14.40625 51.78125 6.484375 
Q 45.5625 -1.421875 35.59375 -1.421875 
Q 29.59375 -1.421875 25.265625 0.953125 
Q 20.953125 3.328125 18.109375 8.203125 
z
M 48.6875 27.296875 
Q 48.6875 37.203125 44.609375 42.84375 
Q 40.53125 48.484375 33.40625 48.484375 
Q 26.265625 48.484375 22.1875 42.84375 
Q 18.109375 37.203125 18.109375 27.296875 
Q 18.109375 17.390625 22.1875 11.75 
Q 26.265625 6.109375 33.40625 6.109375 
Q 40.53125 6.109375 44.609375 11.75 
Q 48.6875 17.390625 48.6875 27.296875 
z
" id="DejaVuSans-112"/>
     </defs>
     <use xlink:href="#DejaVuSans-66"/>
     <use x="68.603516" xlink:href="#DejaVuSans-111"/>
     <use x="129.785156" xlink:href="#DejaVuSans-116"/>
     <use x="168.994141" xlink:href="#DejaVuSans-116"/>
     <use x="208.203125" xlink:href="#DejaVuSans-111"/>
     <use x="269.384766" xlink:href="#DejaVuSans-109"/>
     <use x="366.796875" xlink:href="#DejaVuSans-45"/>
     <use x="402.880859" xlink:href="#DejaVuSans-85"/>
     <use x="476.074219" xlink:href="#DejaVuSans-112"/>
    </g>
   </g>
   <g id="line2d_39">
    <path d="M 113.274219 273.420313 
L 133.274219 273.420313 
" style="fill:none;stroke:#daa520;stroke-linecap:square;stroke-width:1.5;"/>
   </g>
   <g id="line2d_40"/>
   <g id="text_35">
    <!-- Genetic -->
    <g transform="translate(141.274219 276.920313)scale(0.1 -0.1)">
     <defs>
      <path d="M 59.515625 10.40625 
L 59.515625 29.984375 
L 43.40625 29.984375 
L 43.40625 38.09375 
L 69.28125 38.09375 
L 69.28125 6.78125 
Q 63.578125 2.734375 56.6875 0.65625 
Q 49.8125 -1.421875 42 -1.421875 
Q 24.90625 -1.421875 15.25 8.5625 
Q 5.609375 18.5625 5.609375 36.375 
Q 5.609375 54.25 15.25 64.234375 
Q 24.90625 74.21875 42 74.21875 
Q 49.125 74.21875 55.546875 72.453125 
Q 61.96875 70.703125 67.390625 67.28125 
L 67.390625 56.78125 
Q 61.921875 61.421875 55.765625 63.765625 
Q 49.609375 66.109375 42.828125 66.109375 
Q 29.4375 66.109375 22.71875 58.640625 
Q 16.015625 51.171875 16.015625 36.375 
Q 16.015625 21.625 22.71875 14.15625 
Q 29.4375 6.6875 42.828125 6.6875 
Q 48.046875 6.6875 52.140625 7.59375 
Q 56.25 8.5 59.515625 10.40625 
z
" id="DejaVuSans-71"/>
     </defs>
     <use xlink:href="#DejaVuSans-71"/>
     <use x="77.490234" xlink:href="#DejaVuSans-101"/>
     <use x="139.013672" xlink:href="#DejaVuSans-110"/>
     <use x="202.392578" xlink:href="#DejaVuSans-101"/>
     <use x="263.916016" xlink:href="#DejaVuSans-116"/>
     <use x="303.125" xlink:href="#DejaVuSans-105"/>
     <use x="330.908203" xlink:href="#DejaVuSans-99"/>
    </g>
   </g>
   <g id="line2d_41">
    <path d="M 199.863281 273.420313 
L 219.863281 273.420313 
" style="fill:none;stroke:#00bfff;stroke-linecap:square;stroke-width:1.5;"/>
   </g>
   <g id="line2d_42"/>
   <g id="text_36">
    <!-- Top-Down -->
    <g transform="translate(227.863281 276.920313)scale(0.1 -0.1)">
     <defs>
      <path d="M 4.203125 54.6875 
L 13.1875 54.6875 
L 24.421875 12.015625 
L 35.59375 54.6875 
L 46.1875 54.6875 
L 57.421875 12.015625 
L 68.609375 54.6875 
L 77.59375 54.6875 
L 63.28125 0 
L 52.6875 0 
L 40.921875 44.828125 
L 29.109375 0 
L 18.5 0 
z
" id="DejaVuSans-119"/>
     </defs>
     <use xlink:href="#DejaVuSans-84"/>
     <use x="44.083984" xlink:href="#DejaVuSans-111"/>
     <use x="105.265625" xlink:href="#DejaVuSans-112"/>
     <use x="168.742188" xlink:href="#DejaVuSans-45"/>
     <use x="204.826172" xlink:href="#DejaVuSans-68"/>
     <use x="281.828125" xlink:href="#DejaVuSans-111"/>
     <use x="343.009766" xlink:href="#DejaVuSans-119"/>
     <use x="424.796875" xlink:href="#DejaVuSans-110"/>
    </g>
   </g>
  </g>
 </g>
 <defs>
  <clipPath id="p2d93971a85">
   <rect height="42.573913" width="223.2" x="36" y="34.56"/>
  </clipPath>
  <clipPath id="p9b9dcade85">
   <rect height="42.573913" width="223.2" x="36" y="111.193043"/>
  </clipPath>
  <clipPath id="p27201390e8">
   <rect height="42.573913" width="223.2" x="36" y="187.826087"/>
  </clipPath>
 </defs>
</svg>
