<?xml version="1.0" encoding="utf-8" standalone="no"?>
<!DOCTYPE svg PUBLIC "-//W3C//DTD SVG 1.1//EN"
  "http://www.w3.org/Graphics/SVG/1.1/DTD/svg11.dtd">
<!-- Created with matplotlib (https://matplotlib.org/) -->
<svg height="288pt" version="1.1" viewBox="0 0 288 288" width="288pt" xmlns="http://www.w3.org/2000/svg" xmlns:xlink="http://www.w3.org/1999/xlink">
 <metadata>
  <rdf:RDF xmlns:cc="http://creativecommons.org/ns#" xmlns:dc="http://purl.org/dc/elements/1.1/" xmlns:rdf="http://www.w3.org/1999/02/22-rdf-syntax-ns#">
   <cc:Work>
    <dc:type rdf:resource="http://purl.org/dc/dcmitype/StillImage"/>
    <dc:date>2021-07-16T21:35:44.450369</dc:date>
    <dc:format>image/svg+xml</dc:format>
    <dc:creator>
     <cc:Agent>
      <dc:title>Matplotlib v3.3.4, https://matplotlib.org/</dc:title>
     </cc:Agent>
    </dc:creator>
   </cc:Work>
  </rdf:RDF>
 </metadata>
 <defs>
  <style type="text/css">*{stroke-linecap:butt;stroke-linejoin:round;}</style>
 </defs>
 <g id="figure_1">
  <g id="patch_1">
   <path d="M 0 288 
L 288 288 
L 288 0 
L 0 0 
z
" style="fill:#ffffff;"/>
  </g>
  <g id="axes_1">
   <g id="patch_2">
    <path d="M 36 77.133913 
L 259.2 77.133913 
L 259.2 34.56 
L 36 34.56 
z
" style="fill:#ffffff;"/>
   </g>
   <g id="matplotlib.axis_1">
    <g id="xtick_1">
     <g id="line2d_1">
      <defs>
       <path d="M 0 0 
L 0 3.5 
" id="m8061bdeda5" style="stroke:#000000;stroke-width:0.8;"/>
      </defs>
      <g>
       <use style="stroke:#000000;stroke-width:0.8;" x="36" xlink:href="#m8061bdeda5" y="77.133913"/>
      </g>
     </g>
     <g id="text_1">
      <!-- 0 -->
      <g transform="translate(32.81875 91.732351)scale(0.1 -0.1)">
       <defs>
        <path d="M 31.78125 66.40625 
Q 24.171875 66.40625 20.328125 58.90625 
Q 16.5 51.421875 16.5 36.375 
Q 16.5 21.390625 20.328125 13.890625 
Q 24.171875 6.390625 31.78125 6.390625 
Q 39.453125 6.390625 43.28125 13.890625 
Q 47.125 21.390625 47.125 36.375 
Q 47.125 51.421875 43.28125 58.90625 
Q 39.453125 66.40625 31.78125 66.40625 
z
M 31.78125 74.21875 
Q 44.046875 74.21875 50.515625 64.515625 
Q 56.984375 54.828125 56.984375 36.375 
Q 56.984375 17.96875 50.515625 8.265625 
Q 44.046875 -1.421875 31.78125 -1.421875 
Q 19.53125 -1.421875 13.0625 8.265625 
Q 6.59375 17.96875 6.59375 36.375 
Q 6.59375 54.828125 13.0625 64.515625 
Q 19.53125 74.21875 31.78125 74.21875 
z
" id="DejaVuSans-48"/>
       </defs>
       <use xlink:href="#DejaVuSans-48"/>
      </g>
     </g>
    </g>
    <g id="xtick_2">
     <g id="line2d_2">
      <g>
       <use style="stroke:#000000;stroke-width:0.8;" x="80.64" xlink:href="#m8061bdeda5" y="77.133913"/>
      </g>
     </g>
     <g id="text_2">
      <!-- 20 -->
      <g transform="translate(74.2775 91.732351)scale(0.1 -0.1)">
       <defs>
        <path d="M 19.1875 8.296875 
L 53.609375 8.296875 
L 53.609375 0 
L 7.328125 0 
L 7.328125 8.296875 
Q 12.9375 14.109375 22.625 23.890625 
Q 32.328125 33.6875 34.8125 36.53125 
Q 39.546875 41.84375 41.421875 45.53125 
Q 43.3125 49.21875 43.3125 52.78125 
Q 43.3125 58.59375 39.234375 62.25 
Q 35.15625 65.921875 28.609375 65.921875 
Q 23.96875 65.921875 18.8125 64.3125 
Q 13.671875 62.703125 7.8125 59.421875 
L 7.8125 69.390625 
Q 13.765625 71.78125 18.9375 73 
Q 24.125 74.21875 28.421875 74.21875 
Q 39.75 74.21875 46.484375 68.546875 
Q 53.21875 62.890625 53.21875 53.421875 
Q 53.21875 48.921875 51.53125 44.890625 
Q 49.859375 40.875 45.40625 35.40625 
Q 44.1875 33.984375 37.640625 27.21875 
Q 31.109375 20.453125 19.1875 8.296875 
z
" id="DejaVuSans-50"/>
       </defs>
       <use xlink:href="#DejaVuSans-50"/>
       <use x="63.623047" xlink:href="#DejaVuSans-48"/>
      </g>
     </g>
    </g>
    <g id="xtick_3">
     <g id="line2d_3">
      <g>
       <use style="stroke:#000000;stroke-width:0.8;" x="125.28" xlink:href="#m8061bdeda5" y="77.133913"/>
      </g>
     </g>
     <g id="text_3">
      <!-- 40 -->
      <g transform="translate(118.9175 91.732351)scale(0.1 -0.1)">
       <defs>
        <path d="M 37.796875 64.3125 
L 12.890625 25.390625 
L 37.796875 25.390625 
z
M 35.203125 72.90625 
L 47.609375 72.90625 
L 47.609375 25.390625 
L 58.015625 25.390625 
L 58.015625 17.1875 
L 47.609375 17.1875 
L 47.609375 0 
L 37.796875 0 
L 37.796875 17.1875 
L 4.890625 17.1875 
L 4.890625 26.703125 
z
" id="DejaVuSans-52"/>
       </defs>
       <use xlink:href="#DejaVuSans-52"/>
       <use x="63.623047" xlink:href="#DejaVuSans-48"/>
      </g>
     </g>
    </g>
    <g id="xtick_4">
     <g id="line2d_4">
      <g>
       <use style="stroke:#000000;stroke-width:0.8;" x="169.92" xlink:href="#m8061bdeda5" y="77.133913"/>
      </g>
     </g>
     <g id="text_4">
      <!-- 60 -->
      <g transform="translate(163.5575 91.732351)scale(0.1 -0.1)">
       <defs>
        <path d="M 33.015625 40.375 
Q 26.375 40.375 22.484375 35.828125 
Q 18.609375 31.296875 18.609375 23.390625 
Q 18.609375 15.53125 22.484375 10.953125 
Q 26.375 6.390625 33.015625 6.390625 
Q 39.65625 6.390625 43.53125 10.953125 
Q 47.40625 15.53125 47.40625 23.390625 
Q 47.40625 31.296875 43.53125 35.828125 
Q 39.65625 40.375 33.015625 40.375 
z
M 52.59375 71.296875 
L 52.59375 62.3125 
Q 48.875 64.0625 45.09375 64.984375 
Q 41.3125 65.921875 37.59375 65.921875 
Q 27.828125 65.921875 22.671875 59.328125 
Q 17.53125 52.734375 16.796875 39.40625 
Q 19.671875 43.65625 24.015625 45.921875 
Q 28.375 48.1875 33.59375 48.1875 
Q 44.578125 48.1875 50.953125 41.515625 
Q 57.328125 34.859375 57.328125 23.390625 
Q 57.328125 12.15625 50.6875 5.359375 
Q 44.046875 -1.421875 33.015625 -1.421875 
Q 20.359375 -1.421875 13.671875 8.265625 
Q 6.984375 17.96875 6.984375 36.375 
Q 6.984375 53.65625 15.1875 63.9375 
Q 23.390625 74.21875 37.203125 74.21875 
Q 40.921875 74.21875 44.703125 73.484375 
Q 48.484375 72.75 52.59375 71.296875 
z
" id="DejaVuSans-54"/>
       </defs>
       <use xlink:href="#DejaVuSans-54"/>
       <use x="63.623047" xlink:href="#DejaVuSans-48"/>
      </g>
     </g>
    </g>
    <g id="xtick_5">
     <g id="line2d_5">
      <g>
       <use style="stroke:#000000;stroke-width:0.8;" x="214.56" xlink:href="#m8061bdeda5" y="77.133913"/>
      </g>
     </g>
     <g id="text_5">
      <!-- 80 -->
      <g transform="translate(208.1975 91.732351)scale(0.1 -0.1)">
       <defs>
        <path d="M 31.78125 34.625 
Q 24.75 34.625 20.71875 30.859375 
Q 16.703125 27.09375 16.703125 20.515625 
Q 16.703125 13.921875 20.71875 10.15625 
Q 24.75 6.390625 31.78125 6.390625 
Q 38.8125 6.390625 42.859375 10.171875 
Q 46.921875 13.96875 46.921875 20.515625 
Q 46.921875 27.09375 42.890625 30.859375 
Q 38.875 34.625 31.78125 34.625 
z
M 21.921875 38.8125 
Q 15.578125 40.375 12.03125 44.71875 
Q 8.5 49.078125 8.5 55.328125 
Q 8.5 64.0625 14.71875 69.140625 
Q 20.953125 74.21875 31.78125 74.21875 
Q 42.671875 74.21875 48.875 69.140625 
Q 55.078125 64.0625 55.078125 55.328125 
Q 55.078125 49.078125 51.53125 44.71875 
Q 48 40.375 41.703125 38.8125 
Q 48.828125 37.15625 52.796875 32.3125 
Q 56.78125 27.484375 56.78125 20.515625 
Q 56.78125 9.90625 50.3125 4.234375 
Q 43.84375 -1.421875 31.78125 -1.421875 
Q 19.734375 -1.421875 13.25 4.234375 
Q 6.78125 9.90625 6.78125 20.515625 
Q 6.78125 27.484375 10.78125 32.3125 
Q 14.796875 37.15625 21.921875 38.8125 
z
M 18.3125 54.390625 
Q 18.3125 48.734375 21.84375 45.5625 
Q 25.390625 42.390625 31.78125 42.390625 
Q 38.140625 42.390625 41.71875 45.5625 
Q 45.3125 48.734375 45.3125 54.390625 
Q 45.3125 60.0625 41.71875 63.234375 
Q 38.140625 66.40625 31.78125 66.40625 
Q 25.390625 66.40625 21.84375 63.234375 
Q 18.3125 60.0625 18.3125 54.390625 
z
" id="DejaVuSans-56"/>
       </defs>
       <use xlink:href="#DejaVuSans-56"/>
       <use x="63.623047" xlink:href="#DejaVuSans-48"/>
      </g>
     </g>
    </g>
    <g id="xtick_6">
     <g id="line2d_6">
      <g>
       <use style="stroke:#000000;stroke-width:0.8;" x="259.2" xlink:href="#m8061bdeda5" y="77.133913"/>
      </g>
     </g>
     <g id="text_6">
      <!-- 100 -->
      <g transform="translate(249.65625 91.732351)scale(0.1 -0.1)">
       <defs>
        <path d="M 12.40625 8.296875 
L 28.515625 8.296875 
L 28.515625 63.921875 
L 10.984375 60.40625 
L 10.984375 69.390625 
L 28.421875 72.90625 
L 38.28125 72.90625 
L 38.28125 8.296875 
L 54.390625 8.296875 
L 54.390625 0 
L 12.40625 0 
z
" id="DejaVuSans-49"/>
       </defs>
       <use xlink:href="#DejaVuSans-49"/>
       <use x="63.623047" xlink:href="#DejaVuSans-48"/>
       <use x="127.246094" xlink:href="#DejaVuSans-48"/>
      </g>
     </g>
    </g>
   </g>
   <g id="matplotlib.axis_2">
    <g id="ytick_1">
     <g id="line2d_7">
      <defs>
       <path d="M 0 0 
L -3.5 0 
" id="m0cbd664e22" style="stroke:#000000;stroke-width:0.8;"/>
      </defs>
      <g>
       <use style="stroke:#000000;stroke-width:0.8;" x="36" xlink:href="#m0cbd664e22" y="77.133913"/>
      </g>
     </g>
     <g id="text_7">
      <!-- 0 -->
      <g transform="translate(22.6375 80.933132)scale(0.1 -0.1)">
       <use xlink:href="#DejaVuSans-48"/>
      </g>
     </g>
    </g>
    <g id="ytick_2">
     <g id="line2d_8">
      <g>
       <use style="stroke:#000000;stroke-width:0.8;" x="36" xlink:href="#m0cbd664e22" y="55.846957"/>
      </g>
     </g>
     <g id="text_8">
      <!-- 50 -->
      <g transform="translate(16.275 59.646175)scale(0.1 -0.1)">
       <defs>
        <path d="M 10.796875 72.90625 
L 49.515625 72.90625 
L 49.515625 64.59375 
L 19.828125 64.59375 
L 19.828125 46.734375 
Q 21.96875 47.46875 24.109375 47.828125 
Q 26.265625 48.1875 28.421875 48.1875 
Q 40.625 48.1875 47.75 41.5 
Q 54.890625 34.8125 54.890625 23.390625 
Q 54.890625 11.625 47.5625 5.09375 
Q 40.234375 -1.421875 26.90625 -1.421875 
Q 22.3125 -1.421875 17.546875 -0.640625 
Q 12.796875 0.140625 7.71875 1.703125 
L 7.71875 11.625 
Q 12.109375 9.234375 16.796875 8.0625 
Q 21.484375 6.890625 26.703125 6.890625 
Q 35.15625 6.890625 40.078125 11.328125 
Q 45.015625 15.765625 45.015625 23.390625 
Q 45.015625 31 40.078125 35.4375 
Q 35.15625 39.890625 26.703125 39.890625 
Q 22.75 39.890625 18.8125 39.015625 
Q 14.890625 38.140625 10.796875 36.28125 
z
" id="DejaVuSans-53"/>
       </defs>
       <use xlink:href="#DejaVuSans-53"/>
       <use x="63.623047" xlink:href="#DejaVuSans-48"/>
      </g>
     </g>
    </g>
    <g id="ytick_3">
     <g id="line2d_9">
      <g>
       <use style="stroke:#000000;stroke-width:0.8;" x="36" xlink:href="#m0cbd664e22" y="34.56"/>
      </g>
     </g>
     <g id="text_9">
      <!-- 100 -->
      <g transform="translate(9.9125 38.359219)scale(0.1 -0.1)">
       <use xlink:href="#DejaVuSans-49"/>
       <use x="63.623047" xlink:href="#DejaVuSans-48"/>
       <use x="127.246094" xlink:href="#DejaVuSans-48"/>
      </g>
     </g>
    </g>
   </g>
   <g id="line2d_10">
    <path clip-path="url(#p6b2dada370)" d="M 36 77.133913 
L 38.254545 57.818414 
L 40.509091 53.353515 
L 42.763636 53.107592 
L 45.018182 53.041732 
L 47.272727 52.975872 
L 49.527273 52.910013 
L 51.781818 52.843688 
L 54.036364 52.765481 
L 56.290909 52.685837 
L 58.545455 52.606193 
L 60.8 52.52655 
L 63.054545 52.446906 
L 65.309091 52.367262 
L 67.563636 52.287619 
L 69.818182 52.207975 
L 72.072727 52.128331 
L 74.327273 52.048687 
L 76.581818 51.969044 
L 78.836364 51.8894 
L 81.090909 51.809756 
L 83.345455 51.730112 
L 85.6 51.650469 
L 87.854545 51.570825 
L 90.109091 51.491181 
L 92.363636 51.411538 
L 94.618182 51.331894 
L 96.872727 51.25225 
L 99.127273 51.172606 
L 101.381818 51.015965 
L 103.636364 50.334068 
L 105.890909 49.205411 
L 108.145455 47.650047 
L 110.4 44.890757 
L 112.654545 44.042013 
L 114.909091 42.754645 
L 117.163636 42.273662 
L 119.418182 42.263555 
L 121.672727 42.263555 
L 123.927273 42.263555 
L 126.181818 42.263555 
L 128.436364 42.263555 
L 130.690909 42.263555 
L 132.945455 42.263555 
L 135.2 42.263555 
L 137.454545 42.263555 
L 139.709091 42.263555 
L 141.963636 42.263555 
L 144.218182 42.263555 
L 146.472727 42.263555 
L 148.727273 42.263555 
L 150.981818 42.263555 
L 153.236364 42.263555 
L 155.490909 42.263555 
L 157.745455 42.263555 
L 160 42.263555 
L 162.254545 42.263555 
L 164.509091 42.263555 
L 166.763636 42.263555 
L 169.018182 42.263555 
L 171.272727 42.263555 
L 173.527273 42.263555 
L 175.781818 42.263555 
L 178.036364 42.263555 
L 180.290909 42.263555 
L 182.545455 42.263555 
L 184.8 42.263555 
L 187.054545 42.263555 
L 189.309091 42.263555 
L 191.563636 42.263555 
L 193.818182 42.263555 
L 196.072727 42.263555 
L 198.327273 42.263555 
L 200.581818 42.263555 
L 202.836364 42.263555 
L 205.090909 42.263555 
L 207.345455 42.263555 
L 209.6 42.263555 
L 211.854545 42.263555 
L 214.109091 42.263555 
L 216.363636 42.263555 
L 218.618182 42.263555 
L 220.872727 42.263555 
L 223.127273 42.263555 
L 225.381818 42.263555 
L 227.636364 42.263555 
L 229.890909 42.263555 
L 232.145455 42.263555 
L 234.4 42.263555 
L 236.654545 42.263555 
L 238.909091 42.263555 
L 241.163636 42.263555 
L 243.418182 42.263555 
L 245.672727 42.263555 
L 247.927273 42.263555 
L 250.181818 42.263555 
L 252.436364 42.263555 
L 254.690909 42.263555 
L 256.945455 42.263555 
L 259.2 42.263555 
" style="fill:none;stroke:#da70d6;stroke-linecap:square;stroke-width:1.5;"/>
   </g>
   <g id="line2d_11">
    <path clip-path="url(#p6b2dada370)" d="M 36 77.133913 
L 38.254545 51.327047 
L 40.509091 49.683196 
L 42.763636 48.782992 
L 45.018182 48.278136 
L 47.272727 47.207263 
L 49.527273 46.892361 
L 51.781818 45.501609 
L 54.036364 44.78815 
L 56.290909 44.241476 
L 58.545455 43.431225 
L 60.8 43.220933 
L 63.054545 42.894048 
L 65.309091 42.475434 
L 67.563636 42.242872 
L 69.818182 41.77175 
L 72.072727 41.655968 
L 74.327273 41.561608 
L 76.581818 41.477476 
L 78.836364 41.285039 
L 81.090909 41.20972 
L 83.345455 41.194525 
L 85.6 41.153009 
L 87.854545 41.082344 
L 90.109091 41.039629 
L 92.363636 41.013255 
L 94.618182 40.998697 
L 96.872727 40.990713 
L 99.127273 40.98273 
L 101.381818 40.974747 
L 103.636364 40.966764 
L 105.890909 40.966005 
L 108.145455 40.966005 
L 110.4 40.966005 
L 112.654545 40.966005 
L 114.909091 40.966005 
L 117.163636 40.966005 
L 119.418182 40.966005 
L 121.672727 40.966005 
L 123.927273 40.966005 
L 126.181818 40.966005 
L 128.436364 40.966005 
L 130.690909 40.966005 
L 132.945455 40.966005 
L 135.2 40.966005 
L 137.454545 40.966005 
L 139.709091 40.966005 
L 141.963636 40.966005 
L 144.218182 40.966005 
L 146.472727 40.966005 
L 148.727273 40.966005 
L 150.981818 40.966005 
L 153.236364 40.966005 
L 155.490909 40.966005 
L 157.745455 40.966005 
L 160 40.966005 
L 162.254545 40.966005 
L 164.509091 40.966005 
L 166.763636 40.966005 
L 169.018182 40.966005 
L 171.272727 40.966005 
L 173.527273 40.966005 
L 175.781818 40.966005 
L 178.036364 40.966005 
L 180.290909 40.966005 
L 182.545455 40.966005 
L 184.8 40.966005 
L 187.054545 40.966005 
L 189.309091 40.966005 
L 191.563636 40.966005 
L 193.818182 40.966005 
L 196.072727 40.966005 
L 198.327273 40.966005 
L 200.581818 40.966005 
L 202.836364 40.966005 
L 205.090909 40.966005 
L 207.345455 40.966005 
L 209.6 40.966005 
L 211.854545 40.966005 
L 214.109091 40.966005 
L 216.363636 40.966005 
L 218.618182 40.966005 
L 220.872727 40.966005 
L 223.127273 40.966005 
L 225.381818 40.966005 
L 227.636364 40.966005 
L 229.890909 40.966005 
L 232.145455 40.966005 
L 234.4 40.966005 
L 236.654545 40.966005 
L 238.909091 40.966005 
L 241.163636 40.966005 
L 243.418182 40.966005 
L 245.672727 40.966005 
L 247.927273 40.966005 
L 250.181818 40.966005 
L 252.436364 40.966005 
L 254.690909 40.966005 
L 256.945455 40.966005 
L 259.2 40.966005 
" style="fill:none;stroke:#daa520;stroke-linecap:square;stroke-width:1.5;"/>
   </g>
   <g id="line2d_12">
    <path clip-path="url(#p6b2dada370)" d="M 36 77.133913 
L 38.254545 67.842485 
L 40.509091 54.356224 
L 42.763636 42.861376 
L 45.018182 42.240396 
L 47.272727 41.772501 
L 49.527273 41.338884 
L 51.781818 41.338884 
L 54.036364 41.338884 
L 56.290909 41.338884 
L 58.545455 41.338884 
L 60.8 41.338884 
L 63.054545 41.338884 
L 65.309091 41.338884 
L 67.563636 41.338884 
L 69.818182 41.338884 
L 72.072727 41.338884 
L 74.327273 41.338884 
L 76.581818 41.338884 
L 78.836364 41.338884 
L 81.090909 41.338884 
L 83.345455 41.338884 
L 85.6 41.338884 
L 87.854545 41.338884 
L 90.109091 41.338884 
L 92.363636 41.338884 
L 94.618182 41.338884 
L 96.872727 41.338884 
L 99.127273 41.338884 
L 101.381818 41.338884 
L 103.636364 41.338884 
L 105.890909 41.338884 
L 108.145455 41.338884 
L 110.4 41.338884 
L 112.654545 41.338884 
L 114.909091 41.338884 
L 117.163636 41.338884 
L 119.418182 41.338884 
L 121.672727 41.338884 
L 123.927273 41.338884 
L 126.181818 41.338884 
L 128.436364 41.338884 
L 130.690909 41.337838 
L 132.945455 41.264308 
L 135.2 41.121687 
L 137.454545 40.966005 
L 139.709091 40.966005 
L 141.963636 40.966005 
L 144.218182 40.966005 
L 146.472727 40.966005 
L 148.727273 40.966005 
L 150.981818 40.966005 
L 153.236364 40.966005 
L 155.490909 40.966005 
L 157.745455 40.966005 
L 160 40.966005 
L 162.254545 40.966005 
L 164.509091 40.966005 
L 166.763636 40.966005 
L 169.018182 40.966005 
L 171.272727 40.966005 
L 173.527273 40.966005 
L 175.781818 40.966005 
L 178.036364 40.966005 
L 180.290909 40.966005 
L 182.545455 40.966005 
L 184.8 40.966005 
L 187.054545 40.966005 
L 189.309091 40.966005 
L 191.563636 40.966005 
L 193.818182 40.966005 
L 196.072727 40.966005 
L 198.327273 40.966005 
L 200.581818 40.966005 
L 202.836364 40.966005 
L 205.090909 40.966005 
L 207.345455 40.966005 
L 209.6 40.966005 
L 211.854545 40.966005 
L 214.109091 40.966005 
L 216.363636 40.966005 
L 218.618182 40.966005 
L 220.872727 40.966005 
L 223.127273 40.966005 
L 225.381818 40.966005 
L 227.636364 40.966005 
L 229.890909 40.966005 
L 232.145455 40.966005 
L 234.4 40.966005 
L 236.654545 40.966005 
L 238.909091 40.966005 
L 241.163636 40.966005 
L 243.418182 40.966005 
L 245.672727 40.966005 
L 247.927273 40.966005 
L 250.181818 40.966005 
L 252.436364 40.966005 
L 254.690909 40.966005 
L 256.945455 40.966005 
L 259.2 40.966005 
" style="fill:none;stroke:#00bfff;stroke-linecap:square;stroke-width:1.5;"/>
   </g>
   <g id="patch_3">
    <path d="M 36 77.133913 
L 36 34.56 
" style="fill:none;stroke:#000000;stroke-linecap:square;stroke-linejoin:miter;stroke-width:0.8;"/>
   </g>
   <g id="patch_4">
    <path d="M 259.2 77.133913 
L 259.2 34.56 
" style="fill:none;stroke:#000000;stroke-linecap:square;stroke-linejoin:miter;stroke-width:0.8;"/>
   </g>
   <g id="patch_5">
    <path d="M 36 77.133913 
L 259.2 77.133913 
" style="fill:none;stroke:#000000;stroke-linecap:square;stroke-linejoin:miter;stroke-width:0.8;"/>
   </g>
   <g id="patch_6">
    <path d="M 36 34.56 
L 259.2 34.56 
" style="fill:none;stroke:#000000;stroke-linecap:square;stroke-linejoin:miter;stroke-width:0.8;"/>
   </g>
   <g id="text_10">
    <!-- Census community -->
    <g transform="translate(104.490703 28.56)scale(0.09 -0.09)">
     <defs>
      <path d="M 64.40625 67.28125 
L 64.40625 56.890625 
Q 59.421875 61.53125 53.78125 63.8125 
Q 48.140625 66.109375 41.796875 66.109375 
Q 29.296875 66.109375 22.65625 58.46875 
Q 16.015625 50.828125 16.015625 36.375 
Q 16.015625 21.96875 22.65625 14.328125 
Q 29.296875 6.6875 41.796875 6.6875 
Q 48.140625 6.6875 53.78125 8.984375 
Q 59.421875 11.28125 64.40625 15.921875 
L 64.40625 5.609375 
Q 59.234375 2.09375 53.4375 0.328125 
Q 47.65625 -1.421875 41.21875 -1.421875 
Q 24.65625 -1.421875 15.125 8.703125 
Q 5.609375 18.84375 5.609375 36.375 
Q 5.609375 53.953125 15.125 64.078125 
Q 24.65625 74.21875 41.21875 74.21875 
Q 47.75 74.21875 53.53125 72.484375 
Q 59.328125 70.75 64.40625 67.28125 
z
" id="DejaVuSans-67"/>
      <path d="M 56.203125 29.59375 
L 56.203125 25.203125 
L 14.890625 25.203125 
Q 15.484375 15.921875 20.484375 11.0625 
Q 25.484375 6.203125 34.421875 6.203125 
Q 39.59375 6.203125 44.453125 7.46875 
Q 49.3125 8.734375 54.109375 11.28125 
L 54.109375 2.78125 
Q 49.265625 0.734375 44.1875 -0.34375 
Q 39.109375 -1.421875 33.890625 -1.421875 
Q 20.796875 -1.421875 13.15625 6.1875 
Q 5.515625 13.8125 5.515625 26.8125 
Q 5.515625 40.234375 12.765625 48.109375 
Q 20.015625 56 32.328125 56 
Q 43.359375 56 49.78125 48.890625 
Q 56.203125 41.796875 56.203125 29.59375 
z
M 47.21875 32.234375 
Q 47.125 39.59375 43.09375 43.984375 
Q 39.0625 48.390625 32.421875 48.390625 
Q 24.90625 48.390625 20.390625 44.140625 
Q 15.875 39.890625 15.1875 32.171875 
z
" id="DejaVuSans-101"/>
      <path d="M 54.890625 33.015625 
L 54.890625 0 
L 45.90625 0 
L 45.90625 32.71875 
Q 45.90625 40.484375 42.875 44.328125 
Q 39.84375 48.1875 33.796875 48.1875 
Q 26.515625 48.1875 22.3125 43.546875 
Q 18.109375 38.921875 18.109375 30.90625 
L 18.109375 0 
L 9.078125 0 
L 9.078125 54.6875 
L 18.109375 54.6875 
L 18.109375 46.1875 
Q 21.34375 51.125 25.703125 53.5625 
Q 30.078125 56 35.796875 56 
Q 45.21875 56 50.046875 50.171875 
Q 54.890625 44.34375 54.890625 33.015625 
z
" id="DejaVuSans-110"/>
      <path d="M 44.28125 53.078125 
L 44.28125 44.578125 
Q 40.484375 46.53125 36.375 47.5 
Q 32.28125 48.484375 27.875 48.484375 
Q 21.1875 48.484375 17.84375 46.4375 
Q 14.5 44.390625 14.5 40.28125 
Q 14.5 37.15625 16.890625 35.375 
Q 19.28125 33.59375 26.515625 31.984375 
L 29.59375 31.296875 
Q 39.15625 29.25 43.1875 25.515625 
Q 47.21875 21.78125 47.21875 15.09375 
Q 47.21875 7.46875 41.1875 3.015625 
Q 35.15625 -1.421875 24.609375 -1.421875 
Q 20.21875 -1.421875 15.453125 -0.5625 
Q 10.6875 0.296875 5.421875 2 
L 5.421875 11.28125 
Q 10.40625 8.6875 15.234375 7.390625 
Q 20.0625 6.109375 24.8125 6.109375 
Q 31.15625 6.109375 34.5625 8.28125 
Q 37.984375 10.453125 37.984375 14.40625 
Q 37.984375 18.0625 35.515625 20.015625 
Q 33.0625 21.96875 24.703125 23.78125 
L 21.578125 24.515625 
Q 13.234375 26.265625 9.515625 29.90625 
Q 5.8125 33.546875 5.8125 39.890625 
Q 5.8125 47.609375 11.28125 51.796875 
Q 16.75 56 26.8125 56 
Q 31.78125 56 36.171875 55.265625 
Q 40.578125 54.546875 44.28125 53.078125 
z
" id="DejaVuSans-115"/>
      <path d="M 8.5 21.578125 
L 8.5 54.6875 
L 17.484375 54.6875 
L 17.484375 21.921875 
Q 17.484375 14.15625 20.5 10.265625 
Q 23.53125 6.390625 29.59375 6.390625 
Q 36.859375 6.390625 41.078125 11.03125 
Q 45.3125 15.671875 45.3125 23.6875 
L 45.3125 54.6875 
L 54.296875 54.6875 
L 54.296875 0 
L 45.3125 0 
L 45.3125 8.40625 
Q 42.046875 3.421875 37.71875 1 
Q 33.40625 -1.421875 27.6875 -1.421875 
Q 18.265625 -1.421875 13.375 4.4375 
Q 8.5 10.296875 8.5 21.578125 
z
M 31.109375 56 
z
" id="DejaVuSans-117"/>
      <path id="DejaVuSans-32"/>
      <path d="M 48.78125 52.59375 
L 48.78125 44.1875 
Q 44.96875 46.296875 41.140625 47.34375 
Q 37.3125 48.390625 33.40625 48.390625 
Q 24.65625 48.390625 19.8125 42.84375 
Q 14.984375 37.3125 14.984375 27.296875 
Q 14.984375 17.28125 19.8125 11.734375 
Q 24.65625 6.203125 33.40625 6.203125 
Q 37.3125 6.203125 41.140625 7.25 
Q 44.96875 8.296875 48.78125 10.40625 
L 48.78125 2.09375 
Q 45.015625 0.34375 40.984375 -0.53125 
Q 36.96875 -1.421875 32.421875 -1.421875 
Q 20.0625 -1.421875 12.78125 6.34375 
Q 5.515625 14.109375 5.515625 27.296875 
Q 5.515625 40.671875 12.859375 48.328125 
Q 20.21875 56 33.015625 56 
Q 37.15625 56 41.109375 55.140625 
Q 45.0625 54.296875 48.78125 52.59375 
z
" id="DejaVuSans-99"/>
      <path d="M 30.609375 48.390625 
Q 23.390625 48.390625 19.1875 42.75 
Q 14.984375 37.109375 14.984375 27.296875 
Q 14.984375 17.484375 19.15625 11.84375 
Q 23.34375 6.203125 30.609375 6.203125 
Q 37.796875 6.203125 41.984375 11.859375 
Q 46.1875 17.53125 46.1875 27.296875 
Q 46.1875 37.015625 41.984375 42.703125 
Q 37.796875 48.390625 30.609375 48.390625 
z
M 30.609375 56 
Q 42.328125 56 49.015625 48.375 
Q 55.71875 40.765625 55.71875 27.296875 
Q 55.71875 13.875 49.015625 6.21875 
Q 42.328125 -1.421875 30.609375 -1.421875 
Q 18.84375 -1.421875 12.171875 6.21875 
Q 5.515625 13.875 5.515625 27.296875 
Q 5.515625 40.765625 12.171875 48.375 
Q 18.84375 56 30.609375 56 
z
" id="DejaVuSans-111"/>
      <path d="M 52 44.1875 
Q 55.375 50.25 60.0625 53.125 
Q 64.75 56 71.09375 56 
Q 79.640625 56 84.28125 50.015625 
Q 88.921875 44.046875 88.921875 33.015625 
L 88.921875 0 
L 79.890625 0 
L 79.890625 32.71875 
Q 79.890625 40.578125 77.09375 44.375 
Q 74.3125 48.1875 68.609375 48.1875 
Q 61.625 48.1875 57.5625 43.546875 
Q 53.515625 38.921875 53.515625 30.90625 
L 53.515625 0 
L 44.484375 0 
L 44.484375 32.71875 
Q 44.484375 40.625 41.703125 44.40625 
Q 38.921875 48.1875 33.109375 48.1875 
Q 26.21875 48.1875 22.15625 43.53125 
Q 18.109375 38.875 18.109375 30.90625 
L 18.109375 0 
L 9.078125 0 
L 9.078125 54.6875 
L 18.109375 54.6875 
L 18.109375 46.1875 
Q 21.1875 51.21875 25.484375 53.609375 
Q 29.78125 56 35.6875 56 
Q 41.65625 56 45.828125 52.96875 
Q 50 49.953125 52 44.1875 
z
" id="DejaVuSans-109"/>
      <path d="M 9.421875 54.6875 
L 18.40625 54.6875 
L 18.40625 0 
L 9.421875 0 
z
M 9.421875 75.984375 
L 18.40625 75.984375 
L 18.40625 64.59375 
L 9.421875 64.59375 
z
" id="DejaVuSans-105"/>
      <path d="M 18.3125 70.21875 
L 18.3125 54.6875 
L 36.8125 54.6875 
L 36.8125 47.703125 
L 18.3125 47.703125 
L 18.3125 18.015625 
Q 18.3125 11.328125 20.140625 9.421875 
Q 21.96875 7.515625 27.59375 7.515625 
L 36.8125 7.515625 
L 36.8125 0 
L 27.59375 0 
Q 17.1875 0 13.234375 3.875 
Q 9.28125 7.765625 9.28125 18.015625 
L 9.28125 47.703125 
L 2.6875 47.703125 
L 2.6875 54.6875 
L 9.28125 54.6875 
L 9.28125 70.21875 
z
" id="DejaVuSans-116"/>
      <path d="M 32.171875 -5.078125 
Q 28.375 -14.84375 24.75 -17.8125 
Q 21.140625 -20.796875 15.09375 -20.796875 
L 7.90625 -20.796875 
L 7.90625 -13.28125 
L 13.1875 -13.28125 
Q 16.890625 -13.28125 18.9375 -11.515625 
Q 21 -9.765625 23.484375 -3.21875 
L 25.09375 0.875 
L 2.984375 54.6875 
L 12.5 54.6875 
L 29.59375 11.921875 
L 46.6875 54.6875 
L 56.203125 54.6875 
z
" id="DejaVuSans-121"/>
     </defs>
     <use xlink:href="#DejaVuSans-67"/>
     <use x="69.824219" xlink:href="#DejaVuSans-101"/>
     <use x="131.347656" xlink:href="#DejaVuSans-110"/>
     <use x="194.726562" xlink:href="#DejaVuSans-115"/>
     <use x="246.826172" xlink:href="#DejaVuSans-117"/>
     <use x="310.205078" xlink:href="#DejaVuSans-115"/>
     <use x="362.304688" xlink:href="#DejaVuSans-32"/>
     <use x="394.091797" xlink:href="#DejaVuSans-99"/>
     <use x="449.072266" xlink:href="#DejaVuSans-111"/>
     <use x="510.253906" xlink:href="#DejaVuSans-109"/>
     <use x="607.666016" xlink:href="#DejaVuSans-109"/>
     <use x="705.078125" xlink:href="#DejaVuSans-117"/>
     <use x="768.457031" xlink:href="#DejaVuSans-110"/>
     <use x="831.835938" xlink:href="#DejaVuSans-105"/>
     <use x="859.619141" xlink:href="#DejaVuSans-116"/>
     <use x="898.828125" xlink:href="#DejaVuSans-121"/>
    </g>
   </g>
  </g>
  <g id="axes_2">
   <g id="patch_7">
    <path d="M 36 153.766957 
L 259.2 153.766957 
L 259.2 111.193043 
L 36 111.193043 
z
" style="fill:#ffffff;"/>
   </g>
   <g id="matplotlib.axis_3">
    <g id="xtick_7">
     <g id="line2d_13">
      <g>
       <use style="stroke:#000000;stroke-width:0.8;" x="36" xlink:href="#m8061bdeda5" y="153.766957"/>
      </g>
     </g>
     <g id="text_11">
      <!-- 0 -->
      <g transform="translate(32.81875 168.365394)scale(0.1 -0.1)">
       <use xlink:href="#DejaVuSans-48"/>
      </g>
     </g>
    </g>
    <g id="xtick_8">
     <g id="line2d_14">
      <g>
       <use style="stroke:#000000;stroke-width:0.8;" x="80.64" xlink:href="#m8061bdeda5" y="153.766957"/>
      </g>
     </g>
     <g id="text_12">
      <!-- 20 -->
      <g transform="translate(74.2775 168.365394)scale(0.1 -0.1)">
       <use xlink:href="#DejaVuSans-50"/>
       <use x="63.623047" xlink:href="#DejaVuSans-48"/>
      </g>
     </g>
    </g>
    <g id="xtick_9">
     <g id="line2d_15">
      <g>
       <use style="stroke:#000000;stroke-width:0.8;" x="125.28" xlink:href="#m8061bdeda5" y="153.766957"/>
      </g>
     </g>
     <g id="text_13">
      <!-- 40 -->
      <g transform="translate(118.9175 168.365394)scale(0.1 -0.1)">
       <use xlink:href="#DejaVuSans-52"/>
       <use x="63.623047" xlink:href="#DejaVuSans-48"/>
      </g>
     </g>
    </g>
    <g id="xtick_10">
     <g id="line2d_16">
      <g>
       <use style="stroke:#000000;stroke-width:0.8;" x="169.92" xlink:href="#m8061bdeda5" y="153.766957"/>
      </g>
     </g>
     <g id="text_14">
      <!-- 60 -->
      <g transform="translate(163.5575 168.365394)scale(0.1 -0.1)">
       <use xlink:href="#DejaVuSans-54"/>
       <use x="63.623047" xlink:href="#DejaVuSans-48"/>
      </g>
     </g>
    </g>
    <g id="xtick_11">
     <g id="line2d_17">
      <g>
       <use style="stroke:#000000;stroke-width:0.8;" x="214.56" xlink:href="#m8061bdeda5" y="153.766957"/>
      </g>
     </g>
     <g id="text_15">
      <!-- 80 -->
      <g transform="translate(208.1975 168.365394)scale(0.1 -0.1)">
       <use xlink:href="#DejaVuSans-56"/>
       <use x="63.623047" xlink:href="#DejaVuSans-48"/>
      </g>
     </g>
    </g>
    <g id="xtick_12">
     <g id="line2d_18">
      <g>
       <use style="stroke:#000000;stroke-width:0.8;" x="259.2" xlink:href="#m8061bdeda5" y="153.766957"/>
      </g>
     </g>
     <g id="text_16">
      <!-- 100 -->
      <g transform="translate(249.65625 168.365394)scale(0.1 -0.1)">
       <use xlink:href="#DejaVuSans-49"/>
       <use x="63.623047" xlink:href="#DejaVuSans-48"/>
       <use x="127.246094" xlink:href="#DejaVuSans-48"/>
      </g>
     </g>
    </g>
   </g>
   <g id="matplotlib.axis_4">
    <g id="ytick_4">
     <g id="line2d_19">
      <g>
       <use style="stroke:#000000;stroke-width:0.8;" x="36" xlink:href="#m0cbd664e22" y="153.766957"/>
      </g>
     </g>
     <g id="text_17">
      <!-- 0 -->
      <g transform="translate(22.6375 157.566175)scale(0.1 -0.1)">
       <use xlink:href="#DejaVuSans-48"/>
      </g>
     </g>
    </g>
    <g id="ytick_5">
     <g id="line2d_20">
      <g>
       <use style="stroke:#000000;stroke-width:0.8;" x="36" xlink:href="#m0cbd664e22" y="132.48"/>
      </g>
     </g>
     <g id="text_18">
      <!-- 30 -->
      <g transform="translate(16.275 136.279219)scale(0.1 -0.1)">
       <defs>
        <path d="M 40.578125 39.3125 
Q 47.65625 37.796875 51.625 33 
Q 55.609375 28.21875 55.609375 21.1875 
Q 55.609375 10.40625 48.1875 4.484375 
Q 40.765625 -1.421875 27.09375 -1.421875 
Q 22.515625 -1.421875 17.65625 -0.515625 
Q 12.796875 0.390625 7.625 2.203125 
L 7.625 11.71875 
Q 11.71875 9.328125 16.59375 8.109375 
Q 21.484375 6.890625 26.8125 6.890625 
Q 36.078125 6.890625 40.9375 10.546875 
Q 45.796875 14.203125 45.796875 21.1875 
Q 45.796875 27.640625 41.28125 31.265625 
Q 36.765625 34.90625 28.71875 34.90625 
L 20.21875 34.90625 
L 20.21875 43.015625 
L 29.109375 43.015625 
Q 36.375 43.015625 40.234375 45.921875 
Q 44.09375 48.828125 44.09375 54.296875 
Q 44.09375 59.90625 40.109375 62.90625 
Q 36.140625 65.921875 28.71875 65.921875 
Q 24.65625 65.921875 20.015625 65.03125 
Q 15.375 64.15625 9.8125 62.3125 
L 9.8125 71.09375 
Q 15.4375 72.65625 20.34375 73.4375 
Q 25.25 74.21875 29.59375 74.21875 
Q 40.828125 74.21875 47.359375 69.109375 
Q 53.90625 64.015625 53.90625 55.328125 
Q 53.90625 49.265625 50.4375 45.09375 
Q 46.96875 40.921875 40.578125 39.3125 
z
" id="DejaVuSans-51"/>
       </defs>
       <use xlink:href="#DejaVuSans-51"/>
       <use x="63.623047" xlink:href="#DejaVuSans-48"/>
      </g>
     </g>
    </g>
    <g id="ytick_6">
     <g id="line2d_21">
      <g>
       <use style="stroke:#000000;stroke-width:0.8;" x="36" xlink:href="#m0cbd664e22" y="111.193043"/>
      </g>
     </g>
     <g id="text_19">
      <!-- 60 -->
      <g transform="translate(16.275 114.992262)scale(0.1 -0.1)">
       <use xlink:href="#DejaVuSans-54"/>
       <use x="63.623047" xlink:href="#DejaVuSans-48"/>
      </g>
     </g>
    </g>
    <g id="text_20">
     <!-- Quality (%) -->
     <g transform="translate(10.195312 160.587812)rotate(-90)scale(0.1 -0.1)">
      <defs>
       <path d="M 39.40625 66.21875 
Q 28.65625 66.21875 22.328125 58.203125 
Q 16.015625 50.203125 16.015625 36.375 
Q 16.015625 22.609375 22.328125 14.59375 
Q 28.65625 6.59375 39.40625 6.59375 
Q 50.140625 6.59375 56.421875 14.59375 
Q 62.703125 22.609375 62.703125 36.375 
Q 62.703125 50.203125 56.421875 58.203125 
Q 50.140625 66.21875 39.40625 66.21875 
z
M 53.21875 1.3125 
L 66.21875 -12.890625 
L 54.296875 -12.890625 
L 43.5 -1.21875 
Q 41.890625 -1.3125 41.03125 -1.359375 
Q 40.1875 -1.421875 39.40625 -1.421875 
Q 24.03125 -1.421875 14.8125 8.859375 
Q 5.609375 19.140625 5.609375 36.375 
Q 5.609375 53.65625 14.8125 63.9375 
Q 24.03125 74.21875 39.40625 74.21875 
Q 54.734375 74.21875 63.90625 63.9375 
Q 73.09375 53.65625 73.09375 36.375 
Q 73.09375 23.6875 67.984375 14.640625 
Q 62.890625 5.609375 53.21875 1.3125 
z
" id="DejaVuSans-81"/>
       <path d="M 34.28125 27.484375 
Q 23.390625 27.484375 19.1875 25 
Q 14.984375 22.515625 14.984375 16.5 
Q 14.984375 11.71875 18.140625 8.90625 
Q 21.296875 6.109375 26.703125 6.109375 
Q 34.1875 6.109375 38.703125 11.40625 
Q 43.21875 16.703125 43.21875 25.484375 
L 43.21875 27.484375 
z
M 52.203125 31.203125 
L 52.203125 0 
L 43.21875 0 
L 43.21875 8.296875 
Q 40.140625 3.328125 35.546875 0.953125 
Q 30.953125 -1.421875 24.3125 -1.421875 
Q 15.921875 -1.421875 10.953125 3.296875 
Q 6 8.015625 6 15.921875 
Q 6 25.140625 12.171875 29.828125 
Q 18.359375 34.515625 30.609375 34.515625 
L 43.21875 34.515625 
L 43.21875 35.40625 
Q 43.21875 41.609375 39.140625 45 
Q 35.0625 48.390625 27.6875 48.390625 
Q 23 48.390625 18.546875 47.265625 
Q 14.109375 46.140625 10.015625 43.890625 
L 10.015625 52.203125 
Q 14.9375 54.109375 19.578125 55.046875 
Q 24.21875 56 28.609375 56 
Q 40.484375 56 46.34375 49.84375 
Q 52.203125 43.703125 52.203125 31.203125 
z
" id="DejaVuSans-97"/>
       <path d="M 9.421875 75.984375 
L 18.40625 75.984375 
L 18.40625 0 
L 9.421875 0 
z
" id="DejaVuSans-108"/>
       <path d="M 31 75.875 
Q 24.46875 64.65625 21.28125 53.65625 
Q 18.109375 42.671875 18.109375 31.390625 
Q 18.109375 20.125 21.3125 9.0625 
Q 24.515625 -2 31 -13.1875 
L 23.1875 -13.1875 
Q 15.875 -1.703125 12.234375 9.375 
Q 8.59375 20.453125 8.59375 31.390625 
Q 8.59375 42.28125 12.203125 53.3125 
Q 15.828125 64.359375 23.1875 75.875 
z
" id="DejaVuSans-40"/>
       <path d="M 72.703125 32.078125 
Q 68.453125 32.078125 66.03125 28.46875 
Q 63.625 24.859375 63.625 18.40625 
Q 63.625 12.0625 66.03125 8.421875 
Q 68.453125 4.78125 72.703125 4.78125 
Q 76.859375 4.78125 79.265625 8.421875 
Q 81.6875 12.0625 81.6875 18.40625 
Q 81.6875 24.8125 79.265625 28.4375 
Q 76.859375 32.078125 72.703125 32.078125 
z
M 72.703125 38.28125 
Q 80.421875 38.28125 84.953125 32.90625 
Q 89.5 27.546875 89.5 18.40625 
Q 89.5 9.28125 84.9375 3.921875 
Q 80.375 -1.421875 72.703125 -1.421875 
Q 64.890625 -1.421875 60.34375 3.921875 
Q 55.8125 9.28125 55.8125 18.40625 
Q 55.8125 27.59375 60.375 32.9375 
Q 64.9375 38.28125 72.703125 38.28125 
z
M 22.3125 68.015625 
Q 18.109375 68.015625 15.6875 64.375 
Q 13.28125 60.75 13.28125 54.390625 
Q 13.28125 47.953125 15.671875 44.328125 
Q 18.0625 40.71875 22.3125 40.71875 
Q 26.5625 40.71875 28.96875 44.328125 
Q 31.390625 47.953125 31.390625 54.390625 
Q 31.390625 60.6875 28.953125 64.34375 
Q 26.515625 68.015625 22.3125 68.015625 
z
M 66.40625 74.21875 
L 74.21875 74.21875 
L 28.609375 -1.421875 
L 20.796875 -1.421875 
z
M 22.3125 74.21875 
Q 30.03125 74.21875 34.609375 68.875 
Q 39.203125 63.53125 39.203125 54.390625 
Q 39.203125 45.171875 34.640625 39.84375 
Q 30.078125 34.515625 22.3125 34.515625 
Q 14.546875 34.515625 10.03125 39.859375 
Q 5.515625 45.21875 5.515625 54.390625 
Q 5.515625 63.484375 10.046875 68.84375 
Q 14.59375 74.21875 22.3125 74.21875 
z
" id="DejaVuSans-37"/>
       <path d="M 8.015625 75.875 
L 15.828125 75.875 
Q 23.140625 64.359375 26.78125 53.3125 
Q 30.421875 42.28125 30.421875 31.390625 
Q 30.421875 20.453125 26.78125 9.375 
Q 23.140625 -1.703125 15.828125 -13.1875 
L 8.015625 -13.1875 
Q 14.5 -2 17.703125 9.0625 
Q 20.90625 20.125 20.90625 31.390625 
Q 20.90625 42.671875 17.703125 53.65625 
Q 14.5 64.65625 8.015625 75.875 
z
" id="DejaVuSans-41"/>
      </defs>
      <use xlink:href="#DejaVuSans-81"/>
      <use x="78.710938" xlink:href="#DejaVuSans-117"/>
      <use x="142.089844" xlink:href="#DejaVuSans-97"/>
      <use x="203.369141" xlink:href="#DejaVuSans-108"/>
      <use x="231.152344" xlink:href="#DejaVuSans-105"/>
      <use x="258.935547" xlink:href="#DejaVuSans-116"/>
      <use x="298.144531" xlink:href="#DejaVuSans-121"/>
      <use x="357.324219" xlink:href="#DejaVuSans-32"/>
      <use x="389.111328" xlink:href="#DejaVuSans-40"/>
      <use x="428.125" xlink:href="#DejaVuSans-37"/>
      <use x="523.144531" xlink:href="#DejaVuSans-41"/>
     </g>
    </g>
   </g>
   <g id="line2d_22">
    <path clip-path="url(#pa9a1c6a080)" d="M 36 153.766957 
L 38.254545 145.227226 
L 40.509091 144.356535 
L 42.763636 144.272677 
L 45.018182 144.202791 
L 47.272727 144.132904 
L 49.527273 144.063017 
L 51.781818 143.99313 
L 54.036364 143.923243 
L 56.290909 143.853357 
L 58.545455 143.771513 
L 60.8 143.562016 
L 63.054545 143.328138 
L 65.309091 143.09426 
L 67.563636 142.860382 
L 69.818182 142.626504 
L 72.072727 142.392627 
L 74.327273 142.16537 
L 76.581818 141.986352 
L 78.836364 141.828509 
L 81.090909 141.670666 
L 83.345455 141.512823 
L 85.6 141.35498 
L 87.854545 141.197137 
L 90.109091 141.039294 
L 92.363636 140.881451 
L 94.618182 140.723608 
L 96.872727 140.565764 
L 99.127273 140.407921 
L 101.381818 140.250078 
L 103.636364 140.092235 
L 105.890909 139.934392 
L 108.145455 139.776549 
L 110.4 139.618706 
L 112.654545 139.460863 
L 114.909091 139.30302 
L 117.163636 139.145177 
L 119.418182 138.987334 
L 121.672727 138.829491 
L 123.927273 138.671648 
L 126.181818 138.513805 
L 128.436364 138.355962 
L 130.690909 138.198118 
L 132.945455 138.040275 
L 135.2 137.882432 
L 137.454545 137.724589 
L 139.709091 137.566746 
L 141.963636 137.408903 
L 144.218182 137.25106 
L 146.472727 137.093217 
L 148.727273 136.935374 
L 150.981818 136.777531 
L 153.236364 136.619688 
L 155.490909 136.461845 
L 157.745455 136.304002 
L 160 135.554999 
L 162.254545 132.982058 
L 164.509091 129.723526 
L 166.763636 129.585815 
L 169.018182 129.573807 
L 171.272727 129.573807 
L 173.527273 129.573807 
L 175.781818 129.573807 
L 178.036364 129.573807 
L 180.290909 129.573807 
L 182.545455 129.573807 
L 184.8 129.573807 
L 187.054545 129.573807 
L 189.309091 129.573807 
L 191.563636 129.573807 
L 193.818182 129.573807 
L 196.072727 129.573807 
L 198.327273 129.573807 
L 200.581818 129.573807 
L 202.836364 129.573807 
L 205.090909 129.573807 
L 207.345455 129.573807 
L 209.6 129.573807 
L 211.854545 129.573807 
L 214.109091 129.573807 
L 216.363636 129.573807 
L 218.618182 129.573807 
L 220.872727 129.573807 
L 223.127273 129.573807 
L 225.381818 129.573807 
L 227.636364 129.573807 
L 229.890909 129.573807 
L 232.145455 129.573807 
L 234.4 129.573807 
L 236.654545 129.573807 
L 238.909091 129.573807 
L 241.163636 129.573807 
L 243.418182 129.573807 
L 245.672727 129.573807 
L 247.927273 129.573807 
L 250.181818 129.573807 
L 252.436364 129.573807 
L 254.690909 129.573807 
L 256.945455 129.573807 
L 259.2 129.573807 
" style="fill:none;stroke:#da70d6;stroke-linecap:square;stroke-width:1.5;"/>
   </g>
   <g id="line2d_23">
    <path clip-path="url(#pa9a1c6a080)" d="M 36 153.766957 
L 38.254545 133.931533 
L 40.509091 129.689246 
L 42.763636 127.954177 
L 45.018182 126.866619 
L 47.272727 125.73371 
L 49.527273 125.342786 
L 51.781818 125.065344 
L 54.036364 124.322953 
L 56.290909 123.718983 
L 58.545455 122.920543 
L 60.8 122.622531 
L 63.054545 122.197621 
L 65.309091 121.664113 
L 67.563636 121.283999 
L 69.818182 120.943246 
L 72.072727 120.626359 
L 74.327273 120.363383 
L 76.581818 119.809 
L 78.836364 119.601851 
L 81.090909 119.391943 
L 83.345455 119.200613 
L 85.6 119.149507 
L 87.854545 119.114143 
L 90.109091 119.040796 
L 92.363636 118.871306 
L 94.618182 118.746714 
L 96.872727 118.65235 
L 99.127273 118.638377 
L 101.381818 118.621217 
L 103.636364 118.599673 
L 105.890909 118.57879 
L 108.145455 118.526183 
L 110.4 118.483895 
L 112.654545 118.431122 
L 114.909091 118.425164 
L 117.163636 118.416567 
L 119.418182 118.407781 
L 121.672727 118.398995 
L 123.927273 118.390209 
L 126.181818 118.381423 
L 128.436364 118.373646 
L 130.690909 118.36964 
L 132.945455 118.365635 
L 135.2 118.362117 
L 137.454545 118.359979 
L 139.709091 118.357739 
L 141.963636 118.354549 
L 144.218182 118.351359 
L 146.472727 118.348169 
L 148.727273 118.344979 
L 150.981818 118.342483 
L 153.236364 118.341431 
L 155.490909 118.316294 
L 157.745455 118.299499 
L 160 118.297139 
L 162.254545 118.294779 
L 164.509091 118.292488 
L 166.763636 118.291181 
L 169.018182 118.289873 
L 171.272727 118.288566 
L 173.527273 118.287441 
L 175.781818 118.286905 
L 178.036364 118.286369 
L 180.290909 118.285833 
L 182.545455 118.285297 
L 184.8 118.28522 
L 187.054545 118.28522 
L 189.309091 118.28522 
L 191.563636 118.28522 
L 193.818182 118.28522 
L 196.072727 118.28522 
L 198.327273 118.28522 
L 200.581818 118.28522 
L 202.836364 118.28522 
L 205.090909 118.28522 
L 207.345455 118.28522 
L 209.6 118.28522 
L 211.854545 118.28522 
L 214.109091 118.28522 
L 216.363636 118.28522 
L 218.618182 118.28522 
L 220.872727 118.28522 
L 223.127273 118.28522 
L 225.381818 118.28522 
L 227.636364 118.28522 
L 229.890909 118.28522 
L 232.145455 118.28522 
L 234.4 118.28522 
L 236.654545 118.28522 
L 238.909091 118.28522 
L 241.163636 118.28522 
L 243.418182 118.28522 
L 245.672727 118.28522 
L 247.927273 118.28522 
L 250.181818 118.28522 
L 252.436364 118.28522 
L 254.690909 118.28522 
L 256.945455 118.28522 
L 259.2 118.28522 
" style="fill:none;stroke:#daa520;stroke-linecap:square;stroke-width:1.5;"/>
   </g>
   <g id="line2d_24">
    <path clip-path="url(#pa9a1c6a080)" d="M 36 153.766957 
L 38.254545 128.353136 
L 40.509091 123.383264 
L 42.763636 120.500664 
L 45.018182 119.880664 
L 47.272727 119.65811 
L 49.527273 119.435556 
L 51.781818 119.213002 
L 54.036364 118.990448 
L 56.290909 118.782607 
L 58.545455 118.770814 
L 60.8 118.770814 
L 63.054545 118.770814 
L 65.309091 118.770814 
L 67.563636 118.770814 
L 69.818182 118.770814 
L 72.072727 118.770814 
L 74.327273 118.770814 
L 76.581818 118.770814 
L 78.836364 118.770814 
L 81.090909 118.770814 
L 83.345455 118.770814 
L 85.6 118.770814 
L 87.854545 118.770814 
L 90.109091 118.770814 
L 92.363636 118.770814 
L 94.618182 118.770814 
L 96.872727 118.770814 
L 99.127273 118.770814 
L 101.381818 118.770814 
L 103.636364 118.770814 
L 105.890909 118.770814 
L 108.145455 118.770814 
L 110.4 118.770814 
L 112.654545 118.770814 
L 114.909091 118.770814 
L 117.163636 118.770814 
L 119.418182 118.770814 
L 121.672727 118.770814 
L 123.927273 118.770814 
L 126.181818 118.770814 
L 128.436364 118.770814 
L 130.690909 118.770814 
L 132.945455 118.770814 
L 135.2 118.770814 
L 137.454545 118.770814 
L 139.709091 118.770814 
L 141.963636 118.770814 
L 144.218182 118.770814 
L 146.472727 118.770814 
L 148.727273 118.770814 
L 150.981818 118.770814 
L 153.236364 118.770814 
L 155.490909 118.770814 
L 157.745455 118.770814 
L 160 118.770814 
L 162.254545 118.770814 
L 164.509091 118.770814 
L 166.763636 118.770814 
L 169.018182 118.770814 
L 171.272727 118.770814 
L 173.527273 118.770814 
L 175.781818 118.770814 
L 178.036364 118.770814 
L 180.290909 118.770814 
L 182.545455 118.770814 
L 184.8 118.770814 
L 187.054545 118.770814 
L 189.309091 118.770814 
L 191.563636 118.770814 
L 193.818182 118.770814 
L 196.072727 118.770814 
L 198.327273 118.770814 
L 200.581818 118.770814 
L 202.836364 118.770814 
L 205.090909 118.770814 
L 207.345455 118.770814 
L 209.6 118.770814 
L 211.854545 118.770814 
L 214.109091 118.770814 
L 216.363636 118.770814 
L 218.618182 118.770814 
L 220.872727 118.770814 
L 223.127273 118.770814 
L 225.381818 118.770814 
L 227.636364 118.770814 
L 229.890909 118.770814 
L 232.145455 118.770814 
L 234.4 118.770814 
L 236.654545 118.770814 
L 238.909091 118.770814 
L 241.163636 118.770814 
L 243.418182 118.770814 
L 245.672727 118.770814 
L 247.927273 118.770814 
L 250.181818 118.770814 
L 252.436364 118.770814 
L 254.690909 118.770814 
L 256.945455 118.770814 
L 259.2 118.770814 
" style="fill:none;stroke:#00bfff;stroke-linecap:square;stroke-width:1.5;"/>
   </g>
   <g id="patch_8">
    <path d="M 36 153.766957 
L 36 111.193043 
" style="fill:none;stroke:#000000;stroke-linecap:square;stroke-linejoin:miter;stroke-width:0.8;"/>
   </g>
   <g id="patch_9">
    <path d="M 259.2 153.766957 
L 259.2 111.193043 
" style="fill:none;stroke:#000000;stroke-linecap:square;stroke-linejoin:miter;stroke-width:0.8;"/>
   </g>
   <g id="patch_10">
    <path d="M 36 153.766957 
L 259.2 153.766957 
" style="fill:none;stroke:#000000;stroke-linecap:square;stroke-linejoin:miter;stroke-width:0.8;"/>
   </g>
   <g id="patch_11">
    <path d="M 36 111.193043 
L 259.2 111.193043 
" style="fill:none;stroke:#000000;stroke-linecap:square;stroke-linejoin:miter;stroke-width:0.8;"/>
   </g>
   <g id="text_21">
    <!-- Credit card -->
    <g transform="translate(122.778984 105.193043)scale(0.09 -0.09)">
     <defs>
      <path d="M 41.109375 46.296875 
Q 39.59375 47.171875 37.8125 47.578125 
Q 36.03125 48 33.890625 48 
Q 26.265625 48 22.1875 43.046875 
Q 18.109375 38.09375 18.109375 28.8125 
L 18.109375 0 
L 9.078125 0 
L 9.078125 54.6875 
L 18.109375 54.6875 
L 18.109375 46.1875 
Q 20.953125 51.171875 25.484375 53.578125 
Q 30.03125 56 36.53125 56 
Q 37.453125 56 38.578125 55.875 
Q 39.703125 55.765625 41.0625 55.515625 
z
" id="DejaVuSans-114"/>
      <path d="M 45.40625 46.390625 
L 45.40625 75.984375 
L 54.390625 75.984375 
L 54.390625 0 
L 45.40625 0 
L 45.40625 8.203125 
Q 42.578125 3.328125 38.25 0.953125 
Q 33.9375 -1.421875 27.875 -1.421875 
Q 17.96875 -1.421875 11.734375 6.484375 
Q 5.515625 14.40625 5.515625 27.296875 
Q 5.515625 40.1875 11.734375 48.09375 
Q 17.96875 56 27.875 56 
Q 33.9375 56 38.25 53.625 
Q 42.578125 51.265625 45.40625 46.390625 
z
M 14.796875 27.296875 
Q 14.796875 17.390625 18.875 11.75 
Q 22.953125 6.109375 30.078125 6.109375 
Q 37.203125 6.109375 41.296875 11.75 
Q 45.40625 17.390625 45.40625 27.296875 
Q 45.40625 37.203125 41.296875 42.84375 
Q 37.203125 48.484375 30.078125 48.484375 
Q 22.953125 48.484375 18.875 42.84375 
Q 14.796875 37.203125 14.796875 27.296875 
z
" id="DejaVuSans-100"/>
     </defs>
     <use xlink:href="#DejaVuSans-67"/>
     <use x="69.824219" xlink:href="#DejaVuSans-114"/>
     <use x="108.6875" xlink:href="#DejaVuSans-101"/>
     <use x="170.210938" xlink:href="#DejaVuSans-100"/>
     <use x="233.6875" xlink:href="#DejaVuSans-105"/>
     <use x="261.470703" xlink:href="#DejaVuSans-116"/>
     <use x="300.679688" xlink:href="#DejaVuSans-32"/>
     <use x="332.466797" xlink:href="#DejaVuSans-99"/>
     <use x="387.447266" xlink:href="#DejaVuSans-97"/>
     <use x="448.726562" xlink:href="#DejaVuSans-114"/>
     <use x="488.089844" xlink:href="#DejaVuSans-100"/>
    </g>
   </g>
  </g>
  <g id="axes_3">
   <g id="patch_12">
    <path d="M 36 230.4 
L 259.2 230.4 
L 259.2 187.826087 
L 36 187.826087 
z
" style="fill:#ffffff;"/>
   </g>
   <g id="matplotlib.axis_5">
    <g id="xtick_13">
     <g id="line2d_25">
      <g>
       <use style="stroke:#000000;stroke-width:0.8;" x="36" xlink:href="#m8061bdeda5" y="230.4"/>
      </g>
     </g>
     <g id="text_22">
      <!-- 0 -->
      <g transform="translate(32.81875 244.998438)scale(0.1 -0.1)">
       <use xlink:href="#DejaVuSans-48"/>
      </g>
     </g>
    </g>
    <g id="xtick_14">
     <g id="line2d_26">
      <g>
       <use style="stroke:#000000;stroke-width:0.8;" x="80.64" xlink:href="#m8061bdeda5" y="230.4"/>
      </g>
     </g>
     <g id="text_23">
      <!-- 20 -->
      <g transform="translate(74.2775 244.998438)scale(0.1 -0.1)">
       <use xlink:href="#DejaVuSans-50"/>
       <use x="63.623047" xlink:href="#DejaVuSans-48"/>
      </g>
     </g>
    </g>
    <g id="xtick_15">
     <g id="line2d_27">
      <g>
       <use style="stroke:#000000;stroke-width:0.8;" x="125.28" xlink:href="#m8061bdeda5" y="230.4"/>
      </g>
     </g>
     <g id="text_24">
      <!-- 40 -->
      <g transform="translate(118.9175 244.998438)scale(0.1 -0.1)">
       <use xlink:href="#DejaVuSans-52"/>
       <use x="63.623047" xlink:href="#DejaVuSans-48"/>
      </g>
     </g>
    </g>
    <g id="xtick_16">
     <g id="line2d_28">
      <g>
       <use style="stroke:#000000;stroke-width:0.8;" x="169.92" xlink:href="#m8061bdeda5" y="230.4"/>
      </g>
     </g>
     <g id="text_25">
      <!-- 60 -->
      <g transform="translate(163.5575 244.998438)scale(0.1 -0.1)">
       <use xlink:href="#DejaVuSans-54"/>
       <use x="63.623047" xlink:href="#DejaVuSans-48"/>
      </g>
     </g>
    </g>
    <g id="xtick_17">
     <g id="line2d_29">
      <g>
       <use style="stroke:#000000;stroke-width:0.8;" x="214.56" xlink:href="#m8061bdeda5" y="230.4"/>
      </g>
     </g>
     <g id="text_26">
      <!-- 80 -->
      <g transform="translate(208.1975 244.998438)scale(0.1 -0.1)">
       <use xlink:href="#DejaVuSans-56"/>
       <use x="63.623047" xlink:href="#DejaVuSans-48"/>
      </g>
     </g>
    </g>
    <g id="xtick_18">
     <g id="line2d_30">
      <g>
       <use style="stroke:#000000;stroke-width:0.8;" x="259.2" xlink:href="#m8061bdeda5" y="230.4"/>
      </g>
     </g>
     <g id="text_27">
      <!-- 100 -->
      <g transform="translate(249.65625 244.998438)scale(0.1 -0.1)">
       <use xlink:href="#DejaVuSans-49"/>
       <use x="63.623047" xlink:href="#DejaVuSans-48"/>
       <use x="127.246094" xlink:href="#DejaVuSans-48"/>
      </g>
     </g>
    </g>
    <g id="text_28">
     <!-- Time (s) -->
     <g transform="translate(127.271094 258.676563)scale(0.1 -0.1)">
      <defs>
       <path d="M -0.296875 72.90625 
L 61.375 72.90625 
L 61.375 64.59375 
L 35.5 64.59375 
L 35.5 0 
L 25.59375 0 
L 25.59375 64.59375 
L -0.296875 64.59375 
z
" id="DejaVuSans-84"/>
      </defs>
      <use xlink:href="#DejaVuSans-84"/>
      <use x="57.958984" xlink:href="#DejaVuSans-105"/>
      <use x="85.742188" xlink:href="#DejaVuSans-109"/>
      <use x="183.154297" xlink:href="#DejaVuSans-101"/>
      <use x="244.677734" xlink:href="#DejaVuSans-32"/>
      <use x="276.464844" xlink:href="#DejaVuSans-40"/>
      <use x="315.478516" xlink:href="#DejaVuSans-115"/>
      <use x="367.578125" xlink:href="#DejaVuSans-41"/>
     </g>
    </g>
   </g>
   <g id="matplotlib.axis_6">
    <g id="ytick_7">
     <g id="line2d_31">
      <g>
       <use style="stroke:#000000;stroke-width:0.8;" x="36" xlink:href="#m0cbd664e22" y="230.4"/>
      </g>
     </g>
     <g id="text_29">
      <!-- 0 -->
      <g transform="translate(22.6375 234.199219)scale(0.1 -0.1)">
       <use xlink:href="#DejaVuSans-48"/>
      </g>
     </g>
    </g>
    <g id="ytick_8">
     <g id="line2d_32">
      <g>
       <use style="stroke:#000000;stroke-width:0.8;" x="36" xlink:href="#m0cbd664e22" y="209.113043"/>
      </g>
     </g>
     <g id="text_30">
      <!-- 40 -->
      <g transform="translate(16.275 212.912262)scale(0.1 -0.1)">
       <use xlink:href="#DejaVuSans-52"/>
       <use x="63.623047" xlink:href="#DejaVuSans-48"/>
      </g>
     </g>
    </g>
    <g id="ytick_9">
     <g id="line2d_33">
      <g>
       <use style="stroke:#000000;stroke-width:0.8;" x="36" xlink:href="#m0cbd664e22" y="187.826087"/>
      </g>
     </g>
     <g id="text_31">
      <!-- 80 -->
      <g transform="translate(16.275 191.625306)scale(0.1 -0.1)">
       <use xlink:href="#DejaVuSans-56"/>
       <use x="63.623047" xlink:href="#DejaVuSans-48"/>
      </g>
     </g>
    </g>
   </g>
   <g id="line2d_34">
    <path clip-path="url(#p05f962db90)" d="M 36 230.4 
L 38.254545 228.106369 
L 40.509091 227.407787 
L 42.763636 226.943695 
L 45.018182 225.498199 
L 47.272727 225.314169 
L 49.527273 223.203076 
L 51.781818 221.35601 
L 54.036364 216.786453 
L 56.290909 211.252436 
L 58.545455 206.766963 
L 60.8 202.499255 
L 63.054545 199.719689 
L 65.309091 199.585261 
L 67.563636 199.450833 
L 69.818182 198.912792 
L 72.072727 197.953405 
L 74.327273 197.937014 
L 76.581818 197.920622 
L 78.836364 197.904231 
L 81.090909 197.88784 
L 83.345455 197.871448 
L 85.6 197.855057 
L 87.854545 197.838666 
L 90.109091 197.822274 
L 92.363636 197.805883 
L 94.618182 197.789491 
L 96.872727 197.7731 
L 99.127273 197.756709 
L 101.381818 197.740317 
L 103.636364 197.723926 
L 105.890909 197.707535 
L 108.145455 197.691143 
L 110.4 197.674752 
L 112.654545 197.658361 
L 114.909091 197.642947 
L 117.163636 197.589007 
L 119.418182 197.388094 
L 121.672727 197.112021 
L 123.927273 196.835948 
L 126.181818 196.56712 
L 128.436364 196.360971 
L 130.690909 196.33466 
L 132.945455 196.33466 
L 135.2 196.33466 
L 137.454545 196.33466 
L 139.709091 196.33466 
L 141.963636 196.33466 
L 144.218182 196.33466 
L 146.472727 196.33466 
L 148.727273 196.33466 
L 150.981818 196.33466 
L 153.236364 196.33466 
L 155.490909 196.33466 
L 157.745455 196.33466 
L 160 196.33466 
L 162.254545 196.33466 
L 164.509091 196.33466 
L 166.763636 196.33466 
L 169.018182 196.33466 
L 171.272727 196.33466 
L 173.527273 196.33466 
L 175.781818 196.33466 
L 178.036364 196.33466 
L 180.290909 196.33466 
L 182.545455 196.33466 
L 184.8 196.33466 
L 187.054545 196.33466 
L 189.309091 196.33466 
L 191.563636 196.33466 
L 193.818182 196.33466 
L 196.072727 196.33466 
L 198.327273 196.33466 
L 200.581818 196.33466 
L 202.836364 196.33466 
L 205.090909 196.33466 
L 207.345455 196.33466 
L 209.6 196.33466 
L 211.854545 196.33466 
L 214.109091 196.33466 
L 216.363636 196.33466 
L 218.618182 196.33466 
L 220.872727 196.33466 
L 223.127273 196.33466 
L 225.381818 196.33466 
L 227.636364 196.33466 
L 229.890909 196.33466 
L 232.145455 196.33466 
L 234.4 196.33466 
L 236.654545 196.33466 
L 238.909091 196.33466 
L 241.163636 196.33466 
L 243.418182 196.33466 
L 245.672727 196.33466 
L 247.927273 196.33466 
L 250.181818 196.33466 
L 252.436364 196.33466 
L 254.690909 196.33466 
L 256.945455 196.33466 
L 259.2 196.33466 
" style="fill:none;stroke:#da70d6;stroke-linecap:square;stroke-width:1.5;"/>
   </g>
   <g id="line2d_35">
    <path clip-path="url(#p05f962db90)" d="M 36 230.4 
L 38.254545 201.941046 
L 40.509091 200.279356 
L 42.763636 198.704875 
L 45.018182 198.250903 
L 47.272727 198.004961 
L 49.527273 197.818554 
L 51.781818 197.594565 
L 54.036364 197.289807 
L 56.290909 197.10418 
L 58.545455 196.987611 
L 60.8 196.856318 
L 63.054545 196.640796 
L 65.309091 196.425274 
L 67.563636 196.342572 
L 69.818182 196.288356 
L 72.072727 196.232049 
L 74.327273 196.175741 
L 76.581818 196.119433 
L 78.836364 196.063126 
L 81.090909 196.032032 
L 83.345455 196.021365 
L 85.6 196.010698 
L 87.854545 196.001359 
L 90.109091 195.993086 
L 92.363636 195.984814 
L 94.618182 195.976541 
L 96.872727 195.968268 
L 99.127273 195.959996 
L 101.381818 195.951723 
L 103.636364 195.942598 
L 105.890909 195.933439 
L 108.145455 195.924279 
L 110.4 195.915119 
L 112.654545 195.90596 
L 114.909091 195.8968 
L 117.163636 195.88764 
L 119.418182 195.875132 
L 121.672727 195.84961 
L 123.927273 195.824089 
L 126.181818 195.798567 
L 128.436364 195.773046 
L 130.690909 195.747524 
L 132.945455 195.722003 
L 135.2 195.696481 
L 137.454545 195.67096 
L 139.709091 195.645439 
L 141.963636 195.619917 
L 144.218182 195.612653 
L 146.472727 195.607245 
L 148.727273 195.601838 
L 150.981818 195.596431 
L 153.236364 195.591023 
L 155.490909 195.585616 
L 157.745455 195.580208 
L 160 195.574801 
L 162.254545 195.569394 
L 164.509091 195.563986 
L 166.763636 195.558579 
L 169.018182 195.553171 
L 171.272727 195.547764 
L 173.527273 195.491972 
L 175.781818 195.377154 
L 178.036364 195.300703 
L 180.290909 195.296182 
L 182.545455 195.291662 
L 184.8 195.287142 
L 187.054545 195.282621 
L 189.309091 195.278101 
L 191.563636 195.27358 
L 193.818182 195.271929 
L 196.072727 195.271929 
L 198.327273 195.271929 
L 200.581818 195.271929 
L 202.836364 195.271929 
L 205.090909 195.271929 
L 207.345455 195.271929 
L 209.6 195.271929 
L 211.854545 195.271929 
L 214.109091 195.271929 
L 216.363636 195.271929 
L 218.618182 195.271929 
L 220.872727 195.271929 
L 223.127273 195.271929 
L 225.381818 195.271929 
L 227.636364 195.271929 
L 229.890909 195.271929 
L 232.145455 195.271929 
L 234.4 195.271929 
L 236.654545 195.271929 
L 238.909091 195.271929 
L 241.163636 195.271929 
L 243.418182 195.271929 
L 245.672727 195.271929 
L 247.927273 195.271929 
L 250.181818 195.271929 
L 252.436364 195.271929 
L 254.690909 195.271929 
L 256.945455 195.271929 
L 259.2 195.271929 
" style="fill:none;stroke:#daa520;stroke-linecap:square;stroke-width:1.5;"/>
   </g>
   <g id="line2d_36">
    <path clip-path="url(#p05f962db90)" d="M 36 230.4 
L 38.254545 200.504723 
L 40.509091 197.78841 
L 42.763636 197.783877 
L 45.018182 197.760729 
L 47.272727 197.68371 
L 49.527273 197.606691 
L 51.781818 197.529671 
L 54.036364 197.452652 
L 56.290909 197.375633 
L 58.545455 197.298613 
L 60.8 197.221594 
L 63.054545 197.144575 
L 65.309091 197.067555 
L 67.563636 196.990536 
L 69.818182 196.913517 
L 72.072727 196.836497 
L 74.327273 196.759478 
L 76.581818 196.681035 
L 78.836364 196.477684 
L 81.090909 195.029861 
L 83.345455 195.029861 
L 85.6 195.029861 
L 87.854545 195.029861 
L 90.109091 195.029861 
L 92.363636 195.029861 
L 94.618182 195.029861 
L 96.872727 195.029861 
L 99.127273 195.029861 
L 101.381818 195.029861 
L 103.636364 195.029861 
L 105.890909 195.029861 
L 108.145455 195.029861 
L 110.4 195.029861 
L 112.654545 195.029861 
L 114.909091 195.029861 
L 117.163636 195.029861 
L 119.418182 195.029861 
L 121.672727 195.029861 
L 123.927273 195.029861 
L 126.181818 195.029861 
L 128.436364 195.029861 
L 130.690909 195.029861 
L 132.945455 195.029861 
L 135.2 195.029861 
L 137.454545 195.029861 
L 139.709091 195.029861 
L 141.963636 195.029861 
L 144.218182 195.029861 
L 146.472727 195.029861 
L 148.727273 195.029861 
L 150.981818 195.029861 
L 153.236364 195.029861 
L 155.490909 195.029861 
L 157.745455 195.029861 
L 160 195.029861 
L 162.254545 195.029861 
L 164.509091 195.029861 
L 166.763636 195.029861 
L 169.018182 195.029861 
L 171.272727 195.029861 
L 173.527273 195.029861 
L 175.781818 195.029861 
L 178.036364 195.029861 
L 180.290909 195.029861 
L 182.545455 195.029861 
L 184.8 195.029861 
L 187.054545 195.029861 
L 189.309091 195.029861 
L 191.563636 195.029861 
L 193.818182 195.029861 
L 196.072727 195.029861 
L 198.327273 195.029861 
L 200.581818 195.029861 
L 202.836364 195.029861 
L 205.090909 195.029861 
L 207.345455 195.029861 
L 209.6 195.029861 
L 211.854545 195.029861 
L 214.109091 195.029861 
L 216.363636 195.029861 
L 218.618182 195.029861 
L 220.872727 195.029861 
L 223.127273 195.029861 
L 225.381818 195.029861 
L 227.636364 195.029861 
L 229.890909 195.029861 
L 232.145455 195.029861 
L 234.4 195.029861 
L 236.654545 195.029861 
L 238.909091 195.029861 
L 241.163636 195.029861 
L 243.418182 195.029861 
L 245.672727 195.029861 
L 247.927273 195.029861 
L 250.181818 195.029861 
L 252.436364 195.029861 
L 254.690909 195.029861 
L 256.945455 195.029861 
L 259.2 195.029861 
" style="fill:none;stroke:#00bfff;stroke-linecap:square;stroke-width:1.5;"/>
   </g>
   <g id="patch_13">
    <path d="M 36 230.4 
L 36 187.826087 
" style="fill:none;stroke:#000000;stroke-linecap:square;stroke-linejoin:miter;stroke-width:0.8;"/>
   </g>
   <g id="patch_14">
    <path d="M 259.2 230.4 
L 259.2 187.826087 
" style="fill:none;stroke:#000000;stroke-linecap:square;stroke-linejoin:miter;stroke-width:0.8;"/>
   </g>
   <g id="patch_15">
    <path d="M 36 230.4 
L 259.2 230.4 
" style="fill:none;stroke:#000000;stroke-linecap:square;stroke-linejoin:miter;stroke-width:0.8;"/>
   </g>
   <g id="patch_16">
    <path d="M 36 187.826087 
L 259.2 187.826087 
" style="fill:none;stroke:#000000;stroke-linecap:square;stroke-linejoin:miter;stroke-width:0.8;"/>
   </g>
   <g id="text_32">
    <!-- Psychology test -->
    <g transform="translate(112.282734 181.826087)scale(0.09 -0.09)">
     <defs>
      <path d="M 19.671875 64.796875 
L 19.671875 37.40625 
L 32.078125 37.40625 
Q 38.96875 37.40625 42.71875 40.96875 
Q 46.484375 44.53125 46.484375 51.125 
Q 46.484375 57.671875 42.71875 61.234375 
Q 38.96875 64.796875 32.078125 64.796875 
z
M 9.8125 72.90625 
L 32.078125 72.90625 
Q 44.34375 72.90625 50.609375 67.359375 
Q 56.890625 61.8125 56.890625 51.125 
Q 56.890625 40.328125 50.609375 34.8125 
Q 44.34375 29.296875 32.078125 29.296875 
L 19.671875 29.296875 
L 19.671875 0 
L 9.8125 0 
z
" id="DejaVuSans-80"/>
      <path d="M 54.890625 33.015625 
L 54.890625 0 
L 45.90625 0 
L 45.90625 32.71875 
Q 45.90625 40.484375 42.875 44.328125 
Q 39.84375 48.1875 33.796875 48.1875 
Q 26.515625 48.1875 22.3125 43.546875 
Q 18.109375 38.921875 18.109375 30.90625 
L 18.109375 0 
L 9.078125 0 
L 9.078125 75.984375 
L 18.109375 75.984375 
L 18.109375 46.1875 
Q 21.34375 51.125 25.703125 53.5625 
Q 30.078125 56 35.796875 56 
Q 45.21875 56 50.046875 50.171875 
Q 54.890625 44.34375 54.890625 33.015625 
z
" id="DejaVuSans-104"/>
      <path d="M 45.40625 27.984375 
Q 45.40625 37.75 41.375 43.109375 
Q 37.359375 48.484375 30.078125 48.484375 
Q 22.859375 48.484375 18.828125 43.109375 
Q 14.796875 37.75 14.796875 27.984375 
Q 14.796875 18.265625 18.828125 12.890625 
Q 22.859375 7.515625 30.078125 7.515625 
Q 37.359375 7.515625 41.375 12.890625 
Q 45.40625 18.265625 45.40625 27.984375 
z
M 54.390625 6.78125 
Q 54.390625 -7.171875 48.1875 -13.984375 
Q 42 -20.796875 29.203125 -20.796875 
Q 24.46875 -20.796875 20.265625 -20.09375 
Q 16.0625 -19.390625 12.109375 -17.921875 
L 12.109375 -9.1875 
Q 16.0625 -11.328125 19.921875 -12.34375 
Q 23.78125 -13.375 27.78125 -13.375 
Q 36.625 -13.375 41.015625 -8.765625 
Q 45.40625 -4.15625 45.40625 5.171875 
L 45.40625 9.625 
Q 42.625 4.78125 38.28125 2.390625 
Q 33.9375 0 27.875 0 
Q 17.828125 0 11.671875 7.65625 
Q 5.515625 15.328125 5.515625 27.984375 
Q 5.515625 40.671875 11.671875 48.328125 
Q 17.828125 56 27.875 56 
Q 33.9375 56 38.28125 53.609375 
Q 42.625 51.21875 45.40625 46.390625 
L 45.40625 54.6875 
L 54.390625 54.6875 
z
" id="DejaVuSans-103"/>
     </defs>
     <use xlink:href="#DejaVuSans-80"/>
     <use x="58.552734" xlink:href="#DejaVuSans-115"/>
     <use x="110.652344" xlink:href="#DejaVuSans-121"/>
     <use x="169.832031" xlink:href="#DejaVuSans-99"/>
     <use x="224.8125" xlink:href="#DejaVuSans-104"/>
     <use x="288.191406" xlink:href="#DejaVuSans-111"/>
     <use x="349.373047" xlink:href="#DejaVuSans-108"/>
     <use x="377.15625" xlink:href="#DejaVuSans-111"/>
     <use x="438.337891" xlink:href="#DejaVuSans-103"/>
     <use x="501.814453" xlink:href="#DejaVuSans-121"/>
     <use x="560.994141" xlink:href="#DejaVuSans-32"/>
     <use x="592.78125" xlink:href="#DejaVuSans-116"/>
     <use x="631.990234" xlink:href="#DejaVuSans-101"/>
     <use x="693.513672" xlink:href="#DejaVuSans-115"/>
     <use x="745.613281" xlink:href="#DejaVuSans-116"/>
    </g>
   </g>
  </g>
  <g id="text_33">
   <!-- Population Uniqueness -->
   <g transform="translate(75.66375 14.878125)scale(0.12 -0.12)">
    <defs>
     <path d="M 18.109375 8.203125 
L 18.109375 -20.796875 
L 9.078125 -20.796875 
L 9.078125 54.6875 
L 18.109375 54.6875 
L 18.109375 46.390625 
Q 20.953125 51.265625 25.265625 53.625 
Q 29.59375 56 35.59375 56 
Q 45.5625 56 51.78125 48.09375 
Q 58.015625 40.1875 58.015625 27.296875 
Q 58.015625 14.40625 51.78125 6.484375 
Q 45.5625 -1.421875 35.59375 -1.421875 
Q 29.59375 -1.421875 25.265625 0.953125 
Q 20.953125 3.328125 18.109375 8.203125 
z
M 48.6875 27.296875 
Q 48.6875 37.203125 44.609375 42.84375 
Q 40.53125 48.484375 33.40625 48.484375 
Q 26.265625 48.484375 22.1875 42.84375 
Q 18.109375 37.203125 18.109375 27.296875 
Q 18.109375 17.390625 22.1875 11.75 
Q 26.265625 6.109375 33.40625 6.109375 
Q 40.53125 6.109375 44.609375 11.75 
Q 48.6875 17.390625 48.6875 27.296875 
z
" id="DejaVuSans-112"/>
     <path d="M 8.6875 72.90625 
L 18.609375 72.90625 
L 18.609375 28.609375 
Q 18.609375 16.890625 22.84375 11.734375 
Q 27.09375 6.59375 36.625 6.59375 
Q 46.09375 6.59375 50.34375 11.734375 
Q 54.59375 16.890625 54.59375 28.609375 
L 54.59375 72.90625 
L 64.5 72.90625 
L 64.5 27.390625 
Q 64.5 13.140625 57.4375 5.859375 
Q 50.390625 -1.421875 36.625 -1.421875 
Q 22.796875 -1.421875 15.734375 5.859375 
Q 8.6875 13.140625 8.6875 27.390625 
z
" id="DejaVuSans-85"/>
     <path d="M 14.796875 27.296875 
Q 14.796875 17.390625 18.875 11.75 
Q 22.953125 6.109375 30.078125 6.109375 
Q 37.203125 6.109375 41.296875 11.75 
Q 45.40625 17.390625 45.40625 27.296875 
Q 45.40625 37.203125 41.296875 42.84375 
Q 37.203125 48.484375 30.078125 48.484375 
Q 22.953125 48.484375 18.875 42.84375 
Q 14.796875 37.203125 14.796875 27.296875 
z
M 45.40625 8.203125 
Q 42.578125 3.328125 38.25 0.953125 
Q 33.9375 -1.421875 27.875 -1.421875 
Q 17.96875 -1.421875 11.734375 6.484375 
Q 5.515625 14.40625 5.515625 27.296875 
Q 5.515625 40.1875 11.734375 48.09375 
Q 17.96875 56 27.875 56 
Q 33.9375 56 38.25 53.625 
Q 42.578125 51.265625 45.40625 46.390625 
L 45.40625 54.6875 
L 54.390625 54.6875 
L 54.390625 -20.796875 
L 45.40625 -20.796875 
z
" id="DejaVuSans-113"/>
    </defs>
    <use xlink:href="#DejaVuSans-80"/>
    <use x="56.677734" xlink:href="#DejaVuSans-111"/>
    <use x="117.859375" xlink:href="#DejaVuSans-112"/>
    <use x="181.335938" xlink:href="#DejaVuSans-117"/>
    <use x="244.714844" xlink:href="#DejaVuSans-108"/>
    <use x="272.498047" xlink:href="#DejaVuSans-97"/>
    <use x="333.777344" xlink:href="#DejaVuSans-116"/>
    <use x="372.986328" xlink:href="#DejaVuSans-105"/>
    <use x="400.769531" xlink:href="#DejaVuSans-111"/>
    <use x="461.951172" xlink:href="#DejaVuSans-110"/>
    <use x="525.330078" xlink:href="#DejaVuSans-32"/>
    <use x="557.117188" xlink:href="#DejaVuSans-85"/>
    <use x="630.310547" xlink:href="#DejaVuSans-110"/>
    <use x="693.689453" xlink:href="#DejaVuSans-105"/>
    <use x="721.472656" xlink:href="#DejaVuSans-113"/>
    <use x="784.949219" xlink:href="#DejaVuSans-117"/>
    <use x="848.328125" xlink:href="#DejaVuSans-101"/>
    <use x="909.851562" xlink:href="#DejaVuSans-110"/>
    <use x="973.230469" xlink:href="#DejaVuSans-101"/>
    <use x="1034.753906" xlink:href="#DejaVuSans-115"/>
    <use x="1086.853516" xlink:href="#DejaVuSans-115"/>
   </g>
  </g>
  <g id="legend_1">
   <g id="patch_17">
    <path d="M 9.319531 283 
L 278.680469 283 
Q 280.680469 283 280.680469 281 
L 280.680469 267.321875 
Q 280.680469 265.321875 278.680469 265.321875 
L 9.319531 265.321875 
Q 7.319531 265.321875 7.319531 267.321875 
L 7.319531 281 
Q 7.319531 283 9.319531 283 
z
" style="fill:#ffffff;opacity:0.8;stroke:#cccccc;stroke-linejoin:miter;"/>
   </g>
   <g id="line2d_37">
    <path d="M 11.319531 273.420313 
L 31.319531 273.420313 
" style="fill:none;stroke:#da70d6;stroke-linecap:square;stroke-width:1.5;"/>
   </g>
   <g id="line2d_38"/>
   <g id="text_34">
    <!-- Bottom-Up -->
    <g transform="translate(39.319531 276.920313)scale(0.1 -0.1)">
     <defs>
      <path d="M 19.671875 34.8125 
L 19.671875 8.109375 
L 35.5 8.109375 
Q 43.453125 8.109375 47.28125 11.40625 
Q 51.125 14.703125 51.125 21.484375 
Q 51.125 28.328125 47.28125 31.5625 
Q 43.453125 34.8125 35.5 34.8125 
z
M 19.671875 64.796875 
L 19.671875 42.828125 
L 34.28125 42.828125 
Q 41.5 42.828125 45.03125 45.53125 
Q 48.578125 48.25 48.578125 53.8125 
Q 48.578125 59.328125 45.03125 62.0625 
Q 41.5 64.796875 34.28125 64.796875 
z
M 9.8125 72.90625 
L 35.015625 72.90625 
Q 46.296875 72.90625 52.390625 68.21875 
Q 58.5 63.53125 58.5 54.890625 
Q 58.5 48.1875 55.375 44.234375 
Q 52.25 40.28125 46.1875 39.3125 
Q 53.46875 37.75 57.5 32.78125 
Q 61.53125 27.828125 61.53125 20.40625 
Q 61.53125 10.640625 54.890625 5.3125 
Q 48.25 0 35.984375 0 
L 9.8125 0 
z
" id="DejaVuSans-66"/>
      <path d="M 4.890625 31.390625 
L 31.203125 31.390625 
L 31.203125 23.390625 
L 4.890625 23.390625 
z
" id="DejaVuSans-45"/>
     </defs>
     <use xlink:href="#DejaVuSans-66"/>
     <use x="68.603516" xlink:href="#DejaVuSans-111"/>
     <use x="129.785156" xlink:href="#DejaVuSans-116"/>
     <use x="168.994141" xlink:href="#DejaVuSans-116"/>
     <use x="208.203125" xlink:href="#DejaVuSans-111"/>
     <use x="269.384766" xlink:href="#DejaVuSans-109"/>
     <use x="366.796875" xlink:href="#DejaVuSans-45"/>
     <use x="402.880859" xlink:href="#DejaVuSans-85"/>
     <use x="476.074219" xlink:href="#DejaVuSans-112"/>
    </g>
   </g>
   <g id="line2d_39">
    <path d="M 113.274219 273.420313 
L 133.274219 273.420313 
" style="fill:none;stroke:#daa520;stroke-linecap:square;stroke-width:1.5;"/>
   </g>
   <g id="line2d_40"/>
   <g id="text_35">
    <!-- Genetic -->
    <g transform="translate(141.274219 276.920313)scale(0.1 -0.1)">
     <defs>
      <path d="M 59.515625 10.40625 
L 59.515625 29.984375 
L 43.40625 29.984375 
L 43.40625 38.09375 
L 69.28125 38.09375 
L 69.28125 6.78125 
Q 63.578125 2.734375 56.6875 0.65625 
Q 49.8125 -1.421875 42 -1.421875 
Q 24.90625 -1.421875 15.25 8.5625 
Q 5.609375 18.5625 5.609375 36.375 
Q 5.609375 54.25 15.25 64.234375 
Q 24.90625 74.21875 42 74.21875 
Q 49.125 74.21875 55.546875 72.453125 
Q 61.96875 70.703125 67.390625 67.28125 
L 67.390625 56.78125 
Q 61.921875 61.421875 55.765625 63.765625 
Q 49.609375 66.109375 42.828125 66.109375 
Q 29.4375 66.109375 22.71875 58.640625 
Q 16.015625 51.171875 16.015625 36.375 
Q 16.015625 21.625 22.71875 14.15625 
Q 29.4375 6.6875 42.828125 6.6875 
Q 48.046875 6.6875 52.140625 7.59375 
Q 56.25 8.5 59.515625 10.40625 
z
" id="DejaVuSans-71"/>
     </defs>
     <use xlink:href="#DejaVuSans-71"/>
     <use x="77.490234" xlink:href="#DejaVuSans-101"/>
     <use x="139.013672" xlink:href="#DejaVuSans-110"/>
     <use x="202.392578" xlink:href="#DejaVuSans-101"/>
     <use x="263.916016" xlink:href="#DejaVuSans-116"/>
     <use x="303.125" xlink:href="#DejaVuSans-105"/>
     <use x="330.908203" xlink:href="#DejaVuSans-99"/>
    </g>
   </g>
   <g id="line2d_41">
    <path d="M 199.863281 273.420313 
L 219.863281 273.420313 
" style="fill:none;stroke:#00bfff;stroke-linecap:square;stroke-width:1.5;"/>
   </g>
   <g id="line2d_42"/>
   <g id="text_36">
    <!-- Top-Down -->
    <g transform="translate(227.863281 276.920313)scale(0.1 -0.1)">
     <defs>
      <path d="M 19.671875 64.796875 
L 19.671875 8.109375 
L 31.59375 8.109375 
Q 46.6875 8.109375 53.6875 14.9375 
Q 60.6875 21.78125 60.6875 36.53125 
Q 60.6875 51.171875 53.6875 57.984375 
Q 46.6875 64.796875 31.59375 64.796875 
z
M 9.8125 72.90625 
L 30.078125 72.90625 
Q 51.265625 72.90625 61.171875 64.09375 
Q 71.09375 55.28125 71.09375 36.53125 
Q 71.09375 17.671875 61.125 8.828125 
Q 51.171875 0 30.078125 0 
L 9.8125 0 
z
" id="DejaVuSans-68"/>
      <path d="M 4.203125 54.6875 
L 13.1875 54.6875 
L 24.421875 12.015625 
L 35.59375 54.6875 
L 46.1875 54.6875 
L 57.421875 12.015625 
L 68.609375 54.6875 
L 77.59375 54.6875 
L 63.28125 0 
L 52.6875 0 
L 40.921875 44.828125 
L 29.109375 0 
L 18.5 0 
z
" id="DejaVuSans-119"/>
     </defs>
     <use xlink:href="#DejaVuSans-84"/>
     <use x="44.083984" xlink:href="#DejaVuSans-111"/>
     <use x="105.265625" xlink:href="#DejaVuSans-112"/>
     <use x="168.742188" xlink:href="#DejaVuSans-45"/>
     <use x="204.826172" xlink:href="#DejaVuSans-68"/>
     <use x="281.828125" xlink:href="#DejaVuSans-111"/>
     <use x="343.009766" xlink:href="#DejaVuSans-119"/>
     <use x="424.796875" xlink:href="#DejaVuSans-110"/>
    </g>
   </g>
  </g>
 </g>
 <defs>
  <clipPath id="p6b2dada370">
   <rect height="42.573913" width="223.2" x="36" y="34.56"/>
  </clipPath>
  <clipPath id="pa9a1c6a080">
   <rect height="42.573913" width="223.2" x="36" y="111.193043"/>
  </clipPath>
  <clipPath id="p05f962db90">
   <rect height="42.573913" width="223.2" x="36" y="187.826087"/>
  </clipPath>
 </defs>
</svg>
